{
.appVersion = "1349";
copyright = "Copyright 2020 The Chokokutai Project Authors (https://github.com/go108go/Chokokutai), all rights reserved.";
customParameters = (
{
name = vendorID;
value = FONZ;
},
{
name = localizedFamilyName;
value = "Japanese;彫刻体";
},
{
name = license;
value = "This Font Software is licensed under the SIL Open Font License, Version 1.1. This license is available with a FAQ at: https://scripts.sil.org/OFL";
},
{
name = licenseURL;
value = "https://scripts.sil.org/OFL";
},
{
name = fsType;
value = (
);
}
);
date = "2020-11-22 02:16:11 +0000";
designer = "108号,108go";
disablesNiceNames = 1;
familyName = Chokokutai;
featurePrefixes = (
{
automatic = 1;
code = "languagesystem DFLT dflt;\012\012languagesystem latn dflt;\012languagesystem latn AZE;\012languagesystem latn CRT;\012languagesystem latn KAZ;\012languagesystem latn TAT;\012languagesystem latn TRK;\012languagesystem latn ROM;\012languagesystem latn MOL;\012languagesystem latn CAT;\012";
name = Languagesystems;
}
);
features = (
{
automatic = 1;
code = "feature locl;\012feature sups;\012feature frac;\012feature ordn;\012feature fwid;\012feature vert;\012feature vkna;\012feature vrt2;\012";
name = aalt;
},
{
automatic = 1;

glyphs = (
{
color = 11;
glyphname = A;
lastChange = "2019-11-25 00:54:23 +0000";
layers = (
{
background = {
paths = (
{
closed = 1;
nodes = (
"711 50 LINE",
"540 774 LINE",
"171 774 LINE",
"171 724 LINE",
"248 724 LINE",
"111 50 LINE",
"30 50 LINE",
"30 0 LINE",
"212 0 LINE",
"212 50 LINE",
"133 50 LINE",
"249 330 LINE",
"542 330 LINE",
"684 50 LINE",
"601 50 LINE",
"601 0 LINE",
"783 0 LINE",
"783 50 LINE"
);
},
{
closed = 1;
nodes = (
"381 646 LINE",
"516 380 LINE",
"270 380 LINE"
);
}
);
};
layerId = "E2EFC82E-60BD-407F-B427-18737B8D95A5";
paths = (
{
closed = 1;
nodes = (
"711 50 LINE",
"540 774 LINE",
"171 774 LINE",
"171 724 LINE",
"248 724 LINE",
"111 50 LINE",
"30 50 LINE",
"30 0 LINE",
"212 0 LINE",
"212 50 LINE",
"133 50 LINE",
"249 330 LINE",
"542 330 LINE",
"684 50 LINE",
"601 50 LINE",
"601 0 LINE",
"783 0 LINE",
"783 50 LINE"
);
},
{
closed = 1;
nodes = (
"381 646 LINE",
"516 380 LINE",
"270 380 LINE"
);
}
);
width = 813;
}
);
leftKerningGroup = A;
unicode = 0041;
},
{
color = 11;
glyphname = Aacute;
lastChange = "2019-11-25 06:53:18 +0000";
layers = (
{
layerId = "E2EFC82E-60BD-407F-B427-18737B8D95A5";
paths = (
{
closed = 1;
nodes = (
"348 792 LINE",
"553 935 LINE",
"358 935 LINE"
);
},
{
closed = 1;
nodes = (
"711 50 LINE",
"540 774 LINE",
"170 774 LINE",
"170 724 LINE",
"247 724 LINE",
"111 50 LINE",
"30 50 LINE",
"30 0 LINE",
"212 0 LINE",
"212 50 LINE",
"133 50 LINE",
"249 330 LINE",
"541 330 LINE",
"684 50 LINE",
"601 50 LINE",
"601 0 LINE",
"783 0 LINE",
"783 50 LINE"
);
},
{
closed = 1;
nodes = (
"380 646 LINE",
"516 380 LINE",
"270 380 LINE"
);
}
);
width = 813;
}
);
leftKerningGroup = A;
unicode = 00C1;
},
{
color = 10;
glyphname = Abreve;
lastChange = "2019-11-25 06:53:18 +0000";
layers = (
{
layerId = "E2EFC82E-60BD-407F-B427-18737B8D95A5";
paths = (
{
closed = 1;
nodes = (
"711 50 LINE",
"540 774 LINE",
"170 774 LINE",
"170 724 LINE",
"247 724 LINE",
"111 50 LINE",
"30 50 LINE",
"30 0 LINE",
"212 0 LINE",
"212 50 LINE",
"132 50 LINE",
"249 330 LINE",
"541 330 LINE",
"683 50 LINE",
"601 50 LINE",
"601 0 LINE",
"783 0 LINE",
"783 50 LINE"
);
},
{
closed = 1;
nodes = (
"380 646 LINE",
"516 380 LINE",
"269 380 LINE"
);
},
{
closed = 1;
nodes = (
"422 882 LINE",
"304 882 LINE",
"241 983 LINE",
"165 983 LINE",
"271 821 LINE",
"456 821 LINE",
"562 983 LINE",
"485 983 LINE"
);
}
);
width = 813;
}
);
leftKerningGroup = A;
unicode = 0102;
},
{
color = 10;
glyphname = Abreveacute;
lastChange = "2019-11-25 06:53:18 +0000";
layers = (
{
layerId = "E2EFC82E-60BD-407F-B427-18737B8D95A5";
paths = (
{
closed = 1;
nodes = (
"467 882 LINE",
"349 882 LINE",
"286 983 LINE",
"210 983 LINE",
"316 821 LINE",
"500 821 LINE",
"606 983 LINE",
"530 983 LINE"
);
},
{
closed = 1;
nodes = (
"355 935 LINE",
"560 1078 LINE",
"365 1078 LINE"
);
},
{
closed = 1;
nodes = (
"711 50 LINE",
"540 774 LINE",
"171 774 LINE",
"171 724 LINE",
"248 724 LINE",
"111 50 LINE",
"30 50 LINE",
"30 0 LINE",
"212 0 LINE",
"212 50 LINE",
"133 50 LINE",
"249 330 LINE",
"542 330 LINE",
"684 50 LINE",
"601 50 LINE",
"601 0 LINE",
"783 0 LINE",
"783 50 LINE"
);
},
{
closed = 1;
nodes = (
"381 646 LINE",
"516 380 LINE",
"270 380 LINE"
);
}
);
width = 813;
}
);
leftKerningGroup = A;
unicode = 1EAE;
},
{
color = 10;
glyphname = Abrevedotbelow;
lastChange = "2019-11-25 10:43:41 +0000";
layers = (
{
layerId = "E2EFC82E-60BD-407F-B427-18737B8D95A5";
paths = (
{
closed = 1;
nodes = (
"451 883 LINE",
"333 883 LINE",
"270 983 LINE",
"194 983 LINE",
"300 821 LINE",
"484 821 LINE",
"590 983 LINE",
"514 983 LINE"
);
},
{
closed = 1;
nodes = (
"344 -163 LINE",
"469 -163 LINE",
"469 -38 LINE",
"344 -38 LINE"
);
},
{
closed = 1;
nodes = (
"711 50 LINE",
"540 775 LINE",
"170 774 LINE",
"170 724 LINE",
"247 724 LINE",
"111 50 LINE",
"30 50 LINE",
"30 0 LINE",
"212 0 LINE",
"212 50 LINE",
"133 50 LINE",
"249 330 LINE",
"541 330 LINE",
"683 50 LINE",
"601 50 LINE",
"601 0 LINE",
"783 0 LINE",
"783 50 LINE"
);
},
{
closed = 1;
nodes = (
"380 647 LINE",
"516 380 LINE",
"269 380 LINE"
);
}
);
width = 813;
}
);
leftKerningGroup = A;
unicode = 1EB6;
},
{
color = 10;
glyphname = Abrevegrave;
lastChange = "2019-11-25 06:53:18 +0000";
layers = (
{
layerId = "E2EFC82E-60BD-407F-B427-18737B8D95A5";
paths = (
{
closed = 1;
nodes = (
"449 882 LINE",
"331 882 LINE",
"268 982 LINE",
"192 982 LINE",
"298 820 LINE",
"482 820 LINE",
"588 982 LINE",
"512 982 LINE"
);
},
{
closed = 1;
nodes = (
"432 934 LINE",
"227 1077 LINE",
"422 1077 LINE"
);
},
{
closed = 1;
nodes = (
"711 49 LINE",
"540 774 LINE",
"171 773 LINE",
"171 723 LINE",
"248 723 LINE",
"111 49 LINE",
"30 49 LINE",
"30 -1 LINE",
"212 -1 LINE",
"212 49 LINE",
"133 49 LINE",
"249 329 LINE",
"542 329 LINE",
"684 49 LINE",
"601 49 LINE",
"601 -1 LINE",
"783 -1 LINE",
"783 49 LINE"
);
},
{
closed = 1;
nodes = (
"381 646 LINE",
"516 379 LINE",
"270 379 LINE"
);
}
);
width = 813;
}
);
leftKerningGroup = A;
unicode = 1EB0;
},
{
color = 10;
glyphname = Abrevehookabove;
lastChange = "2019-11-25 06:53:18 +0000";
layers = (
{
layerId = "E2EFC82E-60BD-407F-B427-18737B8D95A5";
paths = (
{
closed = 1;
nodes = (
"448 882 LINE",
"330 882 LINE",
"267 982 LINE",
"190 982 LINE",
"296 820 LINE",
"481 820 LINE",
"587 982 LINE",
"511 982 LINE"
);
},
{
closed = 1;
nodes = (
"433 991 LINE",
"433 1035 LINE",
"265 1035 LINE",
"382 1119 LINE",
"480 1057 LINE",
"480 974 LINE",
"386 935 LINE",
"386 901 LINE",
"340 901 LINE",
"340 991 LINE"
);
},
{
closed = 1;
nodes = (
"711 49 LINE",
"540 774 LINE",
"171 773 LINE",
"171 723 LINE",
"248 723 LINE",
"111 49 LINE",
"30 49 LINE",
"30 -1 LINE",
"212 -1 LINE",
"212 49 LINE",
"133 49 LINE",
"249 329 LINE",
"542 329 LINE",
"684 49 LINE",
"601 49 LINE",
"601 -1 LINE",
"783 -1 LINE",
"783 49 LINE"
);
},
{
closed = 1;
nodes = (
"381 646 LINE",
"516 379 LINE",
"270 379 LINE"
);
}
);
width = 813;
}
);
leftKerningGroup = A;
unicode = 1EB2;
},
{
color = 10;
glyphname = Abrevetilde;
lastChange = "2019-11-25 06:53:18 +0000";
layers = (
{
layerId = "E2EFC82E-60BD-407F-B427-18737B8D95A5";
paths = (
{
closed = 1;
nodes = (
"459 882 LINE",
"341 882 LINE",
"278 982 LINE",
"201 982 LINE",
"307 820 LINE",
"492 820 LINE",
"598 982 LINE",
"521 982 LINE"
);
},
{
closed = 1;
nodes = (
"457 1044 LINE",
"453 1091 LINE",
"237 937 LINE",
"407 986 LINE",
"410 936 LINE",
"623 1087 LINE"
);
},
{
closed = 1;
nodes = (
"712 49 LINE",
"541 774 LINE",
"171 773 LINE",
"171 723 LINE",
"248 723 LINE",
"112 49 LINE",
"30 49 LINE",
"30 -1 LINE",
"213 -1 LINE",
"213 49 LINE",
"133 49 LINE",
"249 329 LINE",
"542 329 LINE",
"684 49 LINE",
"602 49 LINE",
"602 -1 LINE",
"784 -1 LINE",
"784 49 LINE"
);
},
{
closed = 1;
nodes = (
"381 646 LINE",
"517 379 LINE",
"270 379 LINE"
);
}
);
width = 814;
}
);
leftKerningGroup = A;
unicode = 1EB4;
},
{
color = 11;
glyphname = Acircumflex;
lastChange = "2019-11-25 06:53:18 +0000";
layers = (
{
layerId = "E2EFC82E-60BD-407F-B427-18737B8D95A5";
paths = (
{
closed = 1;
nodes = (
"711 50 LINE",
"540 774 LINE",
"170 774 LINE",
"170 724 LINE",
"247 724 LINE",
"111 50 LINE",
"30 50 LINE",
"30 0 LINE",
"212 0 LINE",
"212 50 LINE",
"133 50 LINE",
"249 330 LINE",
"541 330 LINE",
"683 50 LINE",
"601 50 LINE",
"601 0 LINE",
"783 0 LINE",
"783 50 LINE"
);
},
{
closed = 1;
nodes = (
"380 646 LINE",
"516 380 LINE",
"270 380 LINE"
);
},
{
closed = 1;
nodes = (
"567 804 LINE",
"385 848 LINE",
"202 804 LINE",
"385 951 LINE"
);
}
);
width = 813;
}
);
leftKerningGroup = A;
unicode = 00C2;
},
{
color = 10;
glyphname = Acircumflexacute;
lastChange = "2019-11-25 06:53:18 +0000";
layers = (
{
layerId = "E2EFC82E-60BD-407F-B427-18737B8D95A5";
paths = (
{
closed = 1;
nodes = (
"303 935 LINE",
"507 1078 LINE",
"313 1078 LINE"
);
},
{
closed = 1;
nodes = (
"204 805 LINE",
"386 849 LINE",
"568 805 LINE",
"386 951 LINE"
);
},
{
closed = 1;
nodes = (
"711 50 LINE",
"540 774 LINE",
"170 774 LINE",
"170 724 LINE",
"247 724 LINE",
"111 50 LINE",
"30 50 LINE",
"30 0 LINE",
"212 0 LINE",
"212 50 LINE",
"132 50 LINE",
"249 330 LINE",
"541 330 LINE",
"683 50 LINE",
"601 50 LINE",
"601 0 LINE",
"783 0 LINE",
"783 50 LINE"
);
},
{
closed = 1;
nodes = (
"380 646 LINE",
"516 380 LINE",
"269 380 LINE"
);
}
);
width = 813;
}
);
leftKerningGroup = A;
unicode = 1EA4;
},
{
color = 10;
glyphname = Acircumflexdotbelow;
lastChange = "2019-11-25 06:53:18 +0000";
layers = (
{
layerId = "E2EFC82E-60BD-407F-B427-18737B8D95A5";
paths = (
{
closed = 1;
nodes = (
"344 -92 LINE",
"469 -92 LINE",
"469 33 LINE",
"344 33 LINE"
);
},
{
closed = 1;
nodes = (
"572 877 LINE",
"390 921 LINE",
"208 877 LINE",
"390 1023 LINE"
);
},
{
closed = 1;
nodes = (
"711 122 LINE",
"540 846 LINE",
"170 846 LINE",
"170 796 LINE",
"247 796 LINE",
"111 122 LINE",
"30 122 LINE",
"30 72 LINE",
"212 72 LINE",
"212 122 LINE",
"133 122 LINE",
"249 402 LINE",
"542 402 LINE",
"684 122 LINE",
"601 122 LINE",
"601 72 LINE",
"783 72 LINE",
"783 122 LINE"
);
},
{
closed = 1;
nodes = (
"381 718 LINE",
"516 452 LINE",
"270 452 LINE"
);
}
);
width = 813;
}
);
leftKerningGroup = A;
unicode = 1EAC;
},
{
color = 10;
glyphname = Acircumflexgrave;
lastChange = "2019-11-25 06:53:18 +0000";
layers = (
{
layerId = "E2EFC82E-60BD-407F-B427-18737B8D95A5";
paths = (
{
closed = 1;
nodes = (
"478 935 LINE",
"273 1078 LINE",
"468 1078 LINE"
);
},
{
closed = 1;
nodes = (
"577 805 LINE",
"395 849 LINE",
"212 805 LINE",
"395 951 LINE"
);
},
{
closed = 1;
nodes = (
"712 50 LINE",
"541 774 LINE",
"171 774 LINE",
"171 724 LINE",
"248 724 LINE",
"112 50 LINE",
"30 50 LINE",
"30 0 LINE",
"213 0 LINE",
"213 50 LINE",
"133 50 LINE",
"249 330 LINE",
"542 330 LINE",
"684 50 LINE",
"602 50 LINE",
"602 0 LINE",
"784 0 LINE",
"784 50 LINE"
);
},
{
closed = 1;
nodes = (
"381 646 LINE",
"517 380 LINE",
"270 380 LINE"
);
}
);
width = 814;
}
);
leftKerningGroup = A;
unicode = 1EA6;
},
{
color = 10;
glyphname = Acircumflexhookabove;
lastChange = "2019-11-25 06:53:18 +0000";
layers = (
{
layerId = "E2EFC82E-60BD-407F-B427-18737B8D95A5";
paths = (
{
closed = 1;
nodes = (
"605 959 LINE",
"605 1003 LINE",
"438 1003 LINE",
"555 1086 LINE",
"653 1025 LINE",
"653 942 LINE",
"559 903 LINE",
"559 869 LINE",
"512 869 LINE",
"512 959 LINE"
);
},
{
closed = 1;
nodes = (
"582 805 LINE",
"400 849 LINE",
"218 805 LINE",
"400 951 LINE"
);
},
{
closed = 1;
nodes = (
"711 50 LINE",
"540 774 LINE",
"171 774 LINE",
"171 724 LINE",
"248 724 LINE",
"111 50 LINE",
"30 50 LINE",
"30 0 LINE",
"212 0 LINE",
"212 50 LINE",
"133 50 LINE",
"249 330 LINE",
"542 330 LINE",
"684 50 LINE",
"601 50 LINE",
"601 0 LINE",
"783 0 LINE",
"783 50 LINE"
);
},
{
closed = 1;
nodes = (
"381 646 LINE",
"516 380 LINE",
"270 380 LINE"
);
}
);
width = 813;
}
);
leftKerningGroup = A;
unicode = 1EA8;
},
{
color = 10;
glyphname = Acircumflextilde;
lastChange = "2019-11-25 06:53:18 +0000";
layers = (
{
layerId = "E2EFC82E-60BD-407F-B427-18737B8D95A5";
paths = (
{
closed = 1;
nodes = (
"454 1045 LINE",
"450 1092 LINE",
"233 937 LINE",
"403 986 LINE",
"407 937 LINE",
"619 1088 LINE"
);
},
{
closed = 1;
nodes = (
"557 805 LINE",
"375 849 LINE",
"192 805 LINE",
"375 951 LINE"
);
},
{
closed = 1;
nodes = (
"711 50 LINE",
"540 774 LINE",
"170 774 LINE",
"170 724 LINE",
"247 724 LINE",
"111 50 LINE",
"30 50 LINE",
"30 0 LINE",
"212 0 LINE",
"212 50 LINE",
"133 50 LINE",
"249 330 LINE",
"541 330 LINE",
"683 50 LINE",
"601 50 LINE",
"601 0 LINE",
"783 0 LINE",
"783 50 LINE"
);
},
{
closed = 1;
nodes = (
"380 646 LINE",
"516 380 LINE",
"270 380 LINE"
);
}
);
width = 813;
}
);
leftKerningGroup = A;
unicode = 1EAA;
},
{
color = 10;
glyphname = Adblgrave;
lastChange = "2019-11-25 06:53:18 +0000";
layers = (
{
layerId = "E2EFC82E-60BD-407F-B427-18737B8D95A5";
paths = (
{
closed = 1;
nodes = (
"711 50 LINE",
"540 774 LINE",
"170 774 LINE",
"170 724 LINE",
"247 724 LINE",
"111 50 LINE",
"30 50 LINE",
"30 0 LINE",
"212 0 LINE",
"212 50 LINE",
"133 50 LINE",
"249 330 LINE",
"542 330 LINE",
"684 50 LINE",
"601 50 LINE",
"601 0 LINE",
"783 0 LINE",
"783 50 LINE"
);
},
{
closed = 1;
nodes = (
"381 646 LINE",
"516 380 LINE",
"270 380 LINE"
);
},
{
closed = 1;
nodes = (
"552 793 LINE",
"348 936 LINE",
"542 936 LINE"
);
},
{
closed = 1;
nodes = (
"326 793 LINE",
"121 936 LINE",
"316 936 LINE"
);
}
);
width = 813;
}
);
leftKerningGroup = A;
unicode = 0200;
},
{
color = 11;
glyphname = Adieresis;
lastChange = "2019-11-25 06:53:18 +0000";
layers = (
{
layerId = "E2EFC82E-60BD-407F-B427-18737B8D95A5";
paths = (
{
closed = 1;
nodes = (
"711 50 LINE",
"540 774 LINE",
"171 774 LINE",
"171 724 LINE",
"248 724 LINE",
"111 50 LINE",
"30 50 LINE",
"30 0 LINE",
"212 0 LINE",
"212 50 LINE",
"133 50 LINE",
"249 330 LINE",
"542 330 LINE",
"684 50 LINE",
"601 50 LINE",
"601 0 LINE",
"783 0 LINE",
"783 50 LINE"
);
},
{
closed = 1;
nodes = (
"381 646 LINE",
"516 380 LINE",
"270 380 LINE"
);
},
{
closed = 1;
nodes = (
"211 825 LINE",
"336 825 LINE",
"336 950 LINE",
"211 950 LINE"
);
},
{
closed = 1;
nodes = (
"423 825 LINE",
"548 825 LINE",
"548 950 LINE",
"423 950 LINE"
);
}
);
width = 813;
}
);
leftKerningGroup = A;
unicode = 00C4;
},
{
color = 10;
glyphname = Adotbelow;
lastChange = "2019-11-25 06:53:18 +0000";
layers = (
{
layerId = "E2EFC82E-60BD-407F-B427-18737B8D95A5";
paths = (
{
closed = 1;
nodes = (
"344 -193 LINE",
"469 -193 LINE",
"469 -68 LINE",
"344 -68 LINE"
);
},
{
closed = 1;
nodes = (
"711 21 LINE",
"540 745 LINE",
"170 745 LINE",
"170 695 LINE",
"247 695 LINE",
"111 21 LINE",
"30 21 LINE",
"30 -29 LINE",
"212 -29 LINE",
"212 21 LINE",
"133 21 LINE",
"249 301 LINE",
"541 301 LINE",
"683 21 LINE",
"601 21 LINE",
"601 -29 LINE",
"783 -29 LINE",
"783 21 LINE"
);
},
{
closed = 1;
nodes = (
"380 617 LINE",
"516 351 LINE",
"269 351 LINE"
);
}
);
width = 813;
}
);
leftKerningGroup = A;
unicode = 1EA0;
},
{
color = 11;
glyphname = Agrave;
lastChange = "2019-11-25 06:53:18 +0000";
layers = (
{
layerId = "E2EFC82E-60BD-407F-B427-18737B8D95A5";
paths = (
{
closed = 1;
nodes = (
"435 792 LINE",
"230 935 LINE",
"425 935 LINE"
);
},
{
closed = 1;
nodes = (
"711 50 LINE",
"540 774 LINE",
"171 774 LINE",
"171 724 LINE",
"248 724 LINE",
"111 50 LINE",
"30 50 LINE",
"30 0 LINE",
"212 0 LINE",
"212 50 LINE",
"133 50 LINE",
"249 330 LINE",
"542 330 LINE",
"684 50 LINE",
"601 50 LINE",
"601 0 LINE",
"783 0 LINE",
"783 50 LINE"
);
},
{
closed = 1;
nodes = (
"381 646 LINE",
"516 380 LINE",
"270 380 LINE"
);
}
);
width = 813;
}
);
leftKerningGroup = A;
unicode = 00C0;
},
{
color = 10;
glyphname = Ahookabove;
lastChange = "2019-11-25 06:53:18 +0000";
layers = (
{
layerId = "E2EFC82E-60BD-407F-B427-18737B8D95A5";
paths = (
{
closed = 1;
nodes = (
"446 895 LINE",
"446 939 LINE",
"279 939 LINE",
"396 1022 LINE",
"494 961 LINE",
"494 877 LINE",
"400 839 LINE",
"400 796 LINE",
"354 796 LINE",
"354 895 LINE"
);
},
{
closed = 1;
nodes = (
"711 50 LINE",
"540 774 LINE",
"171 774 LINE",
"171 724 LINE",
"248 724 LINE",
"111 50 LINE",
"30 50 LINE",
"30 0 LINE",
"212 0 LINE",
"212 50 LINE",
"133 50 LINE",
"249 330 LINE",
"542 330 LINE",
"684 50 LINE",
"601 50 LINE",
"601 0 LINE",
"783 0 LINE",
"783 50 LINE"
);
},
{
closed = 1;
nodes = (
"381 646 LINE",
"516 380 LINE",
"270 380 LINE"
);
}
);
width = 813;
}
);
leftKerningGroup = A;
unicode = 1EA2;
},
{
color = 10;
glyphname = Ainvertedbreve;
lastChange = "2019-11-25 06:53:18 +0000";
layers = (
{
layerId = "E2EFC82E-60BD-407F-B427-18737B8D95A5";
paths = (
{
closed = 1;
nodes = (
"711 50 LINE",
"540 774 LINE",
"170 774 LINE",
"170 724 LINE",
"247 724 LINE",
"111 50 LINE",
"30 50 LINE",
"30 0 LINE",
"212 0 LINE",
"212 50 LINE",
"132 50 LINE",
"249 330 LINE",
"541 330 LINE",
"683 50 LINE",
"601 50 LINE",
"601 0 LINE",
"783 0 LINE",
"783 50 LINE"
);
},
{
closed = 1;
nodes = (
"380 646 LINE",
"516 380 LINE",
"269 380 LINE"
);
},
{
closed = 1;
nodes = (
"454 921 LINE",
"335 921 LINE",
"273 821 LINE",
"196 821 LINE",
"302 983 LINE",
"487 983 LINE",
"593 821 LINE",
"516 821 LINE"
);
}
);
width = 813;
}
);
leftKerningGroup = A;
unicode = 0202;
},
{
color = 10;
glyphname = Amacron;
lastChange = "2019-11-25 06:53:18 +0000";
layers = (
{
layerId = "E2EFC82E-60BD-407F-B427-18737B8D95A5";
paths = (
{
closed = 1;
nodes = (
"711 50 LINE",
"540 774 LINE",
"171 774 LINE",
"171 724 LINE",
"248 724 LINE",
"111 50 LINE",
"30 50 LINE",
"30 0 LINE",
"212 0 LINE",
"212 50 LINE",
"133 50 LINE",
"249 330 LINE",
"542 330 LINE",
"684 50 LINE",
"601 50 LINE",
"601 0 LINE",
"783 0 LINE",
"783 50 LINE"
);
},
{
closed = 1;
nodes = (
"381 646 LINE",
"516 380 LINE",
"270 380 LINE"
);
},
{
closed = 1;
nodes = (
"604 934 LINE",
"574 894 LINE",
"245 834 LINE",
"164 934 LINE"
);
}
);
width = 813;
}
);
leftKerningGroup = A;
unicode = 0100;
},
{
color = 10;
glyphname = Aogonek;
lastChange = "2019-11-25 10:47:07 +0000";
layers = (
{
layerId = "E2EFC82E-60BD-407F-B427-18737B8D95A5";
paths = (
{
closed = 1;
nodes = (
"695 -108 LINE",
"723 0 LINE",
"783 0 LINE",
"783 50 LINE",
"711 50 LINE",
"540 774 LINE",
"170 774 LINE",
"170 724 LINE",
"247 724 LINE",
"111 50 LINE",
"30 50 LINE",
"30 0 LINE",
"212 0 LINE",
"212 50 LINE",
"132 50 LINE",
"249 330 LINE",
"541 330 LINE",
"683 50 LINE",
"601 50 LINE",
"601 0 LINE",
"661 0 LINE",
"611 -225 LINE",
"826 -108 LINE"
);
},
{
closed = 1;
nodes = (
"380 646 LINE",
"516 380 LINE",
"269 380 LINE"
);
}
);
width = 826;
}
);
leftKerningGroup = A;
unicode = 0104;
},
{
color = 11;
glyphname = Aring;
lastChange = "2019-11-25 06:53:18 +0000";
layers = (
{
layerId = "E2EFC82E-60BD-407F-B427-18737B8D95A5";
paths = (
{
closed = 1;
nodes = (
"278 813 LINE",
"510 813 LINE",
"510 982 LINE",
"278 982 LINE"
);
},
{
closed = 1;
nodes = (
"328 863 LINE",
"328 932 LINE",
"460 932 LINE",
"460 863 LINE"
);
},
{
closed = 1;
nodes = (
"712 50 LINE",
"541 774 LINE",
"171 774 LINE",
"171 724 LINE",
"248 724 LINE",
"112 50 LINE",
"30 50 LINE",
"30 0 LINE",
"212 0 LINE",
"212 50 LINE",
"133 50 LINE",
"249 330 LINE",
"542 330 LINE",
"684 50 LINE",
"601 50 LINE",
"601 0 LINE",
"784 0 LINE",
"784 50 LINE"
);
},
{
closed = 1;
nodes = (
"381 646 LINE",
"517 380 LINE",
"270 380 LINE"
);
}
);
width = 814;
}
);
leftKerningGroup = A;
unicode = 00C5;
},
{
color = 10;
glyphname = Aringacute;
lastChange = "2019-11-25 06:53:18 +0000";
layers = (
{
layerId = "E2EFC82E-60BD-407F-B427-18737B8D95A5";
paths = (
{
closed = 1;
nodes = (
"313 999 LINE",
"518 1141 LINE",
"323 1141 LINE"
);
},
{
closed = 1;
nodes = (
"266 814 LINE",
"499 814 LINE",
"499 983 LINE",
"266 983 LINE"
);
},
{
closed = 1;
nodes = (
"316 864 LINE",
"316 933 LINE",
"449 933 LINE",
"449 864 LINE"
);
},
{
closed = 1;
nodes = (
"711 50 LINE",
"540 774 LINE",
"170 774 LINE",
"170 724 LINE",
"247 724 LINE",
"111 50 LINE",
"30 50 LINE",
"30 0 LINE",
"212 0 LINE",
"212 50 LINE",
"133 50 LINE",
"249 329 LINE",
"541 329 LINE",
"683 50 LINE",
"601 50 LINE",
"601 0 LINE",
"783 0 LINE",
"783 50 LINE"
);
},
{
closed = 1;
nodes = (
"380 646 LINE",
"516 379 LINE",
"270 379 LINE"
);
}
);
width = 813;
}
);
leftKerningGroup = A;
unicode = 01FA;
},
{
color = 11;
glyphname = Atilde;
lastChange = "2019-11-25 06:53:18 +0000";
layers = (
{
layerId = "E2EFC82E-60BD-407F-B427-18737B8D95A5";
paths = (
{
closed = 1;
nodes = (
"711 50 LINE",
"540 774 LINE",
"170 774 LINE",
"170 724 LINE",
"247 724 LINE",
"111 50 LINE",
"30 50 LINE",
"30 0 LINE",
"212 0 LINE",
"212 50 LINE",
"133 50 LINE",
"249 330 LINE",
"541 330 LINE",
"683 50 LINE",
"601 50 LINE",
"601 0 LINE",
"783 0 LINE",
"783 50 LINE"
);
},
{
closed = 1;
nodes = (
"380 646 LINE",
"516 380 LINE",
"270 380 LINE"
);
},
{
closed = 1;
nodes = (
"422 905 LINE",
"418 952 LINE",
"202 798 LINE",
"371 847 LINE",
"375 797 LINE",
"587 948 LINE"
);
}
);
width = 813;
}
);
leftKerningGroup = A;
unicode = 00C3;
},
{
color = 11;
glyphname = AE;
lastChange = "2019-11-25 06:53:18 +0000";
layers = (
{
layerId = "E2EFC82E-60BD-407F-B427-18737B8D95A5";
paths = (
{
closed = 1;
nodes = (
"926 724 LINE",
"1066 546 LINE",
"1066 800 LINE",
"1026 800 LINE",
"1026 774 LINE",
"281 774 LINE",
"281 724 LINE",
"338 724 LINE",
"108 50 LINE",
"30 50 LINE",
"30 0 LINE",
"212 0 LINE",
"212 50 LINE",
"136 50 LINE",
"296 330 LINE",
"578 330 LINE",
"578 50 LINE",
"451 50 LINE",
"451 0 LINE",
"1026 0 LINE",
"1026 -24 LINE",
"1066 -24 LINE",
"1066 229 LINE",
"926 50 LINE",
"604 50 LINE",
"688 382 LINE",
"956 382 LINE",
"956 332 LINE",
"996 332 LINE",
"996 482 LINE",
"956 482 LINE",
"956 432 LINE",
"701 432 LINE",
"775 724 LINE"
);
},
{
closed = 1;
nodes = (
"521 724 LINE",
"578 724 LINE",
"578 380 LINE",
"324 380 LINE"
);
}
);
width = 1096;
}
);
leftKerningGroup = A;
unicode = 00C6;
},
{
color = 10;
glyphname = AEacute;
lastChange = "2019-11-25 06:53:18 +0000";
layers = (
{
layerId = "E2EFC82E-60BD-407F-B427-18737B8D95A5";
paths = (
{
closed = 1;
nodes = (
"926 724 LINE",
"1066 546 LINE",
"1066 800 LINE",
"1026 800 LINE",
"1026 774 LINE",
"281 774 LINE",
"281 724 LINE",
"338 724 LINE",
"108 50 LINE",
"30 50 LINE",
"30 0 LINE",
"212 0 LINE",
"212 50 LINE",
"136 50 LINE",
"296 329 LINE",
"578 329 LINE",
"578 50 LINE",
"451 50 LINE",
"451 0 LINE",
"1026 0 LINE",
"1026 -24 LINE",
"1066 -24 LINE",
"1066 228 LINE",
"926 50 LINE",
"604 50 LINE",
"688 382 LINE",
"956 382 LINE",
"956 332 LINE",
"996 332 LINE",
"996 482 LINE",
"956 482 LINE",
"956 432 LINE",
"701 432 LINE",
"775 724 LINE"
);
},
{
closed = 1;
nodes = (
"521 724 LINE",
"578 724 LINE",
"578 379 LINE",
"324 379 LINE"
);
},
{
closed = 1;
nodes = (
"660 792 LINE",
"865 935 LINE",
"670 935 LINE"
);
}
);
width = 1096;
}
);
leftKerningGroup = A;
unicode = 01FC;
},
{
color = 11;
glyphname = B;
lastChange = "2019-11-24 13:11:21 +0000";
layers = (
{
layerId = "E2EFC82E-60BD-407F-B427-18737B8D95A5";
paths = (
{
closed = 1;
nodes = (
"522 432 LINE",
"665 594 LINE",
"501 774 LINE",
"30 774 LINE",
"30 724 LINE",
"89 724 LINE",
"89 50 LINE",
"30 50 LINE",
"30 0 LINE",
"531 0 LINE",
"740 228 LINE"
);
},
{
closed = 1;
nodes = (
"471 724 LINE",
"471 432 LINE",
"227 432 LINE",
"311 724 LINE"
);
},
{
closed = 1;
nodes = (
"512 382 LINE",
"512 50 LINE",
"118 50 LINE",
"213 382 LINE"
);
}
);
width = 770;
}
);
unicode = 0042;
},
{
color = 11;
glyphname = C;
lastChange = "2019-11-25 00:29:26 +0000";
layers = (
{
layerId = "E2EFC82E-60BD-407F-B427-18737B8D95A5";
paths = (
{
closed = 1;
nodes = (
"689 546 LINE",
"688 800 LINE",
"648 800 LINE",
"648 774 LINE",
"251 774 LINE",
"30 409 LINE",
"251 0 LINE",
"689 0 LINE",
"689 50 LINE",
"264 50 LINE",
"264 724 LINE",
"549 724 LINE"
);
}
);
width = 719;
}
);
leftKerningGroup = C;
unicode = 0043;
},
{
color = 10;
glyphname = Cacute;
lastChange = "2019-11-25 06:53:27 +0000";
layers = (
{
layerId = "E2EFC82E-60BD-407F-B427-18737B8D95A5";
paths = (
{
closed = 1;
nodes = (
"688 546 LINE",
"688 800 LINE",
"648 800 LINE",
"648 774 LINE",
"250 774 LINE",
"30 409 LINE",
"250 0 LINE",
"688 0 LINE",
"688 50 LINE",
"263 50 LINE",
"263 724 LINE",
"549 724 LINE"
);
},
{
closed = 1;
nodes = (
"382 793 LINE",
"587 936 LINE",
"392 936 LINE"
);
}
);
width = 718;
}
);
leftKerningGroup = C;
unicode = 0106;
},
{
color = 10;
glyphname = Ccaron;
lastChange = "2019-11-25 06:53:27 +0000";
layers = (
{
layerId = "E2EFC82E-60BD-407F-B427-18737B8D95A5";
paths = (
{
closed = 1;
nodes = (
"688 546 LINE",
"688 800 LINE",
"648 800 LINE",
"648 774 LINE",
"250 774 LINE",
"30 409 LINE",
"250 0 LINE",
"688 0 LINE",
"688 50 LINE",
"263 50 LINE",
"263 724 LINE",
"549 724 LINE"
);
},
{
closed = 1;
nodes = (
"626 951 LINE",
"444 907 LINE",
"262 951 LINE",
"444 805 LINE"
);
}
);
width = 718;
}
);
leftKerningGroup = C;
unicode = 010C;
},
{
color = 11;
glyphname = Ccedilla;
lastChange = "2019-11-25 06:53:27 +0000";
layers = (
{
layerId = "E2EFC82E-60BD-407F-B427-18737B8D95A5";
paths = (
{
closed = 1;
nodes = (
"549 724 LINE",
"689 546 LINE",
"688 800 LINE",
"648 800 LINE",
"648 774 LINE",
"251 774 LINE",
"30 409 LINE",
"251 0 LINE",
"428 0 LINE",
"428 -97 LINE",
"549 -97 LINE",
"549 -141 LINE",
"382 -141 LINE",
"492 -225 LINE",
"597 -152 LINE",
"597 -80 LINE",
"475 -20 LINE",
"475 0 LINE",
"689 0 LINE",
"689 50 LINE",
"264 50 LINE",
"264 724 LINE"
);
}
);
width = 719;
}
);
leftKerningGroup = C;
unicode = 00C7;
},
{
color = 10;
glyphname = Ccircumflex;
lastChange = "2019-11-25 06:53:27 +0000";
layers = (
{
layerId = "E2EFC82E-60BD-407F-B427-18737B8D95A5";
paths = (
{
closed = 1;
nodes = (
"688 546 LINE",
"688 800 LINE",
"648 800 LINE",
"648 774 LINE",
"250 774 LINE",
"30 409 LINE",
"250 0 LINE",
"688 0 LINE",
"688 50 LINE",
"263 50 LINE",
"263 724 LINE",
"549 724 LINE"
);
},
{
closed = 1;
nodes = (
"658 805 LINE",
"476 849 LINE",
"294 805 LINE",
"476 951 LINE"
);
}
);
width = 718;
}
);
leftKerningGroup = C;
unicode = 0108;
},
{
color = 10;
glyphname = Cdotaccent;
lastChange = "2019-11-25 06:53:27 +0000";
layers = (
{
layerId = "E2EFC82E-60BD-407F-B427-18737B8D95A5";
paths = (
{
closed = 1;
nodes = (
"688 546 LINE",
"688 800 LINE",
"648 800 LINE",
"648 774 LINE",
"250 774 LINE",
"30 409 LINE",
"250 0 LINE",
"688 0 LINE",
"688 50 LINE",
"263 50 LINE",
"263 724 LINE",
"549 724 LINE"
);
},
{
closed = 1;
nodes = (
"370 826 LINE",
"495 826 LINE",
"495 951 LINE",
"370 951 LINE"
);
}
);
width = 718;
}
);
leftKerningGroup = C;
unicode = 010A;
},
{
color = 11;
glyphname = D;
lastChange = "2019-11-25 06:53:34 +0000";
layers = (
{
layerId = "E2EFC82E-60BD-407F-B427-18737B8D95A5";
paths = (
{
closed = 1;
nodes = (
"563 774 LINE",
"30 774 LINE",
"30 724 LINE",
"79 724 LINE",
"79 50 LINE",
"30 50 LINE",
"30 0 LINE",
"563 0 LINE",
"785 409 LINE"
);
},
{
closed = 1;
nodes = (
"301 724 LINE",
"550 724 LINE",
"550 50 LINE",
"108 50 LINE"
);
}
);
width = 815;
}
);
leftKerningGroup = D;
unicode = 0044;
},
{
color = 10;
glyphname = DZcaron;
lastChange = "2019-11-25 06:53:34 +0000";
layers = (
{
layerId = "E2EFC82E-60BD-407F-B427-18737B8D95A5";
paths = (
{
closed = 1;
nodes = (
"563 774 LINE",
"30 774 LINE",
"30 724 LINE",
"79 724 LINE",
"79 50 LINE",
"30 50 LINE",
"30 0 LINE",
"563 0 LINE",
"785 409 LINE"
);
},
{
closed = 1;
nodes = (
"301 724 LINE",
"550 724 LINE",
"550 50 LINE",
"108 50 LINE"
);
},
{
closed = 1;
nodes = (
"1078 431 LINE",
"1329 775 LINE",
"835 775 LINE",
"835 801 LINE",
"795 801 LINE",
"795 546 LINE",
"934 724 LINE",
"1078 724 LINE",
"1078 437 LINE",
"798 0 LINE",
"1241 0 LINE",
"1241 -21 LINE",
"1281 -21 LINE",
"1281 229 LINE",
"1141 50 LINE",
"1078 50 LINE"
);
},
{
closed = 1;
nodes = (
"1237 952 LINE",
"1055 907 LINE",
"873 952 LINE",
"1055 805 LINE"
);
}
);
width = 1359;
}
);
leftKerningGroup = D;
unicode = 01C4;
},
{
color = 11;
glyphname = Eth;
lastChange = "2019-11-25 06:53:34 +0000";
layers = (
{
layerId = "E2EFC82E-60BD-407F-B427-18737B8D95A5";
paths = (
{
closed = 1;
nodes = (
"118 774 LINE",
"118 724 LINE",
"168 724 LINE",
"168 427 LINE",
"30 427 LINE",
"110 327 LINE",
"168 337 LINE",
"168 50 LINE",
"118 50 LINE",
"118 0 LINE",
"652 0 LINE",
"874 409 LINE",
"652 774 LINE"
);
},
{
closed = 1;
nodes = (
"197 50 LINE",
"285 359 LINE",
"440 387 LINE",
"470 427 LINE",
"304 427 LINE",
"390 724 LINE",
"638 724 LINE",
"638 50 LINE"
);
}
);
width = 904;
}
);
leftKerningGroup = D;
unicode = 00D0;
},
{
color = 10;
glyphname = Dcaron;
lastChange = "2019-11-25 06:53:34 +0000";
layers = (
{
layerId = "E2EFC82E-60BD-407F-B427-18737B8D95A5";
paths = (
{
closed = 1;
nodes = (
"564 774 LINE",
"30 774 LINE",
"30 724 LINE",
"80 724 LINE",
"80 50 LINE",
"30 50 LINE",
"30 0 LINE",
"564 0 LINE",
"786 409 LINE"
);
},
{
closed = 1;
nodes = (
"302 724 LINE",
"551 724 LINE",
"551 50 LINE",
"109 50 LINE"
);
},
{
closed = 1;
nodes = (
"491 951 LINE",
"309 907 LINE",
"127 951 LINE",
"309 805 LINE"
);
}
);
width = 816;
}
);
leftKerningGroup = D;
unicode = 010E;
},
{
color = 10;
glyphname = Dcroat;
lastChange = "2019-11-25 06:53:34 +0000";
layers = (
{
layerId = "E2EFC82E-60BD-407F-B427-18737B8D95A5";
paths = (
{
closed = 1;
nodes = (
"118 774 LINE",
"118 724 LINE",
"167 724 LINE",
"167 427 LINE",
"30 427 LINE",
"110 327 LINE",
"167 337 LINE",
"167 50 LINE",
"118 50 LINE",
"118 0 LINE",
"651 0 LINE",
"874 409 LINE",
"651 774 LINE"
);
},
{
closed = 1;
nodes = (
"196 50 LINE",
"285 359 LINE",
"440 387 LINE",
"469 427 LINE",
"304 427 LINE",
"389 724 LINE",
"638 724 LINE",
"638 50 LINE"
);
}
);
width = 904;
}
);
leftKerningGroup = D;
unicode = 0110;
},
{
color = 10;
glyphname = Dzcaron;
lastChange = "2019-11-25 06:53:34 +0000";
layers = (
{
layerId = "E2EFC82E-60BD-407F-B427-18737B8D95A5";
paths = (
{
closed = 1;
nodes = (
"564 774 LINE",
"30 774 LINE",
"30 724 LINE",
"80 724 LINE",
"80 50 LINE",
"30 50 LINE",
"30 0 LINE",
"564 0 LINE",
"786 409 LINE"
);
},
{
closed = 1;
nodes = (
"302 724 LINE",
"550 724 LINE",
"550 50 LINE",
"109 50 LINE"
);
},
{
closed = 1;
nodes = (
"1014 252 LINE",
"1222 487 LINE",
"835 487 LINE",
"835 346 LINE",
"928 437 LINE",
"1014 437 LINE",
"1014 258 LINE",
"814 0 LINE",
"1193 0 LINE",
"1193 141 LINE",
"1100 51 LINE",
"1014 51 LINE"
);
},
{
closed = 1;
nodes = (
"1202 721 LINE",
"1020 677 LINE",
"838 721 LINE",
"1020 574 LINE"
);
}
);
width = 1252;
}
);
leftKerningGroup = D;
unicode = 01C5;
},
{
color = 11;
glyphname = E;
lastChange = "2019-11-25 06:53:56 +0000";
layers = (
{
layerId = "E2EFC82E-60BD-407F-B427-18737B8D95A5";
paths = (
{
closed = 1;
nodes = (
"450 724 LINE",
"589 546 LINE",
"590 800 LINE",
"550 800 LINE",
"550 774 LINE",
"43 774 LINE",
"43 724 LINE",
"84 724 LINE",
"84 50 LINE",
"30 50 LINE",
"30 0 LINE",
"550 0 LINE",
"550 -24 LINE",
"590 -24 LINE",
"589 229 LINE",
"450 50 LINE",
"113 50 LINE",
"208 382 LINE",
"512 382 LINE",
"512 332 LINE",
"552 332 LINE",
"552 482 LINE",
"512 482 LINE",
"512 432 LINE",
"223 432 LINE",
"306 724 LINE"
);
}
);
width = 620;
}
);
leftKerningGroup = E;
unicode = 0045;
},
{
color = 11;
glyphname = Eacute;
lastChange = "2019-11-25 06:53:56 +0000";
layers = (
{
layerId = "E2EFC82E-60BD-407F-B427-18737B8D95A5";
paths = (
{
closed = 1;
nodes = (
"254 792 LINE",
"459 935 LINE",
"264 935 LINE"
);
},
{
closed = 1;
nodes = (
"450 724 LINE",
"590 546 LINE",
"590 800 LINE",
"550 800 LINE",
"550 774 LINE",
"44 774 LINE",
"44 724 LINE",
"85 724 LINE",
"85 50 LINE",
"30 50 LINE",
"30 0 LINE",
"550 0 LINE",
"550 -24 LINE",
"590 -24 LINE",
"590 229 LINE",
"450 50 LINE",
"114 50 LINE",
"209 382 LINE",
"512 382 LINE",
"512 332 LINE",
"552 332 LINE",
"552 482 LINE",
"512 482 LINE",
"512 432 LINE",
"223 432 LINE",
"307 724 LINE"
);
}
);
width = 620;
}
);
leftKerningGroup = E;
unicode = 00C9;
},
{
color = 10;
glyphname = Ebreve;
lastChange = "2019-11-25 06:53:56 +0000";
layers = (
{
layerId = "E2EFC82E-60BD-407F-B427-18737B8D95A5";
paths = (
{
closed = 1;
nodes = (
"450 723 LINE",
"589 545 LINE",
"590 800 LINE",
"550 800 LINE",
"550 774 LINE",
"43 773 LINE",
"43 723 LINE",
"84 723 LINE",
"84 49 LINE",
"30 49 LINE",
"30 -1 LINE",
"550 -1 LINE",
"550 -25 LINE",
"590 -25 LINE",
"589 228 LINE",
"449 49 LINE",
"113 49 LINE",
"208 381 LINE",
"511 381 LINE",
"511 331 LINE",
"551 331 LINE",
"551 481 LINE",
"511 481 LINE",
"511 431 LINE",
"222 431 LINE",
"306 723 LINE"
);
},
{
closed = 1;
nodes = (
"407 882 LINE",
"289 882 LINE",
"226 982 LINE",
"150 982 LINE",
"256 820 LINE",
"441 820 LINE",
"547 982 LINE",
"470 982 LINE"
);
}
);
width = 620;
}
);
leftKerningGroup = E;
unicode = 0114;
},
{
color = 10;
glyphname = Ecaron;
lastChange = "2019-11-25 06:53:56 +0000";
layers = (
{
layerId = "E2EFC82E-60BD-407F-B427-18737B8D95A5";
paths = (
{
closed = 1;
nodes = (
"495 951 LINE",
"313 906 LINE",
"131 951 LINE",
"313 804 LINE"
);
},
{
closed = 1;
nodes = (
"450 723 LINE",
"590 545 LINE",
"590 800 LINE",
"550 800 LINE",
"550 774 LINE",
"43 773 LINE",
"43 723 LINE",
"84 723 LINE",
"84 49 LINE",
"30 49 LINE",
"30 -1 LINE",
"550 -1 LINE",
"550 -25 LINE",
"590 -25 LINE",
"590 228 LINE",
"450 49 LINE",
"113 49 LINE",
"208 381 LINE",
"512 381 LINE",
"512 331 LINE",
"552 331 LINE",
"552 481 LINE",
"512 481 LINE",
"512 431 LINE",
"223 431 LINE",
"307 723 LINE"
);
}
);
width = 620;
}
);
leftKerningGroup = E;
unicode = 011A;
},
{
color = 11;
glyphname = Ecircumflex;
lastChange = "2019-11-25 06:53:56 +0000";
layers = (
{
layerId = "E2EFC82E-60BD-407F-B427-18737B8D95A5";
paths = (
{
closed = 1;
nodes = (
"509 804 LINE",
"327 848 LINE",
"145 804 LINE",
"327 951 LINE"
);
},
{
closed = 1;
nodes = (
"450 724 LINE",
"590 546 LINE",
"590 800 LINE",
"550 800 LINE",
"550 774 LINE",
"43 774 LINE",
"43 724 LINE",
"84 724 LINE",
"84 50 LINE",
"30 50 LINE",
"30 0 LINE",
"550 0 LINE",
"550 -24 LINE",
"590 -24 LINE",
"590 229 LINE",
"450 50 LINE",
"113 50 LINE",
"209 382 LINE",
"512 382 LINE",
"512 332 LINE",
"552 332 LINE",
"552 482 LINE",
"512 482 LINE",
"512 432 LINE",
"223 432 LINE",
"307 724 LINE"
);
}
);
width = 620;
}
);
leftKerningGroup = E;
unicode = 00CA;
},
{
color = 10;
glyphname = Ecircumflexacute;
lastChange = "2019-11-25 06:53:56 +0000";
layers = (
{
layerId = "E2EFC82E-60BD-407F-B427-18737B8D95A5";
paths = (
{
closed = 1;
nodes = (
"245 934 LINE",
"450 1077 LINE",
"255 1077 LINE"
);
},
{
closed = 1;
nodes = (
"146 804 LINE",
"328 848 LINE",
"511 804 LINE",
"328 951 LINE"
);
},
{
closed = 1;
nodes = (
"450 723 LINE",
"590 545 LINE",
"591 800 LINE",
"551 800 LINE",
"551 774 LINE",
"44 773 LINE",
"44 723 LINE",
"85 723 LINE",
"85 49 LINE",
"30 49 LINE",
"30 -1 LINE",
"551 -1 LINE",
"551 -25 LINE",
"591 -25 LINE",
"590 228 LINE",
"450 49 LINE",
"114 49 LINE",
"209 381 LINE",
"512 381 LINE",
"512 331 LINE",
"552 331 LINE",
"552 481 LINE",
"512 481 LINE",
"512 431 LINE",
"223 431 LINE",
"307 723 LINE"
);
}
);
width = 621;
}
);
leftKerningGroup = E;
unicode = 1EBE;
},
{
color = 10;
glyphname = Ecircumflexdotbelow;
lastChange = "2019-11-25 06:53:56 +0000";
layers = (
{
layerId = "E2EFC82E-60BD-407F-B427-18737B8D95A5";
paths = (
{
closed = 1;
nodes = (
"485 804 LINE",
"303 849 LINE",
"121 804 LINE",
"303 951 LINE"
);
},
{
closed = 1;
nodes = (
"242 -164 LINE",
"368 -164 LINE",
"368 -39 LINE",
"242 -39 LINE"
);
},
{
closed = 1;
nodes = (
"451 724 LINE",
"590 546 LINE",
"591 800 LINE",
"551 800 LINE",
"551 774 LINE",
"44 774 LINE",
"44 724 LINE",
"85 724 LINE",
"85 50 LINE",
"30 50 LINE",
"30 0 LINE",
"551 0 LINE",
"551 -24 LINE",
"591 -24 LINE",
"590 228 LINE",
"450 50 LINE",
"114 50 LINE",
"209 382 LINE",
"512 382 LINE",
"512 332 LINE",
"552 332 LINE",
"552 482 LINE",
"512 482 LINE",
"512 432 LINE",
"223 432 LINE",
"307 724 LINE"
);
}
);
width = 621;
}
);
leftKerningGroup = E;
unicode = 1EC6;
},
{
color = 10;
glyphname = Ecircumflexgrave;
lastChange = "2019-11-25 06:53:56 +0000";
layers = (
{
layerId = "E2EFC82E-60BD-407F-B427-18737B8D95A5";
paths = (
{
closed = 1;
nodes = (
"400 935 LINE",
"195 1078 LINE",
"390 1078 LINE"
);
},
{
closed = 1;
nodes = (
"499 804 LINE",
"317 849 LINE",
"134 804 LINE",
"317 951 LINE"
);
},
{
closed = 1;
nodes = (
"450 724 LINE",
"589 546 LINE",
"590 800 LINE",
"550 800 LINE",
"550 774 LINE",
"43 774 LINE",
"43 724 LINE",
"84 724 LINE",
"84 50 LINE",
"30 50 LINE",
"30 0 LINE",
"550 0 LINE",
"550 -24 LINE",
"590 -24 LINE",
"589 228 LINE",
"449 50 LINE",
"113 50 LINE",
"208 382 LINE",
"511 382 LINE",
"511 332 LINE",
"551 332 LINE",
"551 482 LINE",
"511 482 LINE",
"511 432 LINE",
"222 432 LINE",
"306 724 LINE"
);
}
);
width = 620;
}
);
leftKerningGroup = E;
unicode = 1EC0;
},
{
color = 10;
glyphname = Ecircumflexhookabove;
lastChange = "2019-11-25 06:53:56 +0000";
layers = (
{
layerId = "E2EFC82E-60BD-407F-B427-18737B8D95A5";
paths = (
{
closed = 1;
nodes = (
"535 959 LINE",
"535 1002 LINE",
"367 1002 LINE",
"484 1086 LINE",
"582 1025 LINE",
"582 941 LINE",
"488 903 LINE",
"488 868 LINE",
"442 868 LINE",
"442 959 LINE"
);
},
{
closed = 1;
nodes = (
"511 804 LINE",
"329 849 LINE",
"147 804 LINE",
"329 951 LINE"
);
},
{
closed = 1;
nodes = (
"450 724 LINE",
"590 546 LINE",
"590 800 LINE",
"550 800 LINE",
"550 774 LINE",
"43 774 LINE",
"43 724 LINE",
"84 724 LINE",
"84 50 LINE",
"30 50 LINE",
"30 0 LINE",
"550 0 LINE",
"550 -24 LINE",
"590 -24 LINE",
"590 228 LINE",
"450 50 LINE",
"113 50 LINE",
"208 382 LINE",
"512 382 LINE",
"512 332 LINE",
"552 332 LINE",
"552 482 LINE",
"512 482 LINE",
"512 432 LINE",
"223 432 LINE",
"306 724 LINE"
);
}
);
width = 620;
}
);
leftKerningGroup = E;
unicode = 1EC2;
},
{
color = 10;
glyphname = Ecircumflextilde;
lastChange = "2019-11-25 06:53:56 +0000";
layers = (
{
layerId = "E2EFC82E-60BD-407F-B427-18737B8D95A5";
paths = (
{
closed = 1;
nodes = (
"397 1045 LINE",
"393 1091 LINE",
"177 937 LINE",
"346 986 LINE",
"350 936 LINE",
"562 1088 LINE"
);
},
{
closed = 1;
nodes = (
"500 804 LINE",
"318 849 LINE",
"136 804 LINE",
"318 951 LINE"
);
},
{
closed = 1;
nodes = (
"450 724 LINE",
"589 546 LINE",
"590 800 LINE",
"550 800 LINE",
"550 774 LINE",
"43 774 LINE",
"43 724 LINE",
"84 724 LINE",
"84 50 LINE",
"30 50 LINE",
"30 0 LINE",
"550 0 LINE",
"550 -24 LINE",
"590 -24 LINE",
"589 228 LINE",
"450 50 LINE",
"113 50 LINE",
"208 382 LINE",
"512 382 LINE",
"512 332 LINE",
"552 332 LINE",
"552 482 LINE",
"512 482 LINE",
"512 432 LINE",
"223 432 LINE",
"306 724 LINE"
);
}
);
width = 620;
}
);
leftKerningGroup = E;
unicode = 1EC4;
},
{
color = 10;
glyphname = Edblgrave;
lastChange = "2019-11-25 06:53:56 +0000";
layers = (
{
layerId = "E2EFC82E-60BD-407F-B427-18737B8D95A5";
paths = (
{
closed = 1;
nodes = (
"450 724 LINE",
"589 546 LINE",
"590 800 LINE",
"550 800 LINE",
"550 774 LINE",
"43 774 LINE",
"43 724 LINE",
"84 724 LINE",
"84 50 LINE",
"30 50 LINE",
"30 0 LINE",
"550 0 LINE",
"550 -24 LINE",
"590 -24 LINE",
"589 229 LINE",
"449 50 LINE",
"113 50 LINE",
"208 382 LINE",
"511 382 LINE",
"511 332 LINE",
"551 332 LINE",
"551 482 LINE",
"511 482 LINE",
"511 432 LINE",
"222 432 LINE",
"306 724 LINE"
);
},
{
closed = 1;
nodes = (
"485 793 LINE",
"280 936 LINE",
"475 936 LINE"
);
},
{
closed = 1;
nodes = (
"258 793 LINE",
"54 936 LINE",
"248 936 LINE"
);
}
);
width = 620;
}
);
leftKerningGroup = E;
unicode = 0204;
},
{
color = 11;
glyphname = Edieresis;
lastChange = "2019-11-25 06:53:56 +0000";
layers = (
{
layerId = "E2EFC82E-60BD-407F-B427-18737B8D95A5";
paths = (
{
closed = 1;
nodes = (
"158 825 LINE",
"284 825 LINE",
"284 950 LINE",
"158 950 LINE"
);
},
{
closed = 1;
nodes = (
"370 825 LINE",
"495 825 LINE",
"495 950 LINE",
"370 950 LINE"
);
},
{
closed = 1;
nodes = (
"450 724 LINE",
"590 546 LINE",
"591 800 LINE",
"551 800 LINE",
"551 774 LINE",
"44 774 LINE",
"44 724 LINE",
"85 724 LINE",
"85 50 LINE",
"30 50 LINE",
"30 0 LINE",
"551 0 LINE",
"551 -24 LINE",
"591 -24 LINE",
"590 229 LINE",
"450 50 LINE",
"114 50 LINE",
"209 382 LINE",
"512 382 LINE",
"512 332 LINE",
"552 332 LINE",
"552 482 LINE",
"512 482 LINE",
"512 432 LINE",
"223 432 LINE",
"307 724 LINE"
);
}
);
width = 621;
}
);
leftKerningGroup = E;
unicode = 00CB;
},
{
color = 10;
glyphname = Edotaccent;
lastChange = "2019-11-25 06:53:56 +0000";
layers = (
{
layerId = "E2EFC82E-60BD-407F-B427-18737B8D95A5";
paths = (
{
closed = 1;
nodes = (
"450 723 LINE",
"590 545 LINE",
"591 800 LINE",
"551 800 LINE",
"551 774 LINE",
"44 773 LINE",
"44 723 LINE",
"85 723 LINE",
"85 49 LINE",
"30 49 LINE",
"30 -1 LINE",
"551 -1 LINE",
"551 -25 LINE",
"591 -25 LINE",
"590 228 LINE",
"450 49 LINE",
"114 49 LINE",
"209 381 LINE",
"512 381 LINE",
"512 331 LINE",
"552 331 LINE",
"552 481 LINE",
"512 481 LINE",
"512 431 LINE",
"223 431 LINE",
"307 723 LINE"
);
},
{
closed = 1;
nodes = (
"258 825 LINE",
"383 825 LINE",
"383 950 LINE",
"258 950 LINE"
);
}
);
width = 621;
}
);
leftKerningGroup = E;
unicode = 0116;
},
{
color = 10;
glyphname = Edotbelow;
lastChange = "2019-11-25 06:53:56 +0000";
layers = (
{
layerId = "E2EFC82E-60BD-407F-B427-18737B8D95A5";
paths = (
{
closed = 1;
nodes = (
"262 -163 LINE",
"387 -163 LINE",
"387 -38 LINE",
"262 -38 LINE"
);
},
{
closed = 1;
nodes = (
"450 724 LINE",
"589 546 LINE",
"590 801 LINE",
"550 801 LINE",
"550 775 LINE",
"43 774 LINE",
"43 724 LINE",
"84 724 LINE",
"84 50 LINE",
"30 50 LINE",
"30 0 LINE",
"550 0 LINE",
"550 -24 LINE",
"590 -24 LINE",
"589 229 LINE",
"449 50 LINE",
"113 50 LINE",
"208 382 LINE",
"511 382 LINE",
"511 332 LINE",
"551 332 LINE",
"551 482 LINE",
"511 482 LINE",
"511 432 LINE",
"222 432 LINE",
"306 724 LINE"
);
}
);
width = 620;
}
);
leftKerningGroup = E;
unicode = 1EB8;
},
{
color = 11;
glyphname = Egrave;
lastChange = "2019-11-25 06:53:56 +0000";
layers = (
{
layerId = "E2EFC82E-60BD-407F-B427-18737B8D95A5";
paths = (
{
closed = 1;
nodes = (
"420 792 LINE",
"216 935 LINE",
"410 935 LINE"
);
},
{
closed = 1;
nodes = (
"450 724 LINE",
"590 546 LINE",
"591 800 LINE",
"551 800 LINE",
"551 774 LINE",
"44 774 LINE",
"44 724 LINE",
"85 724 LINE",
"85 50 LINE",
"30 50 LINE",
"30 0 LINE",
"551 0 LINE",
"551 -24 LINE",
"591 -24 LINE",
"590 229 LINE",
"450 50 LINE",
"114 50 LINE",
"209 382 LINE",
"512 382 LINE",
"512 332 LINE",
"552 332 LINE",
"552 482 LINE",
"512 482 LINE",
"512 432 LINE",
"223 432 LINE",
"307 724 LINE"
);
}
);
width = 621;
}
);
leftKerningGroup = E;
unicode = 00C8;
},
{
color = 10;
glyphname = Ehookabove;
lastChange = "2019-11-25 06:53:56 +0000";
layers = (
{
layerId = "E2EFC82E-60BD-407F-B427-18737B8D95A5";
paths = (
{
closed = 1;
nodes = (
"360 895 LINE",
"360 939 LINE",
"192 939 LINE",
"309 1023 LINE",
"407 961 LINE",
"407 878 LINE",
"313 839 LINE",
"313 796 LINE",
"267 796 LINE",
"267 895 LINE"
);
},
{
closed = 1;
nodes = (
"450 724 LINE",
"590 546 LINE",
"591 801 LINE",
"551 801 LINE",
"551 775 LINE",
"44 774 LINE",
"44 724 LINE",
"85 724 LINE",
"85 50 LINE",
"30 50 LINE",
"30 0 LINE",
"551 0 LINE",
"551 -24 LINE",
"591 -24 LINE",
"590 229 LINE",
"450 50 LINE",
"114 50 LINE",
"209 382 LINE",
"512 382 LINE",
"512 332 LINE",
"552 332 LINE",
"552 482 LINE",
"512 482 LINE",
"512 432 LINE",
"223 432 LINE",
"307 724 LINE"
);
}
);
width = 621;
}
);
leftKerningGroup = E;
unicode = 1EBA;
},
{
color = 10;
glyphname = Einvertedbreve;
lastChange = "2019-11-25 06:53:56 +0000";
layers = (
{
layerId = "E2EFC82E-60BD-407F-B427-18737B8D95A5";
paths = (
{
closed = 1;
nodes = (
"450 724 LINE",
"589 546 LINE",
"590 800 LINE",
"550 800 LINE",
"550 774 LINE",
"43 774 LINE",
"43 724 LINE",
"84 724 LINE",
"84 50 LINE",
"30 50 LINE",
"30 0 LINE",
"550 0 LINE",
"550 -24 LINE",
"590 -24 LINE",
"589 229 LINE",
"449 50 LINE",
"113 50 LINE",
"208 382 LINE",
"511 382 LINE",
"511 332 LINE",
"551 332 LINE",
"551 482 LINE",
"511 482 LINE",
"511 432 LINE",
"222 432 LINE",
"306 724 LINE"
);
},
{
closed = 1;
nodes = (
"369 921 LINE",
"251 921 LINE",
"188 821 LINE",
"111 821 LINE",
"217 983 LINE",
"402 983 LINE",
"508 821 LINE",
"431 821 LINE"
);
}
);
width = 620;
}
);
leftKerningGroup = E;
unicode = 0206;
},
{
color = 10;
glyphname = Emacron;
lastChange = "2019-11-25 06:53:56 +0000";
layers = (
{
layerId = "E2EFC82E-60BD-407F-B427-18737B8D95A5";
paths = (
{
closed = 1;
nodes = (
"530 933 LINE",
"500 893 LINE",
"171 833 LINE",
"91 933 LINE"
);
},
{
closed = 1;
nodes = (
"450 723 LINE",
"590 545 LINE",
"590 800 LINE",
"550 800 LINE",
"550 774 LINE",
"43 773 LINE",
"43 723 LINE",
"84 723 LINE",
"84 49 LINE",
"30 49 LINE",
"30 -1 LINE",
"550 -1 LINE",
"550 -25 LINE",
"590 -25 LINE",
"590 228 LINE",
"450 49 LINE",
"113 49 LINE",
"209 381 LINE",
"512 381 LINE",
"512 331 LINE",
"552 331 LINE",
"552 481 LINE",
"512 481 LINE",
"512 431 LINE",
"223 431 LINE",
"307 723 LINE"
);
}
);
width = 620;
}
);
leftKerningGroup = E;
unicode = 0112;
},
{
color = 10;
glyphname = Eogonek;
lastChange = "2019-11-25 10:52:18 +0000";
layers = (
{
layerId = "E2EFC82E-60BD-407F-B427-18737B8D95A5";
paths = (
{
closed = 1;
nodes = (
"319 -108 LINE",
"345 0 LINE",
"550 0 LINE",
"550 -24 LINE",
"590 -24 LINE",
"590 229 LINE",
"450 50 LINE",
"113 50 LINE",
"208 382 LINE",
"512 382 LINE",
"512 332 LINE",
"552 332 LINE",
"552 482 LINE",
"512 482 LINE",
"512 432 LINE",
"223 432 LINE",
"306 724 LINE",
"450 724 LINE",
"590 546 LINE",
"590 801 LINE",
"550 801 LINE",
"550 775 LINE",
"43 774 LINE",
"43 724 LINE",
"84 724 LINE",
"84 50 LINE",
"30 50 LINE",
"30 0 LINE",
"285 0 LINE",
"235 -224 LINE",
"450 -108 LINE"
);
}
);
width = 620;
}
);
leftKerningGroup = E;
unicode = 0118;
},
{
color = 10;
glyphname = Etilde;
lastChange = "2019-11-25 06:53:56 +0000";
layers = (
{
layerId = "E2EFC82E-60BD-407F-B427-18737B8D95A5";
paths = (
{
closed = 1;
nodes = (
"381 906 LINE",
"377 953 LINE",
"160 799 LINE",
"330 848 LINE",
"334 798 LINE",
"546 950 LINE"
);
},
{
closed = 1;
nodes = (
"450 724 LINE",
"590 546 LINE",
"591 801 LINE",
"551 801 LINE",
"551 775 LINE",
"44 774 LINE",
"44 724 LINE",
"85 724 LINE",
"85 50 LINE",
"30 50 LINE",
"30 0 LINE",
"551 0 LINE",
"551 -24 LINE",
"591 -24 LINE",
"590 229 LINE",
"450 50 LINE",
"114 50 LINE",
"209 382 LINE",
"512 382 LINE",
"512 332 LINE",
"552 332 LINE",
"552 482 LINE",
"512 482 LINE",
"512 432 LINE",
"223 432 LINE",
"307 724 LINE"
);
}
);
width = 621;
}
);
leftKerningGroup = E;
unicode = 1EBC;
},
{
color = 11;
glyphname = F;
lastChange = "2019-11-25 06:54:00 +0000";
layers = (
{
layerId = "E2EFC82E-60BD-407F-B427-18737B8D95A5";
paths = (
{
closed = 1;
nodes = (
"458 724 LINE",
"597 546 LINE",
"597 800 LINE",
"557 800 LINE",
"557 774 LINE",
"51 774 LINE",
"51 724 LINE",
"103 724 LINE",
"103 50 LINE",
"30 50 LINE",
"30 0 LINE",
"207 0 LINE",
"207 50 LINE",
"132 50 LINE",
"227 382 LINE",
"490 382 LINE",
"490 332 LINE",
"530 332 LINE",
"530 482 LINE",
"490 482 LINE",
"490 432 LINE",
"241 432 LINE",
"325 724 LINE"
);
}
);
width = 627;
}
);
leftKerningGroup = F;
unicode = 0046;
},
{
color = 11;
glyphname = G;
lastChange = "2019-11-25 00:29:50 +0000";
layers = (
{
layerId = "E2EFC82E-60BD-407F-B427-18737B8D95A5";
paths = (
{
closed = 1;
nodes = (
"556 411 LINE",
"556 50 LINE",
"267 50 LINE",
"267 724 LINE",
"563 724 LINE",
"702 546 LINE",
"702 801 LINE",
"662 801 LINE",
"662 774 LINE",
"252 774 LINE",
"30 409 LINE",
"252 0 LINE",
"570 0 LINE",
"771 411 LINE"
);
}
);
width = 801;
}
);
leftKerningGroup = G;
unicode = 0047;
},
{
color = 10;
glyphname = Gbreve;
lastChange = "2019-11-25 06:54:07 +0000";
layers = (
{
layerId = "E2EFC82E-60BD-407F-B427-18737B8D95A5";
paths = (
{
closed = 1;
nodes = (
"556 411 LINE",
"556 50 LINE",
"267 50 LINE",
"267 724 LINE",
"562 724 LINE",
"702 546 LINE",
"702 801 LINE",
"662 801 LINE",
"662 775 LINE",
"252 774 LINE",
"30 410 LINE",
"252 0 LINE",
"570 0 LINE",
"771 411 LINE"
);
},
{
closed = 1;
nodes = (
"488 883 LINE",
"370 883 LINE",
"307 983 LINE",
"231 983 LINE",
"337 821 LINE",
"521 821 LINE",
"627 983 LINE",
"551 983 LINE"
);
}
);
width = 801;
}
);
leftKerningGroup = G;
unicode = 011E;
},
{
color = 10;
glyphname = Gcaron;
lastChange = "2019-11-25 06:54:07 +0000";
layers = (
{
layerId = "E2EFC82E-60BD-407F-B427-18737B8D95A5";
paths = (
{
closed = 1;
nodes = (
"556 411 LINE",
"556 50 LINE",
"267 50 LINE",
"267 724 LINE",
"563 724 LINE",
"702 546 LINE",
"702 801 LINE",
"662 801 LINE",
"662 774 LINE",
"252 774 LINE",
"30 409 LINE",
"252 0 LINE",
"570 0 LINE",
"771 411 LINE"
);
},
{
closed = 1;
nodes = (
"599 951 LINE",
"417 907 LINE",
"234 951 LINE",
"417 805 LINE"
);
}
);
width = 801;
}
);
leftKerningGroup = G;
unicode = 01E6;
},
{
color = 10;
glyphname = Gcircumflex;
lastChange = "2019-11-25 06:54:07 +0000";
layers = (
{
layerId = "E2EFC82E-60BD-407F-B427-18737B8D95A5";
paths = (
{
closed = 1;
nodes = (
"556 411 LINE",
"556 50 LINE",
"267 50 LINE",
"267 724 LINE",
"562 724 LINE",
"702 546 LINE",
"702 801 LINE",
"662 801 LINE",
"662 775 LINE",
"252 774 LINE",
"30 410 LINE",
"252 0 LINE",
"570 0 LINE",
"771 411 LINE"
);
},
{
closed = 1;
nodes = (
"620 805 LINE",
"438 849 LINE",
"256 805 LINE",
"438 952 LINE"
);
}
);
width = 801;
}
);
leftKerningGroup = G;
unicode = 011C;
},
{
color = 10;
glyphname = Gcommaaccent;
lastChange = "2019-11-25 06:54:07 +0000";
layers = (
{
layerId = "E2EFC82E-60BD-407F-B427-18737B8D95A5";
paths = (
{
closed = 1;
nodes = (
"555 410 LINE",
"555 50 LINE",
"267 50 LINE",
"267 724 LINE",
"562 724 LINE",
"702 546 LINE",
"702 800 LINE",
"662 800 LINE",
"662 774 LINE",
"252 774 LINE",
"30 409 LINE",
"252 0 LINE",
"570 0 LINE",
"771 410 LINE"
);
},
{
closed = 1;
nodes = (
"359 -232 LINE",
"362 -232 LINE",
"471 -58 LINE",
"359 -24 LINE"
);
}
);
width = 801;
}
);
leftKerningGroup = G;
unicode = 0122;
},
{
color = 10;
glyphname = Gdotaccent;
lastChange = "2019-11-25 06:54:07 +0000";
layers = (
{
layerId = "E2EFC82E-60BD-407F-B427-18737B8D95A5";
paths = (
{
closed = 1;
nodes = (
"556 410 LINE",
"556 50 LINE",
"267 50 LINE",
"267 724 LINE",
"562 724 LINE",
"702 546 LINE",
"702 800 LINE",
"662 800 LINE",
"662 774 LINE",
"252 774 LINE",
"30 409 LINE",
"252 0 LINE",
"570 0 LINE",
"771 410 LINE"
);
},
{
closed = 1;
nodes = (
"383 826 LINE",
"508 826 LINE",
"508 951 LINE",
"383 951 LINE"
);
}
);
width = 801;
}
);
leftKerningGroup = G;
unicode = 0120;
},
{
color = 11;
glyphname = H;
lastChange = "2019-11-25 00:30:56 +0000";
layers = (
{
layerId = "E2EFC82E-60BD-407F-B427-18737B8D95A5";
paths = (
{
closed = 1;
nodes = (
"645 50 LINE",
"645 724 LINE",
"694 724 LINE",
"694 774 LINE",
"408 774 LINE",
"505 438 LINE",
"246 438 LINE",
"342 774 LINE",
"52 774 LINE",
"52 724 LINE",
"105 724 LINE",
"105 50 LINE",
"30 50 LINE",
"30 0 LINE",
"212 0 LINE",
"212 50 LINE",
"134 50 LINE",
"231 388 LINE",
"519 388 LINE",
"616 50 LINE",
"549 50 LINE",
"549 0 LINE",
"731 0 LINE",
"731 50 LINE"
);
}
);
width = 761;
}
);
leftKerningGroup = H;
unicode = 0048;
},
{
color = 10;
glyphname = Hbar;
lastChange = "2019-11-25 06:54:13 +0000";
layers = (
{
layerId = "E2EFC82E-60BD-407F-B427-18737B8D95A5";
paths = (
{
closed = 1;
nodes = (
"758 605 LINE",
"787 645 LINE",
"689 645 LINE",
"689 724 LINE",
"738 724 LINE",
"738 774 LINE",
"453 774 LINE",
"490 645 LINE",
"349 645 LINE",
"386 774 LINE",
"96 774 LINE",
"96 724 LINE",
"150 724 LINE",
"150 645 LINE",
"30 645 LINE",
"79 546 LINE",
"150 552 LINE",
"150 50 LINE",
"75 50 LINE",
"75 0 LINE",
"257 0 LINE",
"257 50 LINE",
"179 50 LINE",
"276 388 LINE",
"563 388 LINE",
"660 50 LINE",
"594 50 LINE",
"594 0 LINE",
"776 0 LINE",
"776 50 LINE",
"689 50 LINE",
"689 599 LINE"
);
},
{
closed = 1;
nodes = (
"327 567 LINE",
"507 583 LINE",
"549 438 LINE",
"290 438 LINE"
);
}
);
width = 817;
}
);
leftKerningGroup = H;
unicode = 0126;
},
{
color = 10;
glyphname = Hcircumflex;
lastChange = "2019-11-25 06:54:13 +0000";
layers = (
{
layerId = "E2EFC82E-60BD-407F-B427-18737B8D95A5";
paths = (
{
closed = 1;
nodes = (
"644 50 LINE",
"644 724 LINE",
"693 724 LINE",
"693 774 LINE",
"407 774 LINE",
"504 438 LINE",
"245 438 LINE",
"341 774 LINE",
"51 774 LINE",
"51 724 LINE",
"105 724 LINE",
"105 50 LINE",
"30 50 LINE",
"30 0 LINE",
"212 0 LINE",
"212 50 LINE",
"134 50 LINE",
"230 388 LINE",
"518 388 LINE",
"615 50 LINE",
"548 50 LINE",
"548 0 LINE",
"731 0 LINE",
"731 50 LINE"
);
},
{
closed = 1;
nodes = (
"562 804 LINE",
"380 849 LINE",
"198 804 LINE",
"380 951 LINE"
);
}
);
width = 761;
}
);
leftKerningGroup = H;
unicode = 0124;
},
{
color = 11;
glyphname = I;
lastChange = "2019-11-24 13:11:21 +0000";
layers = (
{
layerId = "E2EFC82E-60BD-407F-B427-18737B8D95A5";
paths = (
{
closed = 1;
nodes = (
"30 774 LINE",
"30 724 LINE",
"86 724 LINE",
"86 0 LINE",
"291 0 LINE",
"116 162 LINE",
"319 774 LINE"
);
}
);
width = 349;
}
);
unicode = 0049;
},
{
color = 11;
glyphname = Iacute;
lastChange = "2019-11-25 06:54:26 +0000";
layers = (
{
layerId = "E2EFC82E-60BD-407F-B427-18737B8D95A5";
paths = (
{
closed = 1;
nodes = (
"143 792 LINE",
"347 935 LINE",
"143 935 LINE"
);
},
{
closed = 1;
nodes = (
"30 774 LINE",
"30 724 LINE",
"86 724 LINE",
"86 0 LINE",
"291 0 LINE",
"116 162 LINE",
"319 774 LINE"
);
}
);
width = 377;
}
);
leftKerningGroup = I;
unicode = 00CD;
},
{
color = 10;
glyphname = Ibreve;
lastChange = "2019-11-25 06:54:26 +0000";
layers = (
{
layerId = "E2EFC82E-60BD-407F-B427-18737B8D95A5";
paths = (
{
closed = 1;
nodes = (
"105 774 LINE",
"105 724 LINE",
"161 724 LINE",
"161 0 LINE",
"365 0 LINE",
"190 162 LINE",
"393 774 LINE"
);
},
{
closed = 1;
nodes = (
"287 882 LINE",
"169 882 LINE",
"106 983 LINE",
"30 983 LINE",
"136 820 LINE",
"321 820 LINE",
"426 983 LINE",
"350 983 LINE"
);
}
);
width = 456;
}
);
leftKerningGroup = I;
unicode = 012C;
},
{
color = 11;
glyphname = Icircumflex;
lastChange = "2019-11-25 06:54:26 +0000";
layers = (
{
layerId = "E2EFC82E-60BD-407F-B427-18737B8D95A5";
paths = (
{
closed = 1;
nodes = (
"394 804 LINE",
"212 848 LINE",
"30 804 LINE",
"212 951 LINE"
);
},
{
closed = 1;
nodes = (
"68 774 LINE",
"68 724 LINE",
"124 724 LINE",
"124 0 LINE",
"329 0 LINE",
"154 162 LINE",
"357 774 LINE"
);
}
);
width = 424;
}
);
leftKerningGroup = I;
unicode = 00CE;
},
{
color = 10;
glyphname = Idblgrave;
lastChange = "2019-11-25 06:54:26 +0000";
layers = (
{
layerId = "E2EFC82E-60BD-407F-B427-18737B8D95A5";
paths = (
{
closed = 1;
nodes = (
"136 774 LINE",
"136 724 LINE",
"192 724 LINE",
"192 0 LINE",
"397 0 LINE",
"221 162 LINE",
"425 774 LINE"
);
},
{
closed = 1;
nodes = (
"461 793 LINE",
"257 936 LINE",
"451 936 LINE"
);
},
{
closed = 1;
nodes = (
"235 793 LINE",
"30 936 LINE",
"225 936 LINE"
);
}
);
width = 491;
}
);
leftKerningGroup = I;
unicode = 0208;
},
{
color = 11;
glyphname = Idieresis;
lastChange = "2019-11-25 06:54:26 +0000";
layers = (
{
layerId = "E2EFC82E-60BD-407F-B427-18737B8D95A5";
paths = (
{
closed = 1;
nodes = (
"30 825 LINE",
"155 825 LINE",
"155 950 LINE",
"30 950 LINE"
);
},
{
closed = 1;
nodes = (
"242 825 LINE",
"367 825 LINE",
"367 950 LINE",
"242 950 LINE"
);
},
{
closed = 1;
nodes = (
"46 774 LINE",
"46 724 LINE",
"102 724 LINE",
"102 0 LINE",
"306 0 LINE",
"131 162 LINE",
"334 774 LINE"
);
}
);
width = 397;
}
);
leftKerningGroup = I;
unicode = 00CF;
},
{
color = 10;
glyphname = Idotaccent;
lastChange = "2019-11-25 06:54:26 +0000";
layers = (
{
layerId = "E2EFC82E-60BD-407F-B427-18737B8D95A5";
paths = (
{
closed = 1;
nodes = (
"30 774 LINE",
"30 724 LINE",
"86 724 LINE",
"86 0 LINE",
"291 0 LINE",
"115 162 LINE",
"319 774 LINE"
);
},
{
closed = 1;
nodes = (
"127 826 LINE",
"252 826 LINE",
"252 951 LINE",
"127 951 LINE"
);
}
);
width = 349;
}
);
leftKerningGroup = I;
unicode = 0130;
},
{
color = 10;
glyphname = Idotbelow;
lastChange = "2019-11-25 06:54:26 +0000";
layers = (
{
layerId = "E2EFC82E-60BD-407F-B427-18737B8D95A5";
paths = (
{
closed = 1;
nodes = (
"111 -164 LINE",
"237 -164 LINE",
"237 -38 LINE",
"111 -38 LINE"
);
},
{
closed = 1;
nodes = (
"30 774 LINE",
"30 724 LINE",
"86 724 LINE",
"86 0 LINE",
"290 0 LINE",
"115 162 LINE",
"318 775 LINE"
);
}
);
width = 348;
}
);
leftKerningGroup = I;
unicode = 1ECA;
},
{
color = 11;
glyphname = Igrave;
lastChange = "2019-11-25 06:54:26 +0000";
layers = (
{
layerId = "E2EFC82E-60BD-407F-B427-18737B8D95A5";
paths = (
{
closed = 1;
nodes = (
"247 792 LINE",
"42 935 LINE",
"247 935 LINE"
);
},
{
closed = 1;
nodes = (
"30 774 LINE",
"30 724 LINE",
"86 724 LINE",
"86 0 LINE",
"290 0 LINE",
"115 162 LINE",
"318 774 LINE"
);
}
);
width = 348;
}
);
leftKerningGroup = I;
unicode = 00CC;
},
{
color = 10;
glyphname = Ihookabove;
lastChange = "2019-11-25 06:54:26 +0000";
layers = (
{
layerId = "E2EFC82E-60BD-407F-B427-18737B8D95A5";
paths = (
{
closed = 1;
nodes = (
"241 895 LINE",
"241 939 LINE",
"74 939 LINE",
"191 1023 LINE",
"289 961 LINE",
"289 878 LINE",
"195 839 LINE",
"195 796 LINE",
"148 796 LINE",
"148 895 LINE"
);
},
{
closed = 1;
nodes = (
"30 774 LINE",
"30 724 LINE",
"86 724 LINE",
"86 0 LINE",
"291 0 LINE",
"116 162 LINE",
"319 775 LINE"
);
}
);
width = 349;
}
);
leftKerningGroup = I;
unicode = 1EC8;
},
{
color = 10;
glyphname = Iinvertedbreve;
lastChange = "2019-11-25 06:54:26 +0000";
layers = (
{
layerId = "E2EFC82E-60BD-407F-B427-18737B8D95A5";
paths = (
{
closed = 1;
nodes = (
"95 774 LINE",
"95 724 LINE",
"151 724 LINE",
"151 0 LINE",
"356 0 LINE",
"181 162 LINE",
"384 774 LINE"
);
},
{
closed = 1;
nodes = (
"288 921 LINE",
"170 921 LINE",
"107 821 LINE",
"30 821 LINE",
"136 983 LINE",
"321 983 LINE",
"427 821 LINE",
"351 821 LINE"
);
}
);
width = 457;
}
);
leftKerningGroup = I;
unicode = 020A;
},
{
color = 10;
glyphname = Imacron;
lastChange = "2019-11-25 06:54:26 +0000";
layers = (
{
layerId = "E2EFC82E-60BD-407F-B427-18737B8D95A5";
paths = (
{
closed = 1;
nodes = (
"102 774 LINE",
"102 724 LINE",
"158 724 LINE",
"158 0 LINE",
"363 0 LINE",
"188 162 LINE",
"391 774 LINE"
);
},
{
closed = 1;
nodes = (
"469 933 LINE",
"439 894 LINE",
"110 834 LINE",
"30 933 LINE"
);
}
);
width = 499;
}
);
leftKerningGroup = I;
unicode = 012A;
},
{
color = 10;
glyphname = Iogonek;
lastChange = "2019-11-25 06:54:26 +0000";
layers = (
{
layerId = "E2EFC82E-60BD-407F-B427-18737B8D95A5";
paths = (
{
closed = 1;
nodes = (
"115 162 LINE",
"318 774 LINE",
"30 774 LINE",
"30 724 LINE",
"86 724 LINE",
"86 0 LINE",
"36 -225 LINE",
"251 -109 LINE",
"119 -109 LINE",
"147 0 LINE",
"290 0 LINE"
);
}
);
width = 348;
}
);
leftKerningGroup = I;
unicode = 012E;
},
{
color = 10;
glyphname = Itilde;
lastChange = "2019-11-25 06:54:26 +0000";
layers = (
{
layerId = "E2EFC82E-60BD-407F-B427-18737B8D95A5";
paths = (
{
closed = 1;
nodes = (
"30 774 LINE",
"30 724 LINE",
"86 724 LINE",
"86 0 LINE",
"290 0 LINE",
"115 162 LINE",
"318 774 LINE"
);
},
{
closed = 1;
nodes = (
"250 906 LINE",
"246 953 LINE",
"30 798 LINE",
"199 847 LINE",
"203 798 LINE",
"415 949 LINE"
);
}
);
width = 445;
}
);
leftKerningGroup = I;
unicode = 0128;
},
{
color = 11;
glyphname = J;
lastChange = "2019-11-25 06:54:35 +0000";
layers = (
{
layerId = "E2EFC82E-60BD-407F-B427-18737B8D95A5";
paths = (
{
closed = 1;
nodes = (
"59 774 LINE",
"264 155 LINE",
"150 14 LINE",
"30 155 LINE",
"30 0 LINE",
"291 0 LINE",
"291 724 LINE",
"355 724 LINE",
"355 774 LINE"
);
}
);
width = 385;
}
);
leftKerningGroup = J;
unicode = 004A;
},
{
color = 10;
glyphname = Jcircumflex;
lastChange = "2019-11-25 06:54:35 +0000";
layers = (
{
layerId = "E2EFC82E-60BD-407F-B427-18737B8D95A5";
paths = (
{
closed = 1;
nodes = (
"60 774 LINE",
"265 155 LINE",
"151 13 LINE",
"31 155 LINE",
"31 0 LINE",
"293 0 LINE",
"293 724 LINE",
"356 724 LINE",
"356 774 LINE"
);
},
{
closed = 1;
nodes = (
"394 804 LINE",
"212 849 LINE",
"30 804 LINE",
"212 951 LINE"
);
}
);
width = 424;
}
);
leftKerningGroup = J;
unicode = 0134;
},
{
color = 11;
glyphname = K;
lastChange = "2019-11-25 06:54:41 +0000";
layers = (
{
layerId = "E2EFC82E-60BD-407F-B427-18737B8D95A5";
paths = (
{
closed = 1;
nodes = (
"632 436 LINE",
"460 436 LINE",
"682 774 LINE",
"403 774 LINE",
"403 724 LINE",
"445 724 LINE",
"445 438 LINE",
"245 438 LINE",
"342 774 LINE",
"52 774 LINE",
"52 724 LINE",
"105 724 LINE",
"105 50 LINE",
"30 50 LINE",
"30 0 LINE",
"212 0 LINE",
"212 50 LINE",
"134 50 LINE",
"231 388 LINE",
"444 388 LINE",
"612 50 LINE",
"517 50 LINE",
"517 0 LINE",
"699 0 LINE",
"699 50 LINE",
"632 50 LINE"
);
}
);
width = 729;
}
);
leftKerningGroup = K;
unicode = 004B;
},
{
color = 10;
glyphname = Kcommaaccent;
lastChange = "2019-11-25 06:54:41 +0000";
layers = (
{
layerId = "E2EFC82E-60BD-407F-B427-18737B8D95A5";
paths = (
{
closed = 1;
nodes = (
"632 436 LINE",
"460 436 LINE",
"682 774 LINE",
"403 774 LINE",
"403 724 LINE",
"445 724 LINE",
"445 438 LINE",
"245 438 LINE",
"342 774 LINE",
"52 774 LINE",
"52 724 LINE",
"105 724 LINE",
"105 50 LINE",
"30 50 LINE",
"30 0 LINE",
"212 0 LINE",
"212 50 LINE",
"134 50 LINE",
"231 388 LINE",
"444 388 LINE",
"612 50 LINE",
"517 50 LINE",
"517 0 LINE",
"699 0 LINE",
"699 50 LINE",
"632 50 LINE"
);
},
{
closed = 1;
nodes = (
"324 -232 LINE",
"327 -232 LINE",
"436 -58 LINE",
"324 -24 LINE"
);
}
);
width = 729;
}
);
leftKerningGroup = K;
unicode = 0136;
},
{
color = 11;
glyphname = L;
lastChange = "2019-11-25 00:51:15 +0000";
layers = (
{
layerId = "E2EFC82E-60BD-407F-B427-18737B8D95A5";
paths = (
{
closed = 1;
nodes = (
"127 50 LINE",
"335 774 LINE",
"30 774 LINE",
"30 724 LINE",
"98 724 LINE",
"98 50 LINE",
"30 50 LINE",
"30 0 LINE",
"503 0 LINE",
"503 -23 LINE",
"543 -23 LINE",
"543 0 LINE",
"543 229 LINE",
"403 50 LINE"
);
}
);
width = 573;
}
);
leftKerningGroup = L;
unicode = 004C;
},
{
color = 10;
glyphname = LJ;
lastChange = "2019-11-25 06:54:50 +0000";
layers = (
{
layerId = "E2EFC82E-60BD-407F-B427-18737B8D95A5";
paths = (
{
closed = 1;
nodes = (
"648 775 LINE",
"854 156 LINE",
"739 14 LINE",
"619 156 LINE",
"619 0 LINE",
"881 0 LINE",
"881 724 LINE",
"945 724 LINE",
"945 774 LINE"
);
},
{
closed = 1;
nodes = (
"127 50 LINE",
"335 775 LINE",
"30 774 LINE",
"30 724 LINE",
"98 724 LINE",
"98 50 LINE",
"30 50 LINE",
"30 0 LINE",
"503 0 LINE",
"503 -22 LINE",
"543 -22 LINE",
"543 0 LINE",
"543 229 LINE",
"404 50 LINE"
);
}
);
width = 975;
}
);
leftKerningGroup = L;
unicode = 01C7;
},
{
color = 10;
glyphname = Lacute;
lastChange = "2019-11-25 06:54:50 +0000";
layers = (
{
layerId = "E2EFC82E-60BD-407F-B427-18737B8D95A5";
paths = (
{
closed = 1;
nodes = (
"128 50 LINE",
"336 774 LINE",
"30 774 LINE",
"30 724 LINE",
"99 724 LINE",
"99 50 LINE",
"30 50 LINE",
"30 0 LINE",
"504 0 LINE",
"504 -23 LINE",
"544 -23 LINE",
"544 0 LINE",
"544 228 LINE",
"404 50 LINE"
);
},
{
closed = 1;
nodes = (
"104 791 LINE",
"307 937 LINE",
"112 934 LINE"
);
}
);
width = 574;
}
);
leftKerningGroup = L;
unicode = 0139;
},
{
color = 10;
glyphname = Lcaron;
lastChange = "2019-11-25 06:54:50 +0000";
layers = (
{
layerId = "E2EFC82E-60BD-407F-B427-18737B8D95A5";
paths = (
{
closed = 1;
nodes = (
"127 50 LINE",
"335 774 LINE",
"30 774 LINE",
"30 724 LINE",
"98 724 LINE",
"98 50 LINE",
"30 50 LINE",
"30 0 LINE",
"503 0 LINE",
"503 -23 LINE",
"543 -23 LINE",
"543 0 LINE",
"543 228 LINE",
"403 50 LINE"
);
},
{
closed = 1;
nodes = (
"366 478 LINE",
"369 478 LINE",
"478 652 LINE",
"366 686 LINE"
);
}
);
width = 573;
}
);
leftKerningGroup = L;
unicode = 013D;
},
{
color = 10;
glyphname = Lcommaaccent;
lastChange = "2019-11-25 06:54:50 +0000";
layers = (
{
layerId = "E2EFC82E-60BD-407F-B427-18737B8D95A5";
paths = (
{
closed = 1;
nodes = (
"128 50 LINE",
"335 774 LINE",
"30 774 LINE",
"30 724 LINE",
"99 724 LINE",
"99 50 LINE",
"30 50 LINE",
"30 0 LINE",
"504 0 LINE",
"504 -23 LINE",
"544 -23 LINE",
"544 0 LINE",
"544 228 LINE",
"404 50 LINE"
);
},
{
closed = 1;
nodes = (
"280 -232 LINE",
"283 -232 LINE",
"392 -58 LINE",
"280 -24 LINE"
);
}
);
width = 574;
}
);
leftKerningGroup = L;
unicode = 013B;
},
{
color = 10;
glyphname = Ldot;
lastChange = "2019-11-25 06:54:50 +0000";
layers = (
{
layerId = "E2EFC82E-60BD-407F-B427-18737B8D95A5";
paths = (
{
closed = 1;
nodes = (
"128 50 LINE",
"335 774 LINE",
"30 774 LINE",
"30 724 LINE",
"99 724 LINE",
"99 50 LINE",
"30 50 LINE",
"30 0 LINE",
"504 0 LINE",
"504 -23 LINE",
"544 -23 LINE",
"544 228 LINE",
"404 50 LINE"
);
},
{
closed = 1;
nodes = (
"324 370 LINE",
"449 370 LINE",
"449 495 LINE",
"324 495 LINE"
);
}
);
width = 574;
}
);
leftKerningGroup = L;
unicode = 013F;
},
{
color = 10;
glyphname = Lj;
lastChange = "2019-11-25 06:54:50 +0000";
layers = (
{
layerId = "E2EFC82E-60BD-407F-B427-18737B8D95A5";
paths = (
{
closed = 1;
nodes = (
"127 50 LINE",
"335 774 LINE",
"30 774 LINE",
"30 724 LINE",
"98 724 LINE",
"98 50 LINE",
"30 50 LINE",
"30 0 LINE",
"503 0 LINE",
"503 -23 LINE",
"543 -23 LINE",
"543 228 LINE",
"403 50 LINE"
);
},
{
closed = 1;
nodes = (
"548 487 LINE",
"707 83 LINE",
"580 -75 LINE",
"732 -75 LINE",
"732 437 LINE",
"801 437 LINE",
"801 487 LINE"
);
},
{
closed = 1;
nodes = (
"570 718 LINE",
"570 583 LINE",
"726 583 LINE",
"726 718 LINE"
);
}
);
width = 831;
}
);
leftKerningGroup = L;
unicode = 01C8;
},
{
color = 10;
glyphname = Lslash;
lastChange = "2019-11-25 06:54:50 +0000";
layers = (
{
layerId = "E2EFC82E-60BD-407F-B427-18737B8D95A5";
paths = (
{
closed = 1;
nodes = (
"196 50 LINE",
"305 430 LINE",
"440 490 LINE",
"470 530 LINE",
"325 501 LINE",
"403 774 LINE",
"98 774 LINE",
"98 724 LINE",
"167 724 LINE",
"167 470 LINE",
"30 443 LINE",
"110 343 LINE",
"167 368 LINE",
"167 50 LINE",
"98 50 LINE",
"98 0 LINE",
"572 0 LINE",
"572 -23 LINE",
"612 -23 LINE",
"612 228 LINE",
"472 50 LINE"
);
}
);
width = 642;
}
);
leftKerningGroup = L;
unicode = 0141;
},
{
color = 11;
glyphname = M;
lastChange = "2019-11-25 06:54:54 +0000";
layers = (
{
layerId = "E2EFC82E-60BD-407F-B427-18737B8D95A5";
paths = (
{
closed = 1;
nodes = (
"920 50 LINE",
"920 774 LINE",
"30 774 LINE",
"30 724 LINE",
"115 724 LINE",
"115 50 LINE",
"55 50 LINE",
"55 0 LINE",
"233 0 LINE",
"233 50 LINE",
"144 50 LINE",
"337 724 LINE",
"405 724 LINE",
"490 50 LINE",
"418 50 LINE",
"418 0 LINE",
"595 0 LINE",
"595 50 LINE",
"519 50 LINE",
"627 724 LINE",
"698 724 LINE",
"891 50 LINE",
"811 50 LINE",
"811 0 LINE",
"988 0 LINE",
"988 50 LINE"
);
}
);
width = 1018;
}
);
leftKerningGroup = M;
unicode = 004D;
},
{
color = 11;
glyphname = N;
lastChange = "2019-11-25 06:55:01 +0000";
layers = (
{
layerId = "E2EFC82E-60BD-407F-B427-18737B8D95A5";
paths = (
{
closed = 1;
nodes = (
"208 774 LINE",
"30 774 LINE",
"30 724 LINE",
"112 724 LINE",
"112 50 LINE",
"45 50 LINE",
"45 0 LINE",
"400 0 LINE",
"140 724 LINE",
"208 724 LINE"
);
},
{
closed = 1;
nodes = (
"614 724 LINE",
"678 724 LINE",
"678 774 LINE",
"309 774 LINE",
"586 50 LINE",
"517 50 LINE",
"517 0 LINE",
"699 0 LINE",
"699 50 LINE",
"614 50 LINE"
);
}
);
width = 729;
}
);
leftKerningGroup = N;
unicode = 004E;
},
{
color = 10;
glyphname = NJ;
lastChange = "2019-11-25 06:55:01 +0000";
layers = (
{
layerId = "E2EFC82E-60BD-407F-B427-18737B8D95A5";
paths = (
{
closed = 1;
nodes = (
"806 775 LINE",
"1012 156 LINE",
"897 14 LINE",
"777 156 LINE",
"777 0 LINE",
"1039 0 LINE",
"1039 724 LINE",
"1103 724 LINE",
"1103 774 LINE"
);
},
{
closed = 1;
nodes = (
"207 774 LINE",
"30 774 LINE",
"30 724 LINE",
"111 724 LINE",
"111 50 LINE",
"45 50 LINE",
"45 0 LINE",
"400 0 LINE",
"140 724 LINE",
"207 724 LINE"
);
},
{
closed = 1;
nodes = (
"614 724 LINE",
"678 724 LINE",
"678 774 LINE",
"308 775 LINE",
"586 50 LINE",
"517 50 LINE",
"517 0 LINE",
"699 0 LINE",
"699 50 LINE",
"614 50 LINE"
);
}
);
width = 1133;
}
);
leftKerningGroup = N;
unicode = 01CA;
},
{
color = 10;
glyphname = Nacute;
lastChange = "2019-11-25 06:55:01 +0000";
layers = (
{
layerId = "E2EFC82E-60BD-407F-B427-18737B8D95A5";
paths = (
{
closed = 1;
nodes = (
"208 774 LINE",
"30 774 LINE",
"30 724 LINE",
"112 724 LINE",
"112 50 LINE",
"45 50 LINE",
"45 0 LINE",
"400 0 LINE",
"140 724 LINE",
"208 724 LINE"
);
},
{
closed = 1;
nodes = (
"614 724 LINE",
"678 724 LINE",
"678 774 LINE",
"309 774 LINE",
"586 50 LINE",
"517 50 LINE",
"517 0 LINE",
"699 0 LINE",
"699 50 LINE",
"614 50 LINE"
);
},
{
closed = 1;
nodes = (
"307 792 LINE",
"512 935 LINE",
"317 935 LINE"
);
}
);
width = 729;
}
);
leftKerningGroup = N;
unicode = 0143;
},
{
color = 10;
glyphname = Ncaron;
lastChange = "2019-11-25 06:55:01 +0000";
layers = (
{
layerId = "E2EFC82E-60BD-407F-B427-18737B8D95A5";
paths = (
{
closed = 1;
nodes = (
"207 774 LINE",
"30 774 LINE",
"30 724 LINE",
"111 724 LINE",
"111 50 LINE",
"45 50 LINE",
"45 0 LINE",
"400 0 LINE",
"140 724 LINE",
"207 724 LINE"
);
},
{
closed = 1;
nodes = (
"614 724 LINE",
"677 724 LINE",
"677 774 LINE",
"308 774 LINE",
"585 50 LINE",
"517 50 LINE",
"517 0 LINE",
"699 0 LINE",
"699 50 LINE",
"614 50 LINE"
);
},
{
closed = 1;
nodes = (
"530 951 LINE",
"348 907 LINE",
"165 951 LINE",
"348 804 LINE"
);
}
);
width = 729;
}
);
leftKerningGroup = N;
unicode = 0147;
},
{
color = 10;
glyphname = Ncommaaccent;
lastChange = "2019-11-25 06:55:01 +0000";
layers = (
{
layerId = "E2EFC82E-60BD-407F-B427-18737B8D95A5";
paths = (
{
closed = 1;
nodes = (
"207 774 LINE",
"30 774 LINE",
"30 724 LINE",
"111 724 LINE",
"111 50 LINE",
"45 50 LINE",
"45 0 LINE",
"400 0 LINE",
"140 724 LINE",
"207 724 LINE"
);
},
{
closed = 1;
nodes = (
"614 724 LINE",
"677 724 LINE",
"677 774 LINE",
"308 774 LINE",
"585 50 LINE",
"517 50 LINE",
"517 0 LINE",
"699 0 LINE",
"699 50 LINE",
"614 50 LINE"
);
},
{
closed = 1;
nodes = (
"344 -232 LINE",
"347 -232 LINE",
"456 -58 LINE",
"344 -24 LINE"
);
}
);
width = 729;
}
);
leftKerningGroup = N;
unicode = 0145;
},
{
color = 10;
glyphname = Eng;
lastChange = "2019-11-25 10:53:28 +0000";
layers = (
{
layerId = "E2EFC82E-60BD-407F-B427-18737B8D95A5";
paths = (
{
closed = 1;
nodes = (
"208 774 LINE",
"30 774 LINE",
"30 724 LINE",
"112 724 LINE",
"112 50 LINE",
"45 50 LINE",
"45 0 LINE",
"400 0 LINE",
"140 724 LINE",
"208 724 LINE"
);
},
{
closed = 1;
nodes = (
"594 -65 LINE",
"323 -65 LINE",
"619 -181 LINE",
"614 724 LINE",
"678 724 LINE",
"678 774 LINE",
"309 774 LINE"
);
}
);
width = 708;
}
);
leftKerningGroup = N;
unicode = 014A;
},
{
color = 10;
glyphname = Nj;
lastChange = "2019-11-25 06:55:01 +0000";
layers = (
{
layerId = "E2EFC82E-60BD-407F-B427-18737B8D95A5";
paths = (
{
closed = 1;
nodes = (
"207 774 LINE",
"30 774 LINE",
"30 724 LINE",
"111 724 LINE",
"111 50 LINE",
"45 50 LINE",
"45 0 LINE",
"400 0 LINE",
"140 724 LINE",
"207 724 LINE"
);
},
{
closed = 1;
nodes = (
"614 724 LINE",
"677 724 LINE",
"677 774 LINE",
"308 775 LINE",
"585 50 LINE",
"517 50 LINE",
"517 0 LINE",
"699 0 LINE",
"699 50 LINE",
"614 50 LINE"
);
},
{
closed = 1;
nodes = (
"712 487 LINE",
"871 83 LINE",
"744 -74 LINE",
"896 -74 LINE",
"896 437 LINE",
"965 437 LINE",
"965 487 LINE"
);
},
{
closed = 1;
nodes = (
"734 719 LINE",
"734 583 LINE",
"890 583 LINE",
"890 719 LINE"
);
}
);
width = 995;
}
);
leftKerningGroup = N;
unicode = 01CB;
},
{
color = 11;
glyphname = Ntilde;
lastChange = "2019-11-25 06:55:01 +0000";
layers = (
{
layerId = "E2EFC82E-60BD-407F-B427-18737B8D95A5";
paths = (
{
closed = 1;
nodes = (
"392 905 LINE",
"388 952 LINE",
"172 797 LINE",
"342 846 LINE",
"345 797 LINE",
"558 948 LINE"
);
},
{
closed = 1;
nodes = (
"207 774 LINE",
"30 774 LINE",
"30 724 LINE",
"111 724 LINE",
"111 50 LINE",
"45 50 LINE",
"45 0 LINE",
"399 0 LINE",
"139 724 LINE",
"207 724 LINE"
);
},
{
closed = 1;
nodes = (
"613 724 LINE",
"677 724 LINE",
"677 774 LINE",
"308 774 LINE",
"585 50 LINE",
"516 50 LINE",
"516 0 LINE",
"699 0 LINE",
"699 50 LINE",
"613 50 LINE"
);
}
);
width = 729;
}
);
leftKerningGroup = N;
unicode = 00D1;
},
{
color = 11;
glyphname = O;
lastChange = "2019-11-25 00:30:02 +0000";
layers = (
{
layerId = "E2EFC82E-60BD-407F-B427-18737B8D95A5";
paths = (
{
closed = 1;
nodes = (
"602 774 LINE",
"244 774 LINE",
"30 409 LINE",
"245 0 LINE",
"601 0 LINE",
"817 409 LINE"
);
},
{
closed = 1;
nodes = (
"252 724 LINE",
"595 724 LINE",
"595 50 LINE",
"252 50 LINE"
);
}
);
width = 847;
}
);
leftKerningGroup = O;
unicode = 004F;
},
{
color = 11;
glyphname = Oacute;
lastChange = "2019-11-25 06:55:12 +0000";
layers = (
{
layerId = "E2EFC82E-60BD-407F-B427-18737B8D95A5";
paths = (
{
closed = 1;
nodes = (
"361 792 LINE",
"566 935 LINE",
"371 935 LINE"
);
},
{
closed = 1;
nodes = (
"603 774 LINE",
"245 774 LINE",
"30 409 LINE",
"246 0 LINE",
"602 0 LINE",
"817 409 LINE"
);
},
{
closed = 1;
nodes = (
"252 724 LINE",
"595 724 LINE",
"595 50 LINE",
"252 50 LINE"
);
}
);
width = 847;
}
);
leftKerningGroup = O;
unicode = 00D3;
},
{
color = 10;
glyphname = Obreve;
lastChange = "2019-11-25 06:55:12 +0000";
layers = (
{
layerId = "E2EFC82E-60BD-407F-B427-18737B8D95A5";
paths = (
{
closed = 1;
nodes = (
"603 774 LINE",
"245 774 LINE",
"30 409 LINE",
"246 0 LINE",
"602 0 LINE",
"817 409 LINE"
);
},
{
closed = 1;
nodes = (
"252 724 LINE",
"595 724 LINE",
"595 50 LINE",
"252 50 LINE"
);
},
{
closed = 1;
nodes = (
"465 882 LINE",
"347 882 LINE",
"284 983 LINE",
"208 983 LINE",
"313 821 LINE",
"498 821 LINE",
"604 983 LINE",
"528 983 LINE"
);
}
);
width = 847;
}
);
leftKerningGroup = O;
unicode = 014E;
},
{
color = 11;
glyphname = Ocircumflex;
lastChange = "2019-11-25 06:55:12 +0000";
layers = (
{
layerId = "E2EFC82E-60BD-407F-B427-18737B8D95A5";
paths = (
{
closed = 1;
nodes = (
"606 804 LINE",
"424 848 LINE",
"241 804 LINE",
"424 951 LINE"
);
},
{
closed = 1;
nodes = (
"602 774 LINE",
"245 774 LINE",
"30 409 LINE",
"245 0 LINE",
"602 0 LINE",
"817 409 LINE"
);
},
{
closed = 1;
nodes = (
"252 724 LINE",
"595 724 LINE",
"595 50 LINE",
"252 50 LINE"
);
}
);
width = 847;
}
);
leftKerningGroup = O;
unicode = 00D4;
},
{
color = 10;
glyphname = Ocircumflexacute;
lastChange = "2019-11-25 06:55:12 +0000";
layers = (
{
layerId = "E2EFC82E-60BD-407F-B427-18737B8D95A5";
paths = (
{
closed = 1;
nodes = (
"334 935 LINE",
"538 1077 LINE",
"344 1077 LINE"
);
},
{
closed = 1;
nodes = (
"235 804 LINE",
"417 848 LINE",
"599 804 LINE",
"417 951 LINE"
);
},
{
closed = 1;
nodes = (
"602 774 LINE",
"245 774 LINE",
"30 408 LINE",
"246 0 LINE",
"602 0 LINE",
"817 408 LINE"
);
},
{
closed = 1;
nodes = (
"252 723 LINE",
"595 723 LINE",
"595 50 LINE",
"252 50 LINE"
);
}
);
width = 847;
}
);
leftKerningGroup = O;
unicode = 1ED0;
},
{
color = 10;
glyphname = Ocircumflexdotbelow;
lastChange = "2019-11-25 06:55:12 +0000";
layers = (
{
layerId = "E2EFC82E-60BD-407F-B427-18737B8D95A5";
paths = (
{
closed = 1;
nodes = (
"604 805 LINE",
"422 849 LINE",
"240 805 LINE",
"422 952 LINE"
);
},
{
closed = 1;
nodes = (
"361 -163 LINE",
"487 -163 LINE",
"487 -38 LINE",
"361 -38 LINE"
);
},
{
closed = 1;
nodes = (
"603 774 LINE",
"245 774 LINE",
"30 409 LINE",
"246 0 LINE",
"602 0 LINE",
"818 409 LINE"
);
},
{
closed = 1;
nodes = (
"253 724 LINE",
"595 724 LINE",
"595 50 LINE",
"253 50 LINE"
);
}
);
width = 848;
}
);
leftKerningGroup = O;
unicode = 1ED8;
},
{
color = 10;
glyphname = Ocircumflexgrave;
lastChange = "2019-11-25 06:55:12 +0000";
layers = (
{
layerId = "E2EFC82E-60BD-407F-B427-18737B8D95A5";
paths = (
{
closed = 1;
nodes = (
"508 935 LINE",
"303 1077 LINE",
"498 1077 LINE"
);
},
{
closed = 1;
nodes = (
"607 804 LINE",
"425 848 LINE",
"243 804 LINE",
"425 951 LINE"
);
},
{
closed = 1;
nodes = (
"602 774 LINE",
"245 774 LINE",
"30 408 LINE",
"245 0 LINE",
"601 0 LINE",
"817 408 LINE"
);
},
{
closed = 1;
nodes = (
"252 723 LINE",
"595 723 LINE",
"595 50 LINE",
"252 50 LINE"
);
}
);
width = 847;
}
);
leftKerningGroup = O;
unicode = 1ED2;
},
{
color = 10;
glyphname = Ocircumflexhookabove;
lastChange = "2019-11-25 06:55:12 +0000";
layers = (
{
layerId = "E2EFC82E-60BD-407F-B427-18737B8D95A5";
paths = (
{
closed = 1;
nodes = (
"634 959 LINE",
"634 1003 LINE",
"467 1003 LINE",
"584 1087 LINE",
"682 1025 LINE",
"682 942 LINE",
"587 903 LINE",
"587 869 LINE",
"541 869 LINE",
"541 959 LINE"
);
},
{
closed = 1;
nodes = (
"610 805 LINE",
"428 849 LINE",
"246 805 LINE",
"428 952 LINE"
);
},
{
closed = 1;
nodes = (
"602 774 LINE",
"245 774 LINE",
"30 409 LINE",
"245 0 LINE",
"601 0 LINE",
"817 409 LINE"
);
},
{
closed = 1;
nodes = (
"252 724 LINE",
"595 724 LINE",
"595 50 LINE",
"252 50 LINE"
);
}
);
width = 847;
}
);
leftKerningGroup = O;
unicode = 1ED4;
},
{
color = 10;
glyphname = Ocircumflextilde;
lastChange = "2019-11-25 06:55:12 +0000";
layers = (
{
layerId = "E2EFC82E-60BD-407F-B427-18737B8D95A5";
paths = (
{
closed = 1;
nodes = (
"502 1045 LINE",
"499 1091 LINE",
"282 937 LINE",
"452 986 LINE",
"456 937 LINE",
"668 1088 LINE"
);
},
{
closed = 1;
nodes = (
"606 804 LINE",
"423 849 LINE",
"241 804 LINE",
"423 951 LINE"
);
},
{
closed = 1;
nodes = (
"602 774 LINE",
"245 774 LINE",
"30 409 LINE",
"246 0 LINE",
"602 0 LINE",
"817 409 LINE"
);
},
{
closed = 1;
nodes = (
"252 724 LINE",
"595 724 LINE",
"595 50 LINE",
"252 50 LINE"
);
}
);
width = 847;
}
);
leftKerningGroup = O;
unicode = 1ED6;
},
{
color = 10;
glyphname = Odblgrave;
lastChange = "2019-11-25 06:55:12 +0000";
layers = (
{
layerId = "E2EFC82E-60BD-407F-B427-18737B8D95A5";
paths = (
{
closed = 1;
nodes = (
"602 774 LINE",
"244 774 LINE",
"30 409 LINE",
"245 0 LINE",
"601 0 LINE",
"817 409 LINE"
);
},
{
closed = 1;
nodes = (
"252 724 LINE",
"595 724 LINE",
"595 50 LINE",
"252 50 LINE"
);
},
{
closed = 1;
nodes = (
"607 793 LINE",
"402 936 LINE",
"597 936 LINE"
);
},
{
closed = 1;
nodes = (
"381 793 LINE",
"176 936 LINE",
"371 936 LINE"
);
}
);
width = 847;
}
);
leftKerningGroup = O;
unicode = 020C;
},
{
color = 11;
glyphname = Odieresis;
lastChange = "2019-11-25 06:55:12 +0000";
layers = (
{
layerId = "E2EFC82E-60BD-407F-B427-18737B8D95A5";
paths = (
{
closed = 1;
nodes = (
"255 825 LINE",
"380 825 LINE",
"380 950 LINE",
"255 950 LINE"
);
},
{
closed = 1;
nodes = (
"467 825 LINE",
"592 825 LINE",
"592 950 LINE",
"467 950 LINE"
);
},
{
closed = 1;
nodes = (
"602 774 LINE",
"244 774 LINE",
"30 409 LINE",
"245 0 LINE",
"601 0 LINE",
"817 409 LINE"
);
},
{
closed = 1;
nodes = (
"252 724 LINE",
"595 724 LINE",
"595 50 LINE",
"252 50 LINE"
);
}
);
width = 847;
}
);
leftKerningGroup = O;
unicode = 00D6;
},
{
color = 10;
glyphname = Odieresismacron;
lastChange = "2019-11-25 06:55:12 +0000";
layers = (
{
layerId = "E2EFC82E-60BD-407F-B427-18737B8D95A5";
paths = (
{
closed = 1;
nodes = (
"602 774 LINE",
"245 774 LINE",
"30 408 LINE",
"246 0 LINE",
"602 0 LINE",
"817 408 LINE"
);
},
{
closed = 1;
nodes = (
"252 724 LINE",
"595 724 LINE",
"595 50 LINE",
"252 50 LINE"
);
},
{
closed = 1;
nodes = (
"267 826 LINE",
"392 826 LINE",
"392 951 LINE",
"267 951 LINE"
);
},
{
closed = 1;
nodes = (
"479 826 LINE",
"604 826 LINE",
"604 951 LINE",
"479 951 LINE"
);
},
{
closed = 1;
nodes = (
"643 1101 LINE",
"614 1061 LINE",
"284 1001 LINE",
"204 1101 LINE"
);
}
);
width = 847;
}
);
leftKerningGroup = O;
unicode = 022A;
},
{
color = 10;
glyphname = Odotaccentmacron;
lastChange = "2019-11-25 06:55:12 +0000";
layers = (
{
layerId = "E2EFC82E-60BD-407F-B427-18737B8D95A5";
paths = (
{
closed = 1;
nodes = (
"603 774 LINE",
"245 774 LINE",
"30 409 LINE",
"246 0 LINE",
"602 0 LINE",
"818 409 LINE"
);
},
{
closed = 1;
nodes = (
"253 724 LINE",
"595 724 LINE",
"595 50 LINE",
"253 50 LINE"
);
},
{
closed = 1;
nodes = (
"388 826 LINE",
"513 826 LINE",
"513 951 LINE",
"388 951 LINE"
);
},
{
closed = 1;
nodes = (
"666 1101 LINE",
"636 1061 LINE",
"306 1001 LINE",
"226 1101 LINE"
);
}
);
width = 848;
}
);
leftKerningGroup = O;
unicode = 0230;
},
{
color = 10;
glyphname = Odotbelow;
lastChange = "2019-11-25 06:55:12 +0000";
layers = (
{
layerId = "E2EFC82E-60BD-407F-B427-18737B8D95A5";
paths = (
{
closed = 1;
nodes = (
"361 -164 LINE",
"486 -164 LINE",
"486 -38 LINE",
"361 -38 LINE"
);
},
{
closed = 1;
nodes = (
"602 774 LINE",
"245 774 LINE",
"30 409 LINE",
"245 0 LINE",
"601 0 LINE",
"817 409 LINE"
);
},
{
closed = 1;
nodes = (
"252 724 LINE",
"595 724 LINE",
"595 50 LINE",
"252 50 LINE"
);
}
);
width = 847;
}
);
leftKerningGroup = O;
unicode = 1ECC;
},
{
color = 11;
glyphname = Ograve;
lastChange = "2019-11-25 06:55:12 +0000";
layers = (
{
layerId = "E2EFC82E-60BD-407F-B427-18737B8D95A5";
paths = (
{
closed = 1;
nodes = (
"488 792 LINE",
"283 935 LINE",
"478 935 LINE"
);
},
{
closed = 1;
nodes = (
"602 774 LINE",
"244 774 LINE",
"30 409 LINE",
"245 0 LINE",
"601 0 LINE",
"817 409 LINE"
);
},
{
closed = 1;
nodes = (
"252 724 LINE",
"595 724 LINE",
"595 50 LINE",
"252 50 LINE"
);
}
);
width = 847;
}
);
leftKerningGroup = O;
unicode = 00D2;
},
{
color = 10;
glyphname = Ohookabove;
lastChange = "2019-11-25 06:55:12 +0000";
layers = (
{
layerId = "E2EFC82E-60BD-407F-B427-18737B8D95A5";
paths = (
{
closed = 1;
nodes = (
"495 895 LINE",
"495 939 LINE",
"328 939 LINE",
"445 1023 LINE",
"543 961 LINE",
"543 878 LINE",
"449 839 LINE",
"449 796 LINE",
"402 796 LINE",
"402 895 LINE"
);
},
{
closed = 1;
nodes = (
"603 774 LINE",
"245 774 LINE",
"30 409 LINE",
"246 0 LINE",
"602 0 LINE",
"817 409 LINE"
);
},
{
closed = 1;
nodes = (
"252 724 LINE",
"595 724 LINE",
"595 50 LINE",
"252 50 LINE"
);
}
);
width = 847;
}
);
leftKerningGroup = O;
unicode = 1ECE;
},
{
color = 10;
glyphname = Ohorn;
lastChange = "2019-11-25 06:55:12 +0000";
layers = (
{
layerId = "E2EFC82E-60BD-407F-B427-18737B8D95A5";
paths = (
{
closed = 1;
nodes = (
"805 613 LINE",
"805 810 LINE",
"724 683 LINE",
"656 683 LINE",
"602 774 LINE",
"244 774 LINE",
"30 409 LINE",
"245 0 LINE",
"601 0 LINE",
"817 409 LINE",
"697 613 LINE"
);
},
{
closed = 1;
nodes = (
"252 50 LINE",
"252 724 LINE",
"595 724 LINE",
"595 50 LINE"
);
}
);
width = 847;
}
);
leftKerningGroup = O;
unicode = 01A0;
},
{
color = 10;
glyphname = Ohornacute;
lastChange = "2019-11-25 06:55:12 +0000";
layers = (
{
layerId = "E2EFC82E-60BD-407F-B427-18737B8D95A5";
paths = (
{
closed = 1;
nodes = (
"337 793 LINE",
"541 936 LINE",
"347 936 LINE"
);
},
{
closed = 1;
nodes = (
"806 612 LINE",
"806 810 LINE",
"724 682 LINE",
"657 682 LINE",
"603 774 LINE",
"245 774 LINE",
"30 409 LINE",
"246 0 LINE",
"602 0 LINE",
"818 409 LINE",
"698 612 LINE"
);
},
{
closed = 1;
nodes = (
"253 50 LINE",
"253 724 LINE",
"595 724 LINE",
"595 50 LINE"
);
}
);
width = 848;
}
);
leftKerningGroup = O;
unicode = 1EDA;
},
{
color = 10;
glyphname = Ohorndotbelow;
lastChange = "2019-11-25 06:55:12 +0000";
layers = (
{
layerId = "E2EFC82E-60BD-407F-B427-18737B8D95A5";
paths = (
{
closed = 1;
nodes = (
"805 612 LINE",
"805 809 LINE",
"724 682 LINE",
"656 682 LINE",
"602 774 LINE",
"245 774 LINE",
"30 408 LINE",
"245 0 LINE",
"601 0 LINE",
"817 408 LINE",
"697 612 LINE"
);
},
{
closed = 1;
nodes = (
"252 50 LINE",
"252 723 LINE",
"595 723 LINE",
"595 50 LINE"
);
},
{
closed = 1;
nodes = (
"484 -164 LINE",
"484 -39 LINE",
"359 -39 LINE",
"359 -164 LINE"
);
}
);
width = 847;
}
);
leftKerningGroup = O;
unicode = 1EE2;
},
{
color = 10;
glyphname = Ohorngrave;
lastChange = "2019-11-25 06:55:12 +0000";
layers = (
{
layerId = "E2EFC82E-60BD-407F-B427-18737B8D95A5";
paths = (
{
closed = 1;
nodes = (
"283 936 LINE",
"487 793 LINE",
"477 936 LINE"
);
},
{
closed = 1;
nodes = (
"806 612 LINE",
"806 810 LINE",
"724 682 LINE",
"657 682 LINE",
"603 774 LINE",
"245 774 LINE",
"30 409 LINE",
"246 0 LINE",
"602 0 LINE",
"817 409 LINE",
"698 612 LINE"
);
},
{
closed = 1;
nodes = (
"252 50 LINE",
"252 724 LINE",
"595 724 LINE",
"595 50 LINE"
);
}
);
width = 847;
}
);
leftKerningGroup = O;
unicode = 1EDC;
},
{
color = 10;
glyphname = Ohornhookabove;
lastChange = "2019-11-25 06:55:12 +0000";
layers = (
{
layerId = "E2EFC82E-60BD-407F-B427-18737B8D95A5";
paths = (
{
closed = 1;
nodes = (
"372 895 LINE",
"372 796 LINE",
"419 796 LINE",
"419 839 LINE",
"513 878 LINE",
"513 961 LINE",
"415 1022 LINE",
"298 939 LINE",
"465 939 LINE",
"465 895 LINE"
);
},
{
closed = 1;
nodes = (
"805 613 LINE",
"805 810 LINE",
"724 683 LINE",
"656 683 LINE",
"602 774 LINE",
"245 774 LINE",
"30 409 LINE",
"246 0 LINE",
"602 0 LINE",
"817 409 LINE",
"697 613 LINE"
);
},
{
closed = 1;
nodes = (
"252 50 LINE",
"252 724 LINE",
"595 724 LINE",
"595 50 LINE"
);
}
);
width = 847;
}
);
leftKerningGroup = O;
unicode = 1EDE;
},
{
color = 10;
glyphname = Ohorntilde;
lastChange = "2019-11-25 06:55:12 +0000";
layers = (
{
layerId = "E2EFC82E-60BD-407F-B427-18737B8D95A5";
paths = (
{
closed = 1;
nodes = (
"630 949 LINE",
"464 906 LINE",
"460 953 LINE",
"244 799 LINE",
"414 848 LINE",
"418 798 LINE"
);
},
{
closed = 1;
nodes = (
"805 613 LINE",
"805 810 LINE",
"724 683 LINE",
"656 683 LINE",
"602 774 LINE",
"245 774 LINE",
"30 409 LINE",
"246 0 LINE",
"602 0 LINE",
"817 409 LINE",
"697 613 LINE"
);
},
{
closed = 1;
nodes = (
"252 50 LINE",
"252 724 LINE",
"595 724 LINE",
"595 50 LINE"
);
}
);
width = 847;
}
);
leftKerningGroup = O;
unicode = 1EE0;
},
{
color = 10;
glyphname = Ohungarumlaut;
lastChange = "2019-11-25 06:55:12 +0000";
layers = (
{
layerId = "E2EFC82E-60BD-407F-B427-18737B8D95A5";
paths = (
{
closed = 1;
nodes = (
"602 774 LINE",
"244 774 LINE",
"30 409 LINE",
"245 0 LINE",
"601 0 LINE",
"817 409 LINE"
);
},
{
closed = 1;
nodes = (
"252 724 LINE",
"595 724 LINE",
"595 50 LINE",
"252 50 LINE"
);
},
{
closed = 1;
nodes = (
"257 792 LINE",
"462 935 LINE",
"267 935 LINE"
);
},
{
closed = 1;
nodes = (
"483 792 LINE",
"688 935 LINE",
"493 935 LINE"
);
}
);
width = 847;
}
);
leftKerningGroup = O;
unicode = 0150;
},
{
color = 10;
glyphname = Oinvertedbreve;
lastChange = "2019-11-25 06:55:12 +0000";
layers = (
{
layerId = "E2EFC82E-60BD-407F-B427-18737B8D95A5";
paths = (
{
closed = 1;
nodes = (
"602 774 LINE",
"245 774 LINE",
"30 409 LINE",
"246 0 LINE",
"602 0 LINE",
"817 409 LINE"
);
},
{
closed = 1;
nodes = (
"252 724 LINE",
"595 724 LINE",
"595 50 LINE",
"252 50 LINE"
);
},
{
closed = 1;
nodes = (
"484 921 LINE",
"366 921 LINE",
"303 821 LINE",
"227 821 LINE",
"333 983 LINE",
"518 983 LINE",
"623 821 LINE",
"547 821 LINE"
);
}
);
width = 847;
}
);
leftKerningGroup = O;
unicode = 020E;
},
{
color = 10;
glyphname = Omacron;
lastChange = "2019-11-25 06:55:12 +0000";
layers = (
{
layerId = "E2EFC82E-60BD-407F-B427-18737B8D95A5";
paths = (
{
closed = 1;
nodes = (
"603 774 LINE",
"245 774 LINE",
"30 409 LINE",
"246 0 LINE",
"602 0 LINE",
"818 409 LINE"
);
},
{
closed = 1;
nodes = (
"253 724 LINE",
"595 724 LINE",
"595 50 LINE",
"253 50 LINE"
);
},
{
closed = 1;
nodes = (
"640 933 LINE",
"611 894 LINE",
"281 834 LINE",
"201 933 LINE"
);
}
);
width = 848;
}
);
leftKerningGroup = O;
unicode = 014C;
},
{
color = 10;
glyphname = Oogonek;
lastChange = "2019-11-25 06:55:12 +0000";
layers = (
{
layerId = "E2EFC82E-60BD-407F-B427-18737B8D95A5";
paths = (
{
closed = 1;
nodes = (
"817 409 LINE",
"602 774 LINE",
"244 774 LINE",
"30 409 LINE",
"245 0 LINE",
"400 0 LINE",
"351 -225 LINE",
"566 -109 LINE",
"434 -109 LINE",
"462 0 LINE",
"601 0 LINE"
);
},
{
closed = 1;
nodes = (
"595 724 LINE",
"595 50 LINE",
"252 50 LINE",
"252 724 LINE"
);
}
);
width = 847;
}
);
leftKerningGroup = O;
unicode = 01EA;
},
{
color = 11;
glyphname = Oslash;
lastChange = "2019-11-25 06:55:12 +0000";
layers = (
{
layerId = "E2EFC82E-60BD-407F-B427-18737B8D95A5";
paths = (
{
closed = 1;
nodes = (
"731 797 LINE",
"651 692 LINE",
"603 774 LINE",
"245 774 LINE",
"30 409 LINE",
"197 93 LINE",
"48 -104 LINE",
"75 -104 LINE",
"215 59 LINE",
"246 0 LINE",
"602 0 LINE",
"817 409 LINE",
"694 619 LINE",
"846 797 LINE"
);
},
{
closed = 1;
nodes = (
"595 724 LINE",
"595 618 LINE",
"252 166 LINE",
"252 724 LINE"
);
},
{
closed = 1;
nodes = (
"252 50 LINE",
"252 103 LINE",
"595 503 LINE",
"595 50 LINE"
);
}
);
width = 876;
}
);
leftKerningGroup = O;
unicode = 00D8;
},
{
color = 10;
glyphname = Oslashacute;
lastChange = "2019-11-25 06:55:12 +0000";
layers = (
{
layerId = "E2EFC82E-60BD-407F-B427-18737B8D95A5";
paths = (
{
closed = 1;
nodes = (
"731 797 LINE",
"651 692 LINE",
"603 774 LINE",
"245 774 LINE",
"30 409 LINE",
"197 93 LINE",
"48 -104 LINE",
"75 -104 LINE",
"215 59 LINE",
"246 0 LINE",
"602 0 LINE",
"817 409 LINE",
"694 619 LINE",
"847 797 LINE"
);
},
{
closed = 1;
nodes = (
"595 724 LINE",
"595 618 LINE",
"252 166 LINE",
"252 724 LINE"
);
},
{
closed = 1;
nodes = (
"252 50 LINE",
"252 103 LINE",
"595 503 LINE",
"595 50 LINE"
);
},
{
closed = 1;
nodes = (
"373 793 LINE",
"578 936 LINE",
"383 936 LINE"
);
}
);
width = 877;
}
);
leftKerningGroup = O;
unicode = 01FE;
},
{
color = 11;
glyphname = Otilde;
lastChange = "2019-11-25 06:55:12 +0000";
layers = (
{
layerId = "E2EFC82E-60BD-407F-B427-18737B8D95A5";
paths = (
{
closed = 1;
nodes = (
"494 906 LINE",
"490 952 LINE",
"273 798 LINE",
"443 847 LINE",
"447 797 LINE",
"659 949 LINE"
);
},
{
closed = 1;
nodes = (
"602 774 LINE",
"244 774 LINE",
"30 409 LINE",
"245 0 LINE",
"601 0 LINE",
"817 409 LINE"
);
},
{
closed = 1;
nodes = (
"252 724 LINE",
"595 724 LINE",
"595 50 LINE",
"252 50 LINE"
);
}
);
width = 847;
}
);
leftKerningGroup = O;
unicode = 00D5;
},
{
color = 10;
glyphname = Otildemacron;
lastChange = "2019-11-25 06:55:12 +0000";
layers = (
{
layerId = "E2EFC82E-60BD-407F-B427-18737B8D95A5";
paths = (
{
closed = 1;
nodes = (
"602 774 LINE",
"244 774 LINE",
"30 408 LINE",
"245 0 LINE",
"601 0 LINE",
"817 408 LINE"
);
},
{
closed = 1;
nodes = (
"252 724 LINE",
"595 724 LINE",
"595 50 LINE",
"252 50 LINE"
);
},
{
closed = 1;
nodes = (
"454 906 LINE",
"450 953 LINE",
"234 798 LINE",
"404 847 LINE",
"407 798 LINE",
"619 949 LINE"
);
},
{
closed = 1;
nodes = (
"638 1101 LINE",
"609 1061 LINE",
"279 1001 LINE",
"199 1101 LINE"
);
}
);
width = 847;
}
);
leftKerningGroup = O;
unicode = 022C;
},
{
color = 11;
glyphname = OE;
lastChange = "2019-11-25 06:55:12 +0000";
layers = (
{
layerId = "E2EFC82E-60BD-407F-B427-18737B8D95A5";
paths = (
{
closed = 1;
nodes = (
"768 724 LINE",
"919 724 LINE",
"1059 546 LINE",
"1059 800 LINE",
"1020 800 LINE",
"1020 774 LINE",
"245 774 LINE",
"30 409 LINE",
"246 0 LINE",
"1020 0 LINE",
"1020 -24 LINE",
"1059 -24 LINE",
"1059 228 LINE",
"919 50 LINE",
"604 50 LINE",
"779 382 LINE",
"950 382 LINE",
"950 332 LINE",
"990 332 LINE",
"990 482 LINE",
"950 482 LINE",
"950 432 LINE",
"779 432 LINE",
"720 533 LINE"
);
},
{
closed = 1;
nodes = (
"262 724 LINE",
"571 724 LINE",
"571 50 LINE",
"262 50 LINE"
);
}
);
width = 1089;
}
);
leftKerningGroup = O;
unicode = 0152;
},
{
color = 11;
glyphname = P;
lastChange = "2019-11-25 06:55:16 +0000";
layers = (
{
layerId = "E2EFC82E-60BD-407F-B427-18737B8D95A5";
paths = (
{
closed = 1;
nodes = (
"207 0 LINE",
"207 50 LINE",
"137 50 LINE",
"222 348 LINE",
"558 348 LINE",
"762 570 LINE",
"551 774 LINE",
"47 774 LINE",
"47 724 LINE",
"108 724 LINE",
"108 50 LINE",
"30 50 LINE",
"30 0 LINE"
);
},
{
closed = 1;
nodes = (
"330 724 LINE",
"540 724 LINE",
"540 398 LINE",
"237 398 LINE"
);
}
);
width = 792;
}
);
leftKerningGroup = P;
unicode = 0050;
},
{
color = 11;
glyphname = Thorn;
lastChange = "2019-11-25 06:55:20 +0000";
layers = (
{
layerId = "E2EFC82E-60BD-407F-B427-18737B8D95A5";
paths = (
{
closed = 1;
nodes = (
"207 0 LINE",
"207 50 LINE",
"137 50 LINE",
"174 181 LINE",
"540 181 LINE",
"762 435 LINE",
"546 662 LINE",
"312 662 LINE",
"344 774 LINE",
"46 774 LINE",
"46 724 LINE",
"108 724 LINE",
"108 50 LINE",
"30 50 LINE",
"30 0 LINE"
);
},
{
closed = 1;
nodes = (
"298 612 LINE",
"540 612 LINE",
"540 231 LINE",
"189 231 LINE"
);
}
);
width = 792;
}
);
leftKerningGroup = P;
unicode = 00DE;
},
{
color = 11;
glyphname = Q;
lastChange = "2019-11-25 00:31:02 +0000";
layers = (
{
layerId = "E2EFC82E-60BD-407F-B427-18737B8D95A5";
paths = (
{
closed = 1;
nodes = (
"601 0 LINE",
"817 409 LINE",
"602 774 LINE",
"244 774 LINE",
"30 409 LINE",
"245 0 LINE"
);
},
{
closed = 1;
nodes = (
"252 724 LINE",
"595 724 LINE",
"595 50 LINE",
"481 50 LINE",
"321 198 LINE",
"321 50 LINE",
"252 50 LINE"
);
}
);
width = 847;
}
);
leftKerningGroup = Q;
unicode = 0051;
},
{
color = 11;
glyphname = R;
lastChange = "2019-11-25 06:55:51 +0000";
layers = (
{
layerId = "E2EFC82E-60BD-407F-B427-18737B8D95A5";
paths = (
{
closed = 1;
nodes = (
"684 393 LINE",
"558 393 LINE",
"744 582 LINE",
"533 774 LINE",
"56 774 LINE",
"56 724 LINE",
"111 724 LINE",
"111 398 LINE",
"111 348 LINE",
"111 50 LINE",
"30 50 LINE",
"30 0 LINE",
"207 0 LINE",
"207 50 LINE",
"140 50 LINE",
"225 348 LINE",
"514 348 LINE",
"663 50 LINE",
"572 50 LINE",
"572 0 LINE",
"750 0 LINE",
"750 50 LINE",
"684 50 LINE"
);
},
{
closed = 1;
nodes = (
"522 724 LINE",
"522 398 LINE",
"239 398 LINE",
"333 724 LINE"
);
}
);
width = 780;
}
);
leftKerningGroup = R;
unicode = 0052;
},
{
color = 10;
glyphname = Racute;
lastChange = "2019-11-25 06:55:51 +0000";
layers = (
{
layerId = "E2EFC82E-60BD-407F-B427-18737B8D95A5";
paths = (
{
closed = 1;
nodes = (
"685 393 LINE",
"559 393 LINE",
"744 582 LINE",
"534 774 LINE",
"57 774 LINE",
"57 724 LINE",
"111 724 LINE",
"111 397 LINE",
"111 347 LINE",
"111 50 LINE",
"30 50 LINE",
"30 0 LINE",
"208 0 LINE",
"208 50 LINE",
"140 50 LINE",
"226 347 LINE",
"514 347 LINE",
"664 50 LINE",
"573 50 LINE",
"573 0 LINE",
"750 0 LINE",
"750 50 LINE",
"685 50 LINE"
);
},
{
closed = 1;
nodes = (
"522 724 LINE",
"522 397 LINE",
"240 397 LINE",
"333 724 LINE"
);
},
{
closed = 1;
nodes = (
"299 792 LINE",
"504 935 LINE",
"309 935 LINE"
);
}
);
width = 780;
}
);
leftKerningGroup = R;
unicode = 0154;
},
{
color = 10;
glyphname = Rcaron;
lastChange = "2019-11-25 06:55:51 +0000";
layers = (
{
layerId = "E2EFC82E-60BD-407F-B427-18737B8D95A5";
paths = (
{
closed = 1;
nodes = (
"684 393 LINE",
"558 393 LINE",
"744 582 LINE",
"533 774 LINE",
"56 774 LINE",
"56 724 LINE",
"111 724 LINE",
"111 397 LINE",
"111 347 LINE",
"111 50 LINE",
"30 50 LINE",
"30 0 LINE",
"207 0 LINE",
"207 50 LINE",
"140 50 LINE",
"225 347 LINE",
"514 347 LINE",
"663 50 LINE",
"572 50 LINE",
"572 0 LINE",
"750 0 LINE",
"750 50 LINE",
"684 50 LINE"
);
},
{
closed = 1;
nodes = (
"522 724 LINE",
"522 397 LINE",
"239 397 LINE",
"333 724 LINE"
);
},
{
closed = 1;
nodes = (
"580 951 LINE",
"398 907 LINE",
"216 951 LINE",
"398 804 LINE"
);
}
);
width = 780;
}
);
leftKerningGroup = R;
unicode = 0158;
},
{
color = 10;
glyphname = Rcommaaccent;
lastChange = "2019-11-25 06:55:51 +0000";
layers = (
{
layerId = "E2EFC82E-60BD-407F-B427-18737B8D95A5";
paths = (
{
closed = 1;
nodes = (
"684 393 LINE",
"559 393 LINE",
"744 582 LINE",
"534 774 LINE",
"56 774 LINE",
"56 724 LINE",
"111 724 LINE",
"111 397 LINE",
"111 347 LINE",
"111 50 LINE",
"30 50 LINE",
"30 0 LINE",
"208 0 LINE",
"208 50 LINE",
"140 50 LINE",
"225 347 LINE",
"514 347 LINE",
"664 50 LINE",
"573 50 LINE",
"573 0 LINE",
"750 0 LINE",
"750 50 LINE",
"684 50 LINE"
);
},
{
closed = 1;
nodes = (
"522 724 LINE",
"522 397 LINE",
"240 397 LINE",
"333 724 LINE"
);
},
{
closed = 1;
nodes = (
"331 -232 LINE",
"335 -232 LINE",
"443 -58 LINE",
"331 -24 LINE"
);
}
);
width = 780;
}
);
leftKerningGroup = R;
unicode = 0156;
},
{
color = 10;
glyphname = Rdblgrave;
lastChange = "2019-11-25 06:55:51 +0000";
layers = (
{
layerId = "E2EFC82E-60BD-407F-B427-18737B8D95A5";
paths = (
{
closed = 1;
nodes = (
"684 394 LINE",
"558 394 LINE",
"744 582 LINE",
"533 774 LINE",
"56 774 LINE",
"56 724 LINE",
"111 724 LINE",
"111 398 LINE",
"111 348 LINE",
"111 50 LINE",
"30 50 LINE",
"30 0 LINE",
"207 0 LINE",
"207 50 LINE",
"140 50 LINE",
"225 348 LINE",
"513 348 LINE",
"663 50 LINE",
"572 50 LINE",
"572 0 LINE",
"750 0 LINE",
"750 50 LINE",
"684 50 LINE"
);
},
{
closed = 1;
nodes = (
"522 724 LINE",
"522 398 LINE",
"239 398 LINE",
"333 724 LINE"
);
},
{
closed = 1;
nodes = (
"537 793 LINE",
"332 936 LINE",
"527 936 LINE"
);
},
{
closed = 1;
nodes = (
"311 793 LINE",
"106 936 LINE",
"301 936 LINE"
);
}
);
width = 780;
}
);
leftKerningGroup = R;
unicode = 0210;
},
{
color = 10;
glyphname = Rinvertedbreve;
lastChange = "2019-11-25 06:55:51 +0000";
layers = (
{
layerId = "E2EFC82E-60BD-407F-B427-18737B8D95A5";
paths = (
{
closed = 1;
nodes = (
"684 394 LINE",
"558 394 LINE",
"743 582 LINE",
"533 774 LINE",
"56 774 LINE",
"56 724 LINE",
"110 724 LINE",
"110 398 LINE",
"110 348 LINE",
"110 50 LINE",
"30 50 LINE",
"30 0 LINE",
"207 0 LINE",
"207 50 LINE",
"139 50 LINE",
"225 348 LINE",
"513 348 LINE",
"663 50 LINE",
"572 50 LINE",
"572 0 LINE",
"749 0 LINE",
"749 50 LINE",
"684 50 LINE"
);
},
{
closed = 1;
nodes = (
"521 724 LINE",
"521 398 LINE",
"239 398 LINE",
"333 724 LINE"
);
},
{
closed = 1;
nodes = (
"436 922 LINE",
"318 922 LINE",
"255 821 LINE",
"179 821 LINE",
"285 983 LINE",
"469 983 LINE",
"575 821 LINE",
"499 821 LINE"
);
}
);
width = 779;
}
);
leftKerningGroup = R;
unicode = 0212;
},
{
color = 11;
glyphname = S;
lastChange = "2019-11-25 06:55:57 +0000";
layers = (
{
layerId = "E2EFC82E-60BD-407F-B427-18737B8D95A5";
paths = (
{
closed = 1;
nodes = (
"522 432 LINE",
"252 432 LINE",
"252 724 LINE",
"480 724 LINE",
"620 546 LINE",
"620 800 LINE",
"580 800 LINE",
"580 774 LINE",
"232 774 LINE",
"30 594 LINE",
"244 382 LINE",
"512 382 LINE",
"512 50 LINE",
"232 50 LINE",
"92 229 LINE",
"92 -22 LINE",
"132 -22 LINE",
"132 0 LINE",
"524 0 LINE",
"735 234 LINE"
);
}
);
width = 765;
}
);
leftKerningGroup = S;
unicode = 0053;
},
{
color = 10;
glyphname = Sacute;
lastChange = "2019-11-25 06:55:57 +0000";
layers = (
{
layerId = "E2EFC82E-60BD-407F-B427-18737B8D95A5";
paths = (
{
closed = 1;
nodes = (
"522 432 LINE",
"252 432 LINE",
"252 724 LINE",
"480 724 LINE",
"620 546 LINE",
"620 800 LINE",
"580 800 LINE",
"580 774 LINE",
"232 774 LINE",
"30 594 LINE",
"244 382 LINE",
"512 382 LINE",
"512 50 LINE",
"231 50 LINE",
"92 228 LINE",
"92 -22 LINE",
"132 -22 LINE",
"132 0 LINE",
"524 0 LINE",
"734 233 LINE"
);
},
{
closed = 1;
nodes = (
"271 792 LINE",
"475 935 LINE",
"281 935 LINE"
);
}
);
width = 764;
}
);
leftKerningGroup = S;
unicode = 015A;
},
{
color = 10;
glyphname = Scaron;
lastChange = "2019-11-25 06:55:57 +0000";
layers = (
{
layerId = "E2EFC82E-60BD-407F-B427-18737B8D95A5";
paths = (
{
closed = 1;
nodes = (
"522 432 LINE",
"252 432 LINE",
"252 724 LINE",
"479 724 LINE",
"619 546 LINE",
"619 800 LINE",
"579 800 LINE",
"579 774 LINE",
"231 774 LINE",
"30 594 LINE",
"243 382 LINE",
"512 382 LINE",
"512 50 LINE",
"231 50 LINE",
"91 228 LINE",
"91 -22 LINE",
"131 -22 LINE",
"131 0 LINE",
"523 0 LINE",
"734 233 LINE"
);
},
{
closed = 1;
nodes = (
"579 951 LINE",
"397 907 LINE",
"214 951 LINE",
"397 804 LINE"
);
}
);
width = 764;
}
);
leftKerningGroup = S;
unicode = 0160;
},
{
color = 10;
glyphname = Scedilla;
lastChange = "2019-11-25 06:55:57 +0000";
layers = (
{
layerId = "E2EFC82E-60BD-407F-B427-18737B8D95A5";
paths = (
{
closed = 1;
nodes = (
"734 236 LINE",
"522 435 LINE",
"252 435 LINE",
"252 727 LINE",
"479 727 LINE",
"619 549 LINE",
"619 803 LINE",
"579 803 LINE",
"579 777 LINE",
"231 777 LINE",
"30 597 LINE",
"243 385 LINE",
"512 385 LINE",
"512 53 LINE",
"231 53 LINE",
"91 231 LINE",
"91 -19 LINE",
"131 -19 LINE",
"131 3 LINE",
"338 3 LINE",
"338 -95 LINE",
"459 -95 LINE",
"459 -138 LINE",
"292 -138 LINE",
"402 -222 LINE",
"507 -150 LINE",
"507 -77 LINE",
"384 -17 LINE",
"384 3 LINE",
"523 3 LINE"
);
}
);
width = 764;
}
);
leftKerningGroup = S;
unicode = 015E;
},
{
color = 10;
glyphname = Scircumflex;
lastChange = "2019-11-25 06:55:57 +0000";
layers = (
{
layerId = "E2EFC82E-60BD-407F-B427-18737B8D95A5";
paths = (
{
closed = 1;
nodes = (
"522 432 LINE",
"252 432 LINE",
"252 724 LINE",
"480 724 LINE",
"619 546 LINE",
"619 800 LINE",
"579 800 LINE",
"579 774 LINE",
"232 774 LINE",
"30 594 LINE",
"243 382 LINE",
"512 382 LINE",
"512 50 LINE",
"231 50 LINE",
"91 228 LINE",
"91 -22 LINE",
"131 -22 LINE",
"131 0 LINE",
"523 0 LINE",
"734 233 LINE"
);
},
{
closed = 1;
nodes = (
"548 804 LINE",
"365 849 LINE",
"183 804 LINE",
"365 951 LINE"
);
}
);
width = 764;
}
);
leftKerningGroup = S;
unicode = 015C;
},
{
color = 10;
glyphname = Scommaaccent;
lastChange = "2019-11-25 06:55:57 +0000";
layers = (
{
layerId = "E2EFC82E-60BD-407F-B427-18737B8D95A5";
paths = (
{
closed = 1;
nodes = (
"335 -231 LINE",
"339 -231 LINE",
"447 -58 LINE",
"335 -23 LINE"
);
},
{
closed = 1;
nodes = (
"522 432 LINE",
"252 432 LINE",
"252 724 LINE",
"479 724 LINE",
"619 546 LINE",
"619 801 LINE",
"579 801 LINE",
"579 775 LINE",
"231 774 LINE",
"30 594 LINE",
"243 382 LINE",
"512 382 LINE",
"512 50 LINE",
"231 50 LINE",
"91 229 LINE",
"91 -21 LINE",
"131 -21 LINE",
"131 0 LINE",
"523 0 LINE",
"734 234 LINE"
);
}
);
width = 764;
}
);
leftKerningGroup = S;
unicode = 0218;
},
{
color = 10;
glyphname = Germandbls;
lastChange = "2019-11-24 13:11:22 +0000";
layers = (
{
layerId = "E2EFC82E-60BD-407F-B427-18737B8D95A5";
paths = (
{
closed = 1;
nodes = (
"547 469 LINE",
"360 469 LINE",
"531 774 LINE",
"161 774 LINE",
"30 609 LINE",
"30 -52 LINE",
"252 723 LINE",
"338 723 LINE",
"338 418 LINE",
"526 418 LINE",
"526 49 LINE",
"252 49 LINE",
"163 159 LINE",
"163 0 LINE",
"548 0 LINE",
"765 273 LINE"
);
}
);
width = 795;
}
);
unicode = 1E9E;
},
{
color = 10;
glyphname = Schwa;
lastChange = "2019-11-24 13:11:22 +0000";
layers = (
{
layerId = "E2EFC82E-60BD-407F-B427-18737B8D95A5";
paths = (
{
closed = 1;
nodes = (
"222 724 LINE",
"513 724 LINE",
"513 487 LINE",
"227 487 LINE",
"30 0 LINE",
"528 0 LINE",
"720 387 LINE",
"534 774 LINE",
"107 774 LINE",
"107 553 LINE"
);
},
{
closed = 1;
nodes = (
"248 437 LINE",
"513 437 LINE",
"513 50 LINE",
"248 50 LINE"
);
}
);
width = 750;
}
);
unicode = 018F;
},
{
color = 11;
glyphname = T;
lastChange = "2019-11-25 06:56:08 +0000";
layers = (
{
layerId = "E2EFC82E-60BD-407F-B427-18737B8D95A5";
paths = (
{
closed = 1;
nodes = (
"593 774 LINE",
"71 774 LINE",
"71 800 LINE",
"30 800 LINE",
"30 546 LINE",
"170 724 LINE",
"224 724 LINE",
"304 50 LINE",
"225 50 LINE",
"225 0 LINE",
"407 0 LINE",
"407 50 LINE",
"333 50 LINE",
"446 724 LINE",
"494 724 LINE",
"633 546 LINE",
"633 800 LINE",
"593 800 LINE"
);
}
);
width = 663;
}
);
leftKerningGroup = T;
unicode = 0054;
},
{
color = 10;
glyphname = Tbar;
lastChange = "2019-11-25 06:56:08 +0000";
layers = (
{
layerId = "E2EFC82E-60BD-407F-B427-18737B8D95A5";
paths = (
{
closed = 1;
nodes = (
"633 546 LINE",
"633 800 LINE",
"593 800 LINE",
"593 774 LINE",
"70 774 LINE",
"70 800 LINE",
"30 800 LINE",
"30 546 LINE",
"170 724 LINE",
"224 724 LINE",
"258 436 LINE",
"109 436 LINE",
"189 337 LINE",
"268 351 LINE",
"303 50 LINE",
"224 50 LINE",
"224 0 LINE",
"406 0 LINE",
"406 50 LINE",
"332 50 LINE",
"387 373 LINE",
"519 397 LINE",
"549 436 LINE",
"397 436 LINE",
"446 724 LINE",
"494 724 LINE"
);
}
);
width = 663;
}
);
leftKerningGroup = T;
unicode = 0166;
},
{
color = 10;
glyphname = Tcaron;
lastChange = "2019-11-25 06:56:08 +0000";
layers = (
{
layerId = "E2EFC82E-60BD-407F-B427-18737B8D95A5";
paths = (
{
closed = 1;
nodes = (
"593 774 LINE",
"70 774 LINE",
"70 800 LINE",
"30 800 LINE",
"30 546 LINE",
"170 724 LINE",
"223 724 LINE",
"303 50 LINE",
"224 50 LINE",
"224 0 LINE",
"406 0 LINE",
"406 50 LINE",
"332 50 LINE",
"445 724 LINE",
"493 724 LINE",
"633 546 LINE",
"633 800 LINE",
"593 800 LINE"
);
},
{
closed = 1;
nodes = (
"514 951 LINE",
"331 907 LINE",
"149 951 LINE",
"331 804 LINE"
);
}
);
width = 663;
}
);
leftKerningGroup = T;
unicode = 0164;
},
{
color = 10;
glyphname = Tcedilla;
lastChange = "2019-11-25 06:56:08 +0000";
layers = (
{
layerId = "E2EFC82E-60BD-407F-B427-18737B8D95A5";
paths = (
{
closed = 1;
nodes = (
"593 774 LINE",
"70 774 LINE",
"70 800 LINE",
"30 800 LINE",
"30 546 LINE",
"170 724 LINE",
"224 724 LINE",
"304 50 LINE",
"225 50 LINE",
"225 0 LINE",
"294 0 LINE",
"294 -98 LINE",
"415 -98 LINE",
"415 -141 LINE",
"248 -141 LINE",
"358 -225 LINE",
"463 -153 LINE",
"463 -80 LINE",
"340 -20 LINE",
"340 0 LINE",
"407 0 LINE",
"407 50 LINE",
"333 50 LINE",
"446 724 LINE",
"494 724 LINE",
"633 546 LINE",
"633 800 LINE",
"593 800 LINE"
);
}
);
width = 663;
}
);
leftKerningGroup = T;
unicode = 0162;
},
{
color = 10;
glyphname = Tcommaaccent;
lastChange = "2019-11-25 06:56:08 +0000";
layers = (
{
layerId = "E2EFC82E-60BD-407F-B427-18737B8D95A5";
paths = (
{
closed = 1;
nodes = (
"593 775 LINE",
"70 775 LINE",
"70 801 LINE",
"30 801 LINE",
"30 546 LINE",
"169 724 LINE",
"223 724 LINE",
"303 50 LINE",
"224 50 LINE",
"224 0 LINE",
"406 0 LINE",
"406 50 LINE",
"332 50 LINE",
"445 724 LINE",
"493 724 LINE",
"633 546 LINE",
"633 801 LINE",
"593 801 LINE"
);
},
{
closed = 1;
nodes = (
"263 -231 LINE",
"267 -231 LINE",
"376 -58 LINE",
"263 -23 LINE"
);
}
);
width = 663;
}
);
leftKerningGroup = T;
unicode = 021A;
},
{
color = 11;
glyphname = U;
lastChange = "2019-11-24 13:11:22 +0000";
layers = (
{
layerId = "E2EFC82E-60BD-407F-B427-18737B8D95A5";
paths = (
{
closed = 1;
nodes = (
"404 774 LINE",
"612 50 LINE",
"130 50 LINE",
"338 774 LINE",
"30 774 LINE",
"30 724 LINE",
"101 724 LINE",
"101 0 LINE",
"641 0 LINE",
"641 724 LINE",
"700 724 LINE",
"700 774 LINE"
);
}
);
width = 730;
}
);
unicode = 0055;
},
{
color = 11;
glyphname = Uacute;
lastChange = "2019-11-25 06:56:19 +0000";
layers = (
{
layerId = "E2EFC82E-60BD-407F-B427-18737B8D95A5";
paths = (
{
closed = 1;
nodes = (
"324 792 LINE",
"529 935 LINE",
"324 935 LINE"
);
},
{
closed = 1;
nodes = (
"404 775 LINE",
"612 50 LINE",
"131 50 LINE",
"338 775 LINE",
"30 774 LINE",
"30 724 LINE",
"102 724 LINE",
"102 0 LINE",
"641 0 LINE",
"641 724 LINE",
"700 724 LINE",
"700 774 LINE"
);
}
);
width = 730;
}
);
leftKerningGroup = U;
unicode = 00DA;
},
{
color = 10;
glyphname = Ubreve;
lastChange = "2019-11-25 06:56:19 +0000";
layers = (
{
layerId = "E2EFC82E-60BD-407F-B427-18737B8D95A5";
paths = (
{
closed = 1;
nodes = (
"404 774 LINE",
"612 50 LINE",
"130 50 LINE",
"338 774 LINE",
"30 774 LINE",
"30 724 LINE",
"101 724 LINE",
"101 0 LINE",
"640 0 LINE",
"640 724 LINE",
"700 724 LINE",
"700 774 LINE"
);
},
{
closed = 1;
nodes = (
"424 882 LINE",
"306 882 LINE",
"243 983 LINE",
"166 983 LINE",
"272 821 LINE",
"457 821 LINE",
"563 983 LINE",
"487 983 LINE"
);
}
);
width = 730;
}
);
leftKerningGroup = U;
unicode = 016C;
},
{
color = 11;
glyphname = Ucircumflex;
lastChange = "2019-11-25 06:56:19 +0000";
layers = (
{
layerId = "E2EFC82E-60BD-407F-B427-18737B8D95A5";
paths = (
{
closed = 1;
nodes = (
"548 804 LINE",
"365 848 LINE",
"183 804 LINE",
"365 951 LINE"
);
},
{
closed = 1;
nodes = (
"405 775 LINE",
"612 50 LINE",
"131 50 LINE",
"338 775 LINE",
"30 774 LINE",
"30 724 LINE",
"102 724 LINE",
"102 0 LINE",
"641 0 LINE",
"641 724 LINE",
"700 724 LINE",
"700 774 LINE"
);
}
);
width = 730;
}
);
leftKerningGroup = U;
unicode = 00DB;
},
{
color = 10;
glyphname = Udblgrave;
lastChange = "2019-11-25 06:56:19 +0000";
layers = (
{
layerId = "E2EFC82E-60BD-407F-B427-18737B8D95A5";
paths = (
{
closed = 1;
nodes = (
"530 793 LINE",
"325 936 LINE",
"520 936 LINE"
);
},
{
closed = 1;
nodes = (
"304 793 LINE",
"99 936 LINE",
"294 936 LINE"
);
},
{
closed = 1;
nodes = (
"404 775 LINE",
"612 50 LINE",
"130 50 LINE",
"338 775 LINE",
"30 774 LINE",
"30 724 LINE",
"101 724 LINE",
"101 0 LINE",
"641 0 LINE",
"641 724 LINE",
"700 724 LINE",
"700 774 LINE"
);
}
);
width = 730;
}
);
leftKerningGroup = U;
unicode = 0214;
},
{
color = 11;
glyphname = Udieresis;
lastChange = "2019-11-25 06:56:19 +0000";
layers = (
{
layerId = "E2EFC82E-60BD-407F-B427-18737B8D95A5";
paths = (
{
closed = 1;
nodes = (
"197 825 LINE",
"322 825 LINE",
"322 950 LINE",
"197 950 LINE"
);
},
{
closed = 1;
nodes = (
"408 825 LINE",
"534 825 LINE",
"534 950 LINE",
"408 950 LINE"
);
},
{
closed = 1;
nodes = (
"404 775 LINE",
"612 50 LINE",
"130 50 LINE",
"338 775 LINE",
"30 774 LINE",
"30 724 LINE",
"101 724 LINE",
"101 0 LINE",
"641 0 LINE",
"641 724 LINE",
"700 724 LINE",
"700 774 LINE"
);
}
);
width = 730;
}
);
leftKerningGroup = U;
unicode = 00DC;
},
{
color = 10;
glyphname = Udotbelow;
lastChange = "2019-11-25 06:56:19 +0000";
layers = (
{
layerId = "E2EFC82E-60BD-407F-B427-18737B8D95A5";
paths = (
{
closed = 1;
nodes = (
"302 -164 LINE",
"427 -164 LINE",
"427 -39 LINE",
"302 -39 LINE"
);
},
{
closed = 1;
nodes = (
"404 774 LINE",
"612 50 LINE",
"130 50 LINE",
"338 774 LINE",
"30 774 LINE",
"30 723 LINE",
"101 723 LINE",
"101 0 LINE",
"641 0 LINE",
"641 723 LINE",
"700 723 LINE",
"700 774 LINE"
);
}
);
width = 730;
}
);
leftKerningGroup = U;
unicode = 1EE4;
},
{
color = 11;
glyphname = Ugrave;
lastChange = "2019-11-25 06:56:19 +0000";
layers = (
{
layerId = "E2EFC82E-60BD-407F-B427-18737B8D95A5";
paths = (
{
closed = 1;
nodes = (
"437 792 LINE",
"232 935 LINE",
"437 935 LINE"
);
},
{
closed = 1;
nodes = (
"404 775 LINE",
"611 50 LINE",
"130 50 LINE",
"338 775 LINE",
"30 774 LINE",
"30 724 LINE",
"101 724 LINE",
"101 0 LINE",
"640 0 LINE",
"640 724 LINE",
"700 724 LINE",
"700 774 LINE"
);
}
);
width = 730;
}
);
leftKerningGroup = U;
unicode = 00D9;
},
{
color = 10;
glyphname = Uhookabove;
lastChange = "2019-11-25 06:56:19 +0000";
layers = (
{
layerId = "E2EFC82E-60BD-407F-B427-18737B8D95A5";
paths = (
{
closed = 1;
nodes = (
"438 895 LINE",
"438 939 LINE",
"270 939 LINE",
"387 1022 LINE",
"485 961 LINE",
"485 877 LINE",
"391 839 LINE",
"391 796 LINE",
"345 796 LINE",
"345 895 LINE"
);
},
{
closed = 1;
nodes = (
"404 774 LINE",
"612 50 LINE",
"130 50 LINE",
"338 774 LINE",
"30 774 LINE",
"30 724 LINE",
"101 724 LINE",
"101 0 LINE",
"641 0 LINE",
"641 724 LINE",
"700 724 LINE",
"700 774 LINE"
);
}
);
width = 730;
}
);
leftKerningGroup = U;
unicode = 1EE6;
},
{
color = 10;
glyphname = Uhorn;
lastChange = "2019-11-25 06:56:19 +0000";
layers = (
{
layerId = "E2EFC82E-60BD-407F-B427-18737B8D95A5";
paths = (
{
closed = 1;
nodes = (
"709 683 LINE",
"640 683 LINE",
"640 774 LINE",
"404 775 LINE",
"611 50 LINE",
"130 50 LINE",
"337 775 LINE",
"30 774 LINE",
"30 724 LINE",
"101 724 LINE",
"101 0 LINE",
"640 0 LINE",
"640 613 LINE",
"790 613 LINE",
"790 810 LINE"
);
}
);
width = 820;
}
);
leftKerningGroup = U;
unicode = 01AF;
},
{
color = 10;
glyphname = Uhornacute;
lastChange = "2019-11-25 06:56:19 +0000";
layers = (
{
layerId = "E2EFC82E-60BD-407F-B427-18737B8D95A5";
paths = (
{
closed = 1;
nodes = (
"289 793 LINE",
"494 936 LINE",
"299 936 LINE"
);
},
{
closed = 1;
nodes = (
"709 683 LINE",
"640 683 LINE",
"640 774 LINE",
"404 775 LINE",
"611 50 LINE",
"130 50 LINE",
"337 775 LINE",
"30 774 LINE",
"30 724 LINE",
"101 724 LINE",
"101 0 LINE",
"640 0 LINE",
"640 613 LINE",
"791 613 LINE",
"791 810 LINE"
);
}
);
width = 821;
}
);
leftKerningGroup = U;
unicode = 1EE8;
},
{
color = 10;
glyphname = Uhorndotbelow;
lastChange = "2019-11-25 06:56:19 +0000";
layers = (
{
layerId = "E2EFC82E-60BD-407F-B427-18737B8D95A5";
paths = (
{
closed = 1;
nodes = (
"709 682 LINE",
"641 682 LINE",
"641 774 LINE",
"404 774 LINE",
"612 50 LINE",
"130 50 LINE",
"338 774 LINE",
"30 774 LINE",
"30 723 LINE",
"101 723 LINE",
"101 0 LINE",
"641 0 LINE",
"641 612 LINE",
"791 612 LINE",
"791 809 LINE"
);
},
{
closed = 1;
nodes = (
"424 -164 LINE",
"424 -39 LINE",
"298 -39 LINE",
"298 -164 LINE"
);
}
);
width = 821;
}
);
leftKerningGroup = U;
unicode = 1EF0;
},
{
color = 10;
glyphname = Uhorngrave;
lastChange = "2019-11-25 06:56:19 +0000";
layers = (
{
layerId = "E2EFC82E-60BD-407F-B427-18737B8D95A5";
paths = (
{
closed = 1;
nodes = (
"239 936 LINE",
"443 793 LINE",
"433 936 LINE"
);
},
{
closed = 1;
nodes = (
"709 683 LINE",
"641 683 LINE",
"641 774 LINE",
"404 775 LINE",
"612 50 LINE",
"130 50 LINE",
"338 775 LINE",
"30 774 LINE",
"30 724 LINE",
"101 724 LINE",
"101 0 LINE",
"641 0 LINE",
"641 613 LINE",
"791 613 LINE",
"791 810 LINE"
);
}
);
width = 821;
}
);
leftKerningGroup = U;
unicode = 1EEA;
},
{
color = 10;
glyphname = Uhornhookabove;
lastChange = "2019-11-25 06:56:19 +0000";
layers = (
{
layerId = "E2EFC82E-60BD-407F-B427-18737B8D95A5";
paths = (
{
closed = 1;
nodes = (
"341 895 LINE",
"341 796 LINE",
"387 796 LINE",
"387 839 LINE",
"482 877 LINE",
"482 961 LINE",
"384 1022 LINE",
"267 939 LINE",
"434 939 LINE",
"434 895 LINE"
);
},
{
closed = 1;
nodes = (
"710 682 LINE",
"641 682 LINE",
"641 774 LINE",
"404 774 LINE",
"612 50 LINE",
"130 50 LINE",
"338 774 LINE",
"30 774 LINE",
"30 724 LINE",
"102 724 LINE",
"102 0 LINE",
"641 0 LINE",
"641 612 LINE",
"791 612 LINE",
"791 810 LINE"
);
}
);
width = 821;
}
);
leftKerningGroup = U;
unicode = 1EEC;
},
{
color = 10;
glyphname = Uhorntilde;
lastChange = "2019-11-25 06:56:19 +0000";
layers = (
{
layerId = "E2EFC82E-60BD-407F-B427-18737B8D95A5";
paths = (
{
closed = 1;
nodes = (
"436 906 LINE",
"432 953 LINE",
"215 799 LINE",
"385 848 LINE",
"389 798 LINE",
"601 949 LINE"
);
},
{
closed = 1;
nodes = (
"404 775 LINE",
"612 50 LINE",
"130 50 LINE",
"338 775 LINE",
"30 774 LINE",
"30 724 LINE",
"101 724 LINE",
"101 0 LINE",
"641 0 LINE",
"641 774 LINE"
);
},
{
closed = 1;
nodes = (
"616 683 LINE",
"625 613 LINE",
"791 613 LINE",
"791 810 LINE",
"709 683 LINE"
);
}
);
width = 821;
}
);
leftKerningGroup = U;
unicode = 1EEE;
},
{
color = 10;
glyphname = Uhungarumlaut;
lastChange = "2019-11-25 06:56:19 +0000";
layers = (
{
layerId = "E2EFC82E-60BD-407F-B427-18737B8D95A5";
paths = (
{
closed = 1;
nodes = (
"405 774 LINE",
"612 50 LINE",
"131 50 LINE",
"338 774 LINE",
"30 774 LINE",
"30 724 LINE",
"102 724 LINE",
"102 0 LINE",
"641 0 LINE",
"641 724 LINE",
"700 724 LINE",
"700 774 LINE"
);
},
{
closed = 1;
nodes = (
"207 792 LINE",
"411 935 LINE",
"217 935 LINE"
);
},
{
closed = 1;
nodes = (
"433 792 LINE",
"638 935 LINE",
"443 935 LINE"
);
}
);
width = 730;
}
);
leftKerningGroup = U;
unicode = 0170;
},
{
color = 10;
glyphname = Uinvertedbreve;
lastChange = "2019-11-25 06:56:19 +0000";
layers = (
{
layerId = "E2EFC82E-60BD-407F-B427-18737B8D95A5";
paths = (
{
closed = 1;
nodes = (
"424 922 LINE",
"306 922 LINE",
"243 821 LINE",
"166 821 LINE",
"272 983 LINE",
"457 983 LINE",
"563 821 LINE",
"486 821 LINE"
);
},
{
closed = 1;
nodes = (
"404 775 LINE",
"611 50 LINE",
"130 50 LINE",
"337 775 LINE",
"30 774 LINE",
"30 724 LINE",
"101 724 LINE",
"101 0 LINE",
"640 0 LINE",
"640 724 LINE",
"700 724 LINE",
"700 774 LINE"
);
}
);
width = 730;
}
);
leftKerningGroup = U;
unicode = 0216;
},
{
color = 10;
glyphname = Umacron;
lastChange = "2019-11-25 06:56:19 +0000";
layers = (
{
layerId = "E2EFC82E-60BD-407F-B427-18737B8D95A5";
paths = (
{
closed = 1;
nodes = (
"404 774 LINE",
"612 50 LINE",
"130 50 LINE",
"338 774 LINE",
"30 774 LINE",
"30 724 LINE",
"101 724 LINE",
"101 0 LINE",
"641 0 LINE",
"641 724 LINE",
"700 724 LINE",
"700 774 LINE"
);
},
{
closed = 1;
nodes = (
"581 933 LINE",
"551 894 LINE",
"222 834 LINE",
"142 933 LINE"
);
}
);
width = 730;
}
);
leftKerningGroup = U;
unicode = 016A;
},
{
color = 10;
glyphname = Uogonek;
lastChange = "2019-11-25 10:54:44 +0000";
layers = (
{
layerId = "E2EFC82E-60BD-407F-B427-18737B8D95A5";
paths = (
{
closed = 1;
nodes = (
"612 50 LINE",
"130 50 LINE",
"338 774 LINE",
"30 774 LINE",
"30 724 LINE",
"101 724 LINE",
"101 0 LINE",
"337 0 LINE",
"287 -225 LINE",
"502 -109 LINE",
"371 -109 LINE",
"398 0 LINE",
"641 0 LINE",
"641 724 LINE",
"700 724 LINE",
"700 774 LINE",
"404 774 LINE"
);
}
);
width = 730;
}
);
leftKerningGroup = U;
unicode = 0172;
},
{
color = 10;
glyphname = Uring;
lastChange = "2019-11-25 06:56:19 +0000";
layers = (
{
layerId = "E2EFC82E-60BD-407F-B427-18737B8D95A5";
paths = (
{
closed = 1;
nodes = (
"248 814 LINE",
"481 814 LINE",
"481 983 LINE",
"248 983 LINE"
);
},
{
closed = 1;
nodes = (
"298 864 LINE",
"298 933 LINE",
"431 933 LINE",
"431 864 LINE"
);
},
{
closed = 1;
nodes = (
"404 774 LINE",
"611 50 LINE",
"130 50 LINE",
"337 774 LINE",
"30 774 LINE",
"30 724 LINE",
"101 724 LINE",
"101 0 LINE",
"640 0 LINE",
"640 724 LINE",
"699 724 LINE",
"699 774 LINE"
);
}
);
width = 729;
}
);
leftKerningGroup = U;
unicode = 016E;
},
{
color = 10;
glyphname = Utilde;
lastChange = "2019-11-25 06:56:19 +0000";
layers = (
{
layerId = "E2EFC82E-60BD-407F-B427-18737B8D95A5";
paths = (
{
closed = 1;
nodes = (
"404 774 LINE",
"612 50 LINE",
"130 50 LINE",
"338 774 LINE",
"30 774 LINE",
"30 724 LINE",
"101 724 LINE",
"101 0 LINE",
"641 0 LINE",
"641 724 LINE",
"700 724 LINE",
"700 774 LINE"
);
},
{
closed = 1;
nodes = (
"418 906 LINE",
"414 953 LINE",
"197 798 LINE",
"367 847 LINE",
"371 798 LINE",
"583 949 LINE"
);
}
);
width = 730;
}
);
leftKerningGroup = U;
unicode = 0168;
},
{
color = 11;
glyphname = V;
lastChange = "2019-11-25 00:50:13 +0000";
layers = (
{
layerId = "E2EFC82E-60BD-407F-B427-18737B8D95A5";
paths = (
{
closed = 1;
nodes = (
"357 774 LINE",
"357 724 LINE",
"418 724 LINE",
"418 50 LINE",
"267 50 LINE",
"267 724 LINE",
"315 724 LINE",
"315 774 LINE",
"30 774 LINE",
"252 0 LINE",
"433 0 LINE",
"655 774 LINE"
);
}
);
width = 685;
}
);
leftKerningGroup = V;
unicode = 0056;
},
{
color = 11;
glyphname = W;
lastChange = "2019-11-25 06:56:28 +0000";
layers = (
{
layerId = "E2EFC82E-60BD-407F-B427-18737B8D95A5";
paths = (
{
closed = 1;
nodes = (
"735 774 LINE",
"735 724 LINE",
"835 724 LINE",
"835 50 LINE",
"552 50 LINE",
"669 774 LINE",
"432 774 LINE",
"523 50 LINE",
"266 50 LINE",
"266 724 LINE",
"366 724 LINE",
"366 774 LINE",
"30 774 LINE",
"251 0 LINE",
"850 0 LINE",
"1072 774 LINE"
);
}
);
width = 1102;
}
);
leftKerningGroup = W;
unicode = 0057;
},
{
color = 10;
glyphname = Wacute;
lastChange = "2019-11-25 06:56:28 +0000";
layers = (
{
layerId = "E2EFC82E-60BD-407F-B427-18737B8D95A5";
paths = (
{
closed = 1;
nodes = (
"736 774 LINE",
"736 724 LINE",
"836 724 LINE",
"836 50 LINE",
"553 50 LINE",
"670 775 LINE",
"433 775 LINE",
"524 50 LINE",
"267 50 LINE",
"267 724 LINE",
"367 724 LINE",
"367 774 LINE",
"30 775 LINE",
"252 0 LINE",
"850 0 LINE",
"1072 775 LINE"
);
},
{
closed = 1;
nodes = (
"485 793 LINE",
"690 936 LINE",
"495 936 LINE"
);
}
);
width = 1102;
}
);
leftKerningGroup = W;
unicode = 1E82;
},
{
color = 10;
glyphname = Wcircumflex;
lastChange = "2019-11-25 06:56:28 +0000";
layers = (
{
layerId = "E2EFC82E-60BD-407F-B427-18737B8D95A5";
paths = (
{
closed = 1;
nodes = (
"736 774 LINE",
"736 724 LINE",
"836 724 LINE",
"836 50 LINE",
"553 50 LINE",
"669 774 LINE",
"433 774 LINE",
"524 50 LINE",
"267 50 LINE",
"267 724 LINE",
"367 724 LINE",
"367 774 LINE",
"30 774 LINE",
"252 0 LINE",
"850 0 LINE",
"1072 774 LINE"
);
},
{
closed = 1;
nodes = (
"733 804 LINE",
"551 849 LINE",
"369 804 LINE",
"551 951 LINE"
);
}
);
width = 1102;
}
);
leftKerningGroup = W;
unicode = 0174;
},
{
color = 10;
glyphname = Wdieresis;
lastChange = "2019-11-25 06:56:28 +0000";
layers = (
{
layerId = "E2EFC82E-60BD-407F-B427-18737B8D95A5";
paths = (
{
closed = 1;
nodes = (
"736 774 LINE",
"736 724 LINE",
"836 724 LINE",
"836 50 LINE",
"553 50 LINE",
"670 774 LINE",
"433 774 LINE",
"524 50 LINE",
"267 50 LINE",
"267 724 LINE",
"367 724 LINE",
"367 774 LINE",
"30 774 LINE",
"252 0 LINE",
"851 0 LINE",
"1073 774 LINE"
);
},
{
closed = 1;
nodes = (
"383 826 LINE",
"508 826 LINE",
"508 951 LINE",
"383 951 LINE"
);
},
{
closed = 1;
nodes = (
"595 826 LINE",
"720 826 LINE",
"720 951 LINE",
"595 951 LINE"
);
}
);
width = 1103;
}
);
leftKerningGroup = W;
unicode = 1E84;
},
{
color = 10;
glyphname = Wgrave;
lastChange = "2019-11-25 06:56:28 +0000";
layers = (
{
layerId = "E2EFC82E-60BD-407F-B427-18737B8D95A5";
paths = (
{
closed = 1;
nodes = (
"735 774 LINE",
"735 724 LINE",
"835 724 LINE",
"835 50 LINE",
"552 50 LINE",
"669 775 LINE",
"432 775 LINE",
"523 50 LINE",
"266 50 LINE",
"266 724 LINE",
"366 724 LINE",
"366 774 LINE",
"30 775 LINE",
"251 0 LINE",
"850 0 LINE",
"1072 775 LINE"
);
},
{
closed = 1;
nodes = (
"622 793 LINE",
"417 936 LINE",
"612 936 LINE"
);
}
);
width = 1102;
}
);
leftKerningGroup = W;
unicode = 1E80;
},
{
color = 11;
glyphname = X;
lastChange = "2019-11-25 06:56:33 +0000";
layers = (
{
layerId = "E2EFC82E-60BD-407F-B427-18737B8D95A5";
paths = (
{
closed = 1;
nodes = (
"378 394 LINE",
"644 774 LINE",
"379 774 LINE",
"379 724 LINE",
"414 724 LINE",
"308 489 LINE",
"308 774 LINE",
"39 774 LINE",
"288 443 LINE",
"112 50 LINE",
"30 50 LINE",
"30 0 LINE",
"207 0 LINE",
"207 50 LINE",
"137 50 LINE",
"366 376 LINE",
"366 0 LINE",
"646 0 LINE"
);
}
);
width = 676;
}
);
leftKerningGroup = X;
unicode = 0058;
},
{
color = 11;
glyphname = Y;
lastChange = "2019-11-25 06:56:38 +0000";
layers = (
{
layerId = "E2EFC82E-60BD-407F-B427-18737B8D95A5";
paths = (
{
closed = 1;
nodes = (
"661 774 LINE",
"374 774 LINE",
"374 724 LINE",
"446 724 LINE",
"446 406 LINE",
"244 406 LINE",
"244 724 LINE",
"312 724 LINE",
"312 774 LINE",
"30 774 LINE",
"242 398 LINE",
"314 50 LINE",
"244 50 LINE",
"244 0 LINE",
"427 0 LINE",
"427 50 LINE",
"349 50 LINE",
"450 405 LINE"
);
}
);
width = 691;
}
);
leftKerningGroup = Y;
unicode = 0059;
},
{
color = 11;
glyphname = Yacute;
lastChange = "2019-11-25 06:56:38 +0000";
layers = (
{
layerId = "E2EFC82E-60BD-407F-B427-18737B8D95A5";
paths = (
{
closed = 1;
nodes = (
"296 792 LINE",
"501 935 LINE",
"296 935 LINE"
);
},
{
closed = 1;
nodes = (
"661 775 LINE",
"374 774 LINE",
"374 724 LINE",
"446 724 LINE",
"446 406 LINE",
"244 406 LINE",
"244 724 LINE",
"312 724 LINE",
"312 774 LINE",
"30 775 LINE",
"242 398 LINE",
"314 50 LINE",
"244 50 LINE",
"244 0 LINE",
"427 0 LINE",
"427 50 LINE",
"349 50 LINE",
"450 405 LINE"
);
}
);
width = 691;
}
);
leftKerningGroup = Y;
unicode = 00DD;
},
{
color = 10;
glyphname = Ycircumflex;
lastChange = "2019-11-25 06:56:38 +0000";
layers = (
{
layerId = "E2EFC82E-60BD-407F-B427-18737B8D95A5";
paths = (
{
closed = 1;
nodes = (
"661 774 LINE",
"374 774 LINE",
"374 724 LINE",
"446 724 LINE",
"446 405 LINE",
"244 405 LINE",
"244 724 LINE",
"312 724 LINE",
"312 774 LINE",
"30 774 LINE",
"242 398 LINE",
"314 50 LINE",
"244 50 LINE",
"244 0 LINE",
"426 0 LINE",
"426 50 LINE",
"349 50 LINE",
"449 405 LINE"
);
},
{
closed = 1;
nodes = (
"528 804 LINE",
"346 849 LINE",
"163 804 LINE",
"346 951 LINE"
);
}
);
width = 691;
}
);
leftKerningGroup = Y;
unicode = 0176;
},
{
color = 10;
glyphname = Ydieresis;
lastChange = "2019-11-25 06:56:38 +0000";
layers = (
{
layerId = "E2EFC82E-60BD-407F-B427-18737B8D95A5";
paths = (
{
closed = 1;
nodes = (
"661 774 LINE",
"374 774 LINE",
"374 724 LINE",
"446 724 LINE",
"446 405 LINE",
"245 405 LINE",
"245 724 LINE",
"313 724 LINE",
"313 774 LINE",
"30 774 LINE",
"242 398 LINE",
"314 50 LINE",
"245 50 LINE",
"245 0 LINE",
"427 0 LINE",
"427 50 LINE",
"349 50 LINE",
"450 405 LINE"
);
},
{
closed = 1;
nodes = (
"177 826 LINE",
"303 826 LINE",
"303 951 LINE",
"177 951 LINE"
);
},
{
closed = 1;
nodes = (
"389 826 LINE",
"514 826 LINE",
"514 951 LINE",
"389 951 LINE"
);
}
);
width = 691;
}
);
leftKerningGroup = Y;
unicode = 0178;
},
{
color = 10;
glyphname = Ydotbelow;
lastChange = "2019-11-25 06:56:38 +0000";
layers = (
{
layerId = "E2EFC82E-60BD-407F-B427-18737B8D95A5";
paths = (
{
closed = 1;
nodes = (
"283 -164 LINE",
"408 -164 LINE",
"408 -39 LINE",
"283 -39 LINE"
);
},
{
closed = 1;
nodes = (
"661 774 LINE",
"374 774 LINE",
"374 723 LINE",
"446 723 LINE",
"446 405 LINE",
"244 405 LINE",
"244 723 LINE",
"312 723 LINE",
"312 774 LINE",
"30 774 LINE",
"242 397 LINE",
"314 50 LINE",
"244 50 LINE",
"244 0 LINE",
"426 0 LINE",
"426 50 LINE",
"349 50 LINE",
"450 404 LINE"
);
}
);
width = 691;
}
);
leftKerningGroup = Y;
unicode = 1EF4;
},
{
color = 10;
glyphname = Ygrave;
lastChange = "2019-11-25 10:55:06 +0000";
layers = (
{
layerId = "E2EFC82E-60BD-407F-B427-18737B8D95A5";
paths = (
{
closed = 1;
nodes = (
"422 793 LINE",
"217 936 LINE",
"412 936 LINE"
);
},
{
closed = 1;
nodes = (
"661 775 LINE",
"374 774 LINE",
"374 724 LINE",
"446 724 LINE",
"446 406 LINE",
"244 406 LINE",
"244 724 LINE",
"312 724 LINE",
"312 774 LINE",
"30 775 LINE",
"242 398 LINE",
"314 50 LINE",
"244 50 LINE",
"244 0 LINE",
"426 0 LINE",
"426 50 LINE",
"349 50 LINE",
"450 405 LINE"
);
}
);
width = 691;
}
);
leftKerningGroup = Y;
unicode = 1EF2;
},
{
color = 10;
glyphname = Yhookabove;
lastChange = "2019-11-25 06:56:38 +0000";
layers = (
{
layerId = "E2EFC82E-60BD-407F-B427-18737B8D95A5";
paths = (
{
closed = 1;
nodes = (
"414 895 LINE",
"414 939 LINE",
"247 939 LINE",
"364 1022 LINE",
"462 961 LINE",
"462 877 LINE",
"367 839 LINE",
"367 796 LINE",
"321 796 LINE",
"321 895 LINE"
);
},
{
closed = 1;
nodes = (
"661 774 LINE",
"374 774 LINE",
"374 724 LINE",
"446 724 LINE",
"446 406 LINE",
"244 406 LINE",
"244 724 LINE",
"312 724 LINE",
"312 774 LINE",
"30 774 LINE",
"242 398 LINE",
"314 50 LINE",
"244 50 LINE",
"244 0 LINE",
"426 0 LINE",
"426 50 LINE",
"349 50 LINE",
"449 405 LINE"
);
}
);
width = 691;
}
);
leftKerningGroup = Y;
unicode = 1EF6;
},
{
color = 10;
glyphname = Ymacron;
lastChange = "2019-11-25 06:56:38 +0000";
layers = (
{
layerId = "E2EFC82E-60BD-407F-B427-18737B8D95A5";
paths = (
{
closed = 1;
nodes = (
"661 774 LINE",
"374 774 LINE",
"374 724 LINE",
"445 724 LINE",
"445 406 LINE",
"244 406 LINE",
"244 724 LINE",
"312 724 LINE",
"312 774 LINE",
"30 774 LINE",
"241 398 LINE",
"313 50 LINE",
"244 50 LINE",
"244 0 LINE",
"426 0 LINE",
"426 50 LINE",
"348 50 LINE",
"449 405 LINE"
);
},
{
closed = 1;
nodes = (
"547 934 LINE",
"517 894 LINE",
"188 834 LINE",
"108 934 LINE"
);
}
);
width = 691;
}
);
leftKerningGroup = Y;
unicode = 0232;
},
{
color = 10;
glyphname = Ytilde;
lastChange = "2019-11-25 06:56:38 +0000";
layers = (
{
layerId = "E2EFC82E-60BD-407F-B427-18737B8D95A5";
paths = (
{
closed = 1;
nodes = (
"404 906 LINE",
"400 953 LINE",
"184 799 LINE",
"354 848 LINE",
"357 798 LINE",
"570 949 LINE"
);
},
{
closed = 1;
nodes = (
"661 775 LINE",
"374 774 LINE",
"374 724 LINE",
"445 724 LINE",
"445 406 LINE",
"244 406 LINE",
"244 724 LINE",
"312 724 LINE",
"312 774 LINE",
"30 775 LINE",
"241 398 LINE",
"313 50 LINE",
"244 50 LINE",
"244 0 LINE",
"426 0 LINE",
"426 50 LINE",
"348 50 LINE",
"449 405 LINE"
);
}
);
width = 691;
}
);
leftKerningGroup = Y;
unicode = 1EF8;
},
{
color = 11;
glyphname = Z;
lastChange = "2019-11-25 06:56:44 +0000";
layers = (
{
layerId = "E2EFC82E-60BD-407F-B427-18737B8D95A5";
paths = (
{
closed = 1;
nodes = (
"314 431 LINE",
"565 774 LINE",
"70 774 LINE",
"70 800 LINE",
"30 800 LINE",
"30 546 LINE",
"170 724 LINE",
"314 724 LINE",
"314 436 LINE",
"33 0 LINE",
"476 0 LINE",
"476 -22 LINE",
"516 -22 LINE",
"516 229 LINE",
"376 50 LINE",
"314 50 LINE"
);
}
);
width = 595;
}
);
leftKerningGroup = Z;
unicode = 005A;
},
{
color = 10;
glyphname = Zacute;
lastChange = "2019-11-25 06:56:44 +0000";
layers = (
{
layerId = "E2EFC82E-60BD-407F-B427-18737B8D95A5";
paths = (
{
closed = 1;
nodes = (
"313 431 LINE",
"564 774 LINE",
"70 774 LINE",
"70 800 LINE",
"30 800 LINE",
"30 546 LINE",
"169 724 LINE",
"313 724 LINE",
"313 436 LINE",
"33 0 LINE",
"476 0 LINE",
"476 -22 LINE",
"516 -22 LINE",
"516 228 LINE",
"376 50 LINE",
"313 50 LINE"
);
},
{
closed = 1;
nodes = (
"218 792 LINE",
"423 935 LINE",
"228 935 LINE"
);
}
);
width = 594;
}
);
leftKerningGroup = Z;
unicode = 0179;
},
{
color = 10;
glyphname = Zcaron;
lastChange = "2019-11-25 06:56:44 +0000";
layers = (
{
layerId = "E2EFC82E-60BD-407F-B427-18737B8D95A5";
paths = (
{
closed = 1;
nodes = (
"313 431 LINE",
"565 774 LINE",
"70 774 LINE",
"70 800 LINE",
"30 800 LINE",
"30 546 LINE",
"169 724 LINE",
"313 724 LINE",
"313 436 LINE",
"33 0 LINE",
"476 0 LINE",
"476 -22 LINE",
"516 -22 LINE",
"516 228 LINE",
"376 50 LINE",
"313 50 LINE"
);
},
{
closed = 1;
nodes = (
"469 951 LINE",
"287 907 LINE",
"105 951 LINE",
"287 804 LINE"
);
}
);
width = 595;
}
);
leftKerningGroup = Z;
unicode = 017D;
},
{
color = 10;
glyphname = Zdotaccent;
lastChange = "2019-11-25 06:56:44 +0000";
layers = (
{
layerId = "E2EFC82E-60BD-407F-B427-18737B8D95A5";
paths = (
{
closed = 1;
nodes = (
"313 431 LINE",
"564 774 LINE",
"70 774 LINE",
"70 800 LINE",
"30 800 LINE",
"30 546 LINE",
"169 724 LINE",
"313 724 LINE",
"313 436 LINE",
"33 0 LINE",
"476 0 LINE",
"476 -22 LINE",
"516 -22 LINE",
"516 228 LINE",
"376 50 LINE",
"313 50 LINE"
);
},
{
closed = 1;
nodes = (
"209 826 LINE",
"334 826 LINE",
"334 951 LINE",
"209 951 LINE"
);
}
);
width = 594;
}
);
leftKerningGroup = Z;
unicode = 017B;
},
{
color = 5;
glyphname = A.full;
lastChange = "2019-11-24 06:17:34 +0000";
layers = (
{
layerId = "E2EFC82E-60BD-407F-B427-18737B8D95A5";
paths = (
{
closed = 1;
nodes = (
"805 50 LINE",
"634 774 LINE",
"265 774 LINE",
"265 724 LINE",
"342 724 LINE",
"205 50 LINE",
"124 50 LINE",
"124 0 LINE",
"306 0 LINE",
"306 50 LINE",
"227 50 LINE",
"343 330 LINE",
"636 330 LINE",
"778 50 LINE",
"695 50 LINE",
"695 0 LINE",
"877 0 LINE",
"877 50 LINE"
);
},
{
closed = 1;
nodes = (
"475 646 LINE",
"610 380 LINE",
"364 380 LINE"
);
}
);
width = 1000;
}
);
unicode = FF21;
},
{
color = 5;
glyphname = B.full;
lastChange = "2019-11-24 06:17:34 +0000";
layers = (
{
layerId = "E2EFC82E-60BD-407F-B427-18737B8D95A5";
paths = (
{
closed = 1;
nodes = (
"650 432 LINE",
"793 594 LINE",
"629 774 LINE",
"158 774 LINE",
"158 724 LINE",
"217 724 LINE",
"217 50 LINE",
"158 50 LINE",
"158 0 LINE",
"659 0 LINE",
"868 228 LINE"
);
},
{
closed = 1;
nodes = (
"599 724 LINE",
"599 432 LINE",
"355 432 LINE",
"439 724 LINE"
);
},
{
closed = 1;
nodes = (
"640 382 LINE",
"640 50 LINE",
"246 50 LINE",
"341 382 LINE"
);
}
);
width = 1000;
}
);
unicode = FF22;
},
{
color = 5;
glyphname = C.full;
lastChange = "2019-11-24 06:17:34 +0000";
layers = (
{
layerId = "E2EFC82E-60BD-407F-B427-18737B8D95A5";
paths = (
{
closed = 1;
nodes = (
"804 546 LINE",
"803 800 LINE",
"763 800 LINE",
"763 774 LINE",
"366 774 LINE",
"145 409 LINE",
"366 0 LINE",
"804 0 LINE",
"804 50 LINE",
"379 50 LINE",
"379 724 LINE",
"664 724 LINE"
);
}
);
width = 1000;
}
);
unicode = FF23;
},
{
color = 5;
glyphname = D.full;
lastChange = "2019-11-24 06:17:34 +0000";
layers = (
{
layerId = "E2EFC82E-60BD-407F-B427-18737B8D95A5";
paths = (
{
closed = 1;
nodes = (
"682 774 LINE",
"149 774 LINE",
"149 724 LINE",
"198 724 LINE",
"198 50 LINE",
"149 50 LINE",
"149 0 LINE",
"682 0 LINE",
"904 409 LINE"
);
},
{
closed = 1;
nodes = (
"420 724 LINE",
"669 724 LINE",
"669 50 LINE",
"227 50 LINE"
);
}
);
width = 1000;
}
);
unicode = FF24;
},
{
color = 5;
glyphname = E.full;
lastChange = "2019-11-24 06:17:34 +0000";
layers = (
{
layerId = "E2EFC82E-60BD-407F-B427-18737B8D95A5";
paths = (
{
closed = 1;
nodes = (
"638 724 LINE",
"777 546 LINE",
"778 800 LINE",
"738 800 LINE",
"738 774 LINE",
"231 774 LINE",
"231 724 LINE",
"272 724 LINE",
"272 50 LINE",
"218 50 LINE",
"218 0 LINE",
"738 0 LINE",
"738 -24 LINE",
"778 -24 LINE",
"777 229 LINE",
"638 50 LINE",
"301 50 LINE",
"396 382 LINE",
"700 382 LINE",
"700 332 LINE",
"740 332 LINE",
"740 482 LINE",
"700 482 LINE",
"700 432 LINE",
"411 432 LINE",
"494 724 LINE"
);
}
);
width = 1000;
}
);
unicode = FF25;
},
{
color = 5;
glyphname = F.full;
lastChange = "2019-11-24 06:17:34 +0000";
layers = (
{
layerId = "E2EFC82E-60BD-407F-B427-18737B8D95A5";
paths = (
{
closed = 1;
nodes = (
"669 724 LINE",
"808 546 LINE",
"808 800 LINE",
"768 800 LINE",
"768 774 LINE",
"262 774 LINE",
"262 724 LINE",
"314 724 LINE",
"314 50 LINE",
"241 50 LINE",
"241 0 LINE",
"418 0 LINE",
"418 50 LINE",
"343 50 LINE",
"438 382 LINE",
"701 382 LINE",
"701 332 LINE",
"741 332 LINE",
"741 482 LINE",
"701 482 LINE",
"701 432 LINE",
"452 432 LINE",
"536 724 LINE"
);
}
);
width = 1000;
}
);
unicode = FF26;
},
{
color = 5;
glyphname = G.full;
lastChange = "2019-11-24 06:17:34 +0000";
layers = (
{
layerId = "E2EFC82E-60BD-407F-B427-18737B8D95A5";
paths = (
{
closed = 1;
nodes = (
"655 411 LINE",
"655 50 LINE",
"366 50 LINE",
"366 724 LINE",
"662 724 LINE",
"801 546 LINE",
"801 801 LINE",
"761 801 LINE",
"761 774 LINE",
"351 774 LINE",
"129 409 LINE",
"351 0 LINE",
"669 0 LINE",
"870 411 LINE"
);
}
);
width = 1000;
}
);
unicode = FF27;
},
{
color = 5;
glyphname = H.full;
lastChange = "2019-11-24 06:17:34 +0000";
layers = (
{
layerId = "E2EFC82E-60BD-407F-B427-18737B8D95A5";
paths = (
{
closed = 1;
nodes = (
"765 50 LINE",
"765 724 LINE",
"814 724 LINE",
"814 774 LINE",
"528 774 LINE",
"625 438 LINE",
"366 438 LINE",
"462 774 LINE",
"172 774 LINE",
"172 724 LINE",
"225 724 LINE",
"225 50 LINE",
"150 50 LINE",
"150 0 LINE",
"332 0 LINE",
"332 50 LINE",
"254 50 LINE",
"351 388 LINE",
"639 388 LINE",
"736 50 LINE",
"669 50 LINE",
"669 0 LINE",
"851 0 LINE",
"851 50 LINE"
);
}
);
width = 1000;
}
);
unicode = FF28;
},
{
color = 5;
glyphname = I.full;
lastChange = "2019-11-24 06:17:34 +0000";
layers = (
{
layerId = "E2EFC82E-60BD-407F-B427-18737B8D95A5";
paths = (
{
closed = 1;
nodes = (
"355 774 LINE",
"355 724 LINE",
"411 724 LINE",
"411 0 LINE",
"616 0 LINE",
"441 162 LINE",
"644 774 LINE"
);
}
);
width = 1000;
}
);
unicode = FF29;
},
{
color = 5;
glyphname = J.full;
lastChange = "2019-11-24 06:17:34 +0000";
layers = (
{
layerId = "E2EFC82E-60BD-407F-B427-18737B8D95A5";
paths = (
{
closed = 1;
nodes = (
"366 774 LINE",
"571 155 LINE",
"457 14 LINE",
"337 155 LINE",
"337 0 LINE",
"598 0 LINE",
"598 724 LINE",
"662 724 LINE",
"662 774 LINE"
);
}
);
width = 1000;
}
);
unicode = FF2A;
},
{
color = 5;
glyphname = K.full;
lastChange = "2019-11-24 06:17:34 +0000";
layers = (
{
layerId = "E2EFC82E-60BD-407F-B427-18737B8D95A5";
paths = (
{
closed = 1;
nodes = (
"767 436 LINE",
"595 436 LINE",
"817 774 LINE",
"538 774 LINE",
"538 724 LINE",
"580 724 LINE",
"580 438 LINE",
"380 438 LINE",
"477 774 LINE",
"187 774 LINE",
"187 724 LINE",
"240 724 LINE",
"240 50 LINE",
"165 50 LINE",
"165 0 LINE",
"347 0 LINE",
"347 50 LINE",
"269 50 LINE",
"366 388 LINE",
"579 388 LINE",
"747 50 LINE",
"652 50 LINE",
"652 0 LINE",
"834 0 LINE",
"834 50 LINE",
"767 50 LINE"
);
}
);
width = 1000;
}
);
unicode = FF2B;
},
{
color = 5;
glyphname = L.full;
lastChange = "2019-11-24 06:17:34 +0000";
layers = (
{
layerId = "E2EFC82E-60BD-407F-B427-18737B8D95A5";
paths = (
{
closed = 1;
nodes = (
"352 50 LINE",
"560 774 LINE",
"255 774 LINE",
"255 724 LINE",
"323 724 LINE",
"323 50 LINE",
"255 50 LINE",
"255 0 LINE",
"728 0 LINE",
"728 -23 LINE",
"768 -23 LINE",
"768 0 LINE",
"768 229 LINE",
"628 50 LINE"
);
}
);
width = 1000;
}
);
unicode = FF2C;
},
{
color = 5;
glyphname = M.full;
lastChange = "2019-11-24 06:17:34 +0000";
layers = (
{
layerId = "E2EFC82E-60BD-407F-B427-18737B8D95A5";
paths = (
{
closed = 1;
nodes = (
"909 50 LINE",
"909 774 LINE",
"23 774 LINE",
"23 724 LINE",
"108 724 LINE",
"108 50 LINE",
"48 50 LINE",
"48 0 LINE",
"226 0 LINE",
"226 50 LINE",
"137 50 LINE",
"330 724 LINE",
"396 724 LINE",
"481 50 LINE",
"409 50 LINE",
"409 0 LINE",
"586 0 LINE",
"586 50 LINE",
"510 50 LINE",
"618 724 LINE",
"687 724 LINE",
"880 50 LINE",
"800 50 LINE",
"800 0 LINE",
"977 0 LINE",
"977 50 LINE"
);
}
);
width = 1000;
}
);
unicode = FF2D;
},
{
color = 5;
glyphname = N.full;
lastChange = "2019-11-24 06:17:34 +0000";
layers = (
{
layerId = "E2EFC82E-60BD-407F-B427-18737B8D95A5";
paths = (
{
closed = 1;
nodes = (
"344 774 LINE",
"166 774 LINE",
"166 724 LINE",
"248 724 LINE",
"248 50 LINE",
"181 50 LINE",
"181 0 LINE",
"536 0 LINE",
"276 724 LINE",
"344 724 LINE"
);
},
{
closed = 1;
nodes = (
"750 724 LINE",
"814 724 LINE",
"814 774 LINE",
"445 774 LINE",
"722 50 LINE",
"653 50 LINE",
"653 0 LINE",
"835 0 LINE",
"835 50 LINE",
"750 50 LINE"
);
}
);
width = 1000;
}
);
unicode = FF2E;
},
{
color = 5;
glyphname = O.full;
lastChange = "2019-11-24 06:17:34 +0000";
layers = (
{
layerId = "E2EFC82E-60BD-407F-B427-18737B8D95A5";
paths = (
{
closed = 1;
nodes = (
"678 774 LINE",
"320 774 LINE",
"106 409 LINE",
"321 0 LINE",
"677 0 LINE",
"893 409 LINE"
);
},
{
closed = 1;
nodes = (
"328 724 LINE",
"671 724 LINE",
"671 50 LINE",
"328 50 LINE"
);
}
);
width = 1000;
}
);
unicode = FF2F;
},
{
color = 5;
glyphname = P.full;
lastChange = "2019-11-24 06:17:34 +0000";
layers = (
{
layerId = "E2EFC82E-60BD-407F-B427-18737B8D95A5";
paths = (
{
closed = 1;
nodes = (
"676 774 LINE",
"172 774 LINE",
"172 724 LINE",
"233 724 LINE",
"233 50 LINE",
"155 50 LINE",
"155 0 LINE",
"332 0 LINE",
"332 50 LINE",
"262 50 LINE",
"347 348 LINE",
"683 348 LINE",
"887 570 LINE"
);
},
{
closed = 1;
nodes = (
"455 724 LINE",
"665 724 LINE",
"665 398 LINE",
"362 398 LINE"
);
}
);
width = 1000;
}
);
unicode = FF30;
},
{
color = 5;
glyphname = Q.full;
lastChange = "2019-11-24 06:17:34 +0000";
layers = (
{
layerId = "E2EFC82E-60BD-407F-B427-18737B8D95A5";
paths = (
{
closed = 1;
nodes = (
"678 774 LINE",
"320 774 LINE",
"106 409 LINE",
"321 0 LINE",
"677 0 LINE",
"893 409 LINE"
);
},
{
closed = 1;
nodes = (
"397 198 LINE",
"397 50 LINE",
"328 50 LINE",
"328 724 LINE",
"671 724 LINE",
"671 50 LINE",
"557 50 LINE"
);
}
);
width = 1000;
}
);
unicode = FF31;
},
{
color = 5;
glyphname = R.full;
lastChange = "2019-11-24 06:17:34 +0000";
layers = (
{
layerId = "E2EFC82E-60BD-407F-B427-18737B8D95A5";
paths = (
{
closed = 1;
nodes = (
"798 393 LINE",
"672 393 LINE",
"858 582 LINE",
"647 774 LINE",
"170 774 LINE",
"170 724 LINE",
"225 724 LINE",
"225 398 LINE",
"225 348 LINE",
"225 50 LINE",
"144 50 LINE",
"144 0 LINE",
"321 0 LINE",
"321 50 LINE",
"254 50 LINE",
"339 348 LINE",
"628 348 LINE",
"777 50 LINE",
"686 50 LINE",
"686 0 LINE",
"864 0 LINE",
"864 50 LINE",
"798 50 LINE"
);
},
{
closed = 1;
nodes = (
"636 724 LINE",
"636 398 LINE",
"353 398 LINE",
"447 724 LINE"
);
}
);
width = 1000;
}
);
unicode = FF32;
},
{
color = 5;
glyphname = S.full;
lastChange = "2019-11-24 06:17:34 +0000";
layers = (
{
layerId = "E2EFC82E-60BD-407F-B427-18737B8D95A5";
paths = (
{
closed = 1;
nodes = (
"640 432 LINE",
"370 432 LINE",
"370 724 LINE",
"598 724 LINE",
"738 546 LINE",
"738 800 LINE",
"698 800 LINE",
"698 774 LINE",
"350 774 LINE",
"148 594 LINE",
"362 382 LINE",
"630 382 LINE",
"630 50 LINE",
"350 50 LINE",
"210 229 LINE",
"210 -22 LINE",
"250 -22 LINE",
"250 0 LINE",
"642 0 LINE",
"853 234 LINE"
);
}
);
width = 1000;
}
);
unicode = FF33;
},
{
color = 5;
glyphname = T.full;
lastChange = "2019-11-24 06:17:34 +0000";
layers = (
{
layerId = "E2EFC82E-60BD-407F-B427-18737B8D95A5";
paths = (
{
closed = 1;
nodes = (
"762 774 LINE",
"240 774 LINE",
"240 800 LINE",
"199 800 LINE",
"199 546 LINE",
"339 724 LINE",
"393 724 LINE",
"473 50 LINE",
"394 50 LINE",
"394 0 LINE",
"576 0 LINE",
"576 50 LINE",
"502 50 LINE",
"615 724 LINE",
"663 724 LINE",
"802 546 LINE",
"802 800 LINE",
"762 800 LINE"
);
}
);
width = 1000;
}
);
unicode = FF34;
},
{
color = 5;
glyphname = U.full;
lastChange = "2019-11-24 06:17:34 +0000";
layers = (
{
layerId = "E2EFC82E-60BD-407F-B427-18737B8D95A5";
paths = (
{
closed = 1;
nodes = (
"539 774 LINE",
"747 50 LINE",
"265 50 LINE",
"473 774 LINE",
"165 774 LINE",
"165 724 LINE",
"236 724 LINE",
"236 0 LINE",
"776 0 LINE",
"776 724 LINE",
"835 724 LINE",
"835 774 LINE"
);
}
);
width = 1000;
}
);
unicode = FF35;
},
{
color = 5;
glyphname = V.full;
lastChange = "2019-11-24 06:17:34 +0000";
layers = (
{
layerId = "E2EFC82E-60BD-407F-B427-18737B8D95A5";
paths = (
{
closed = 1;
nodes = (
"514 774 LINE",
"514 724 LINE",
"575 724 LINE",
"575 50 LINE",
"424 50 LINE",
"424 724 LINE",
"472 724 LINE",
"472 774 LINE",
"187 774 LINE",
"409 0 LINE",
"590 0 LINE",
"812 774 LINE"
);
}
);
width = 1000;
}
);
unicode = FF36;
},
{
color = 5;
glyphname = W.full;
lastChange = "2019-11-24 06:17:34 +0000";
layers = (
{
layerId = "E2EFC82E-60BD-407F-B427-18737B8D95A5";
paths = (
{
closed = 1;
nodes = (
"684 774 LINE",
"684 724 LINE",
"764 724 LINE",
"764 50 LINE",
"501 50 LINE",
"618 774 LINE",
"381 774 LINE",
"472 50 LINE",
"235 50 LINE",
"235 724 LINE",
"315 724 LINE",
"315 774 LINE",
"29 774 LINE",
"180 0 LINE",
"819 0 LINE",
"971 774 LINE"
);
}
);
width = 1000;
}
);
unicode = FF37;
},
{
color = 5;
glyphname = X.full;
lastChange = "2019-11-24 06:17:34 +0000";
layers = (
{
layerId = "E2EFC82E-60BD-407F-B427-18737B8D95A5";
paths = (
{
closed = 1;
nodes = (
"540 394 LINE",
"806 774 LINE",
"541 774 LINE",
"541 724 LINE",
"576 724 LINE",
"470 489 LINE",
"470 774 LINE",
"201 774 LINE",
"450 443 LINE",
"274 50 LINE",
"192 50 LINE",
"192 0 LINE",
"369 0 LINE",
"369 50 LINE",
"299 50 LINE",
"528 376 LINE",
"528 0 LINE",
"808 0 LINE"
);
}
);
width = 1000;
}
);
unicode = FF38;
},
{
color = 5;
glyphname = Y.full;
lastChange = "2019-11-24 06:17:34 +0000";
layers = (
{
layerId = "E2EFC82E-60BD-407F-B427-18737B8D95A5";
paths = (
{
closed = 1;
nodes = (
"815 774 LINE",
"528 774 LINE",
"528 724 LINE",
"600 724 LINE",
"600 406 LINE",
"398 406 LINE",
"398 724 LINE",
"466 724 LINE",
"466 774 LINE",
"184 774 LINE",
"396 398 LINE",
"468 50 LINE",
"398 50 LINE",
"398 0 LINE",
"581 0 LINE",
"581 50 LINE",
"503 50 LINE",
"604 405 LINE"
);
}
);
width = 1000;
}
);
unicode = FF39;
},
{
color = 5;
glyphname = Z.full;
lastChange = "2019-11-24 06:17:34 +0000";
layers = (
{
layerId = "E2EFC82E-60BD-407F-B427-18737B8D95A5";
paths = (
{
closed = 1;
nodes = (
"517 431 LINE",
"768 774 LINE",
"273 774 LINE",
"273 800 LINE",
"233 800 LINE",
"233 546 LINE",
"373 724 LINE",
"517 724 LINE",
"517 436 LINE",
"236 0 LINE",
"679 0 LINE",
"679 -22 LINE",
"719 -22 LINE",
"719 229 LINE",
"579 50 LINE",
"517 50 LINE"
);
}
);
width = 1000;
}
);
unicode = FF3A;
},
{
color = 11;
glyphname = a;
lastChange = "2019-11-25 06:57:01 +0000";
layers = (
{
layerId = "E2EFC82E-60BD-407F-B427-18737B8D95A5";
paths = (
{
closed = 1;
nodes = (
"423 486 LINE",
"49 486 LINE",
"49 302 LINE",
"199 436 LINE",
"406 436 LINE",
"406 50 LINE",
"203 50 LINE",
"203 339 LINE",
"40 182 LINE",
"191 0 LINE",
"624 -1 LINE"
);
}
);
width = 664;
}
);
leftKerningGroup = a;
unicode = 0061;
},
{
color = 11;
glyphname = aacute;
lastChange = "2019-11-25 06:57:01 +0000";
layers = (
{
layerId = "E2EFC82E-60BD-407F-B427-18737B8D95A5";
paths = (
{
closed = 1;
nodes = (
"172 561 LINE",
"376 704 LINE",
"182 704 LINE"
);
},
{
closed = 1;
nodes = (
"423 486 LINE",
"49 486 LINE",
"49 303 LINE",
"198 436 LINE",
"405 436 LINE",
"405 50 LINE",
"202 50 LINE",
"202 340 LINE",
"40 182 LINE",
"190 0 LINE",
"623 0 LINE"
);
}
);
width = 663;
}
);
leftKerningGroup = a;
unicode = 00E1;
},
{
color = 10;
glyphname = abreve;
lastChange = "2019-11-25 06:57:01 +0000";
layers = (
{
layerId = "E2EFC82E-60BD-407F-B427-18737B8D95A5";
paths = (
{
closed = 1;
nodes = (
"423 487 LINE",
"49 487 LINE",
"49 303 LINE",
"198 437 LINE",
"405 437 LINE",
"405 50 LINE",
"202 50 LINE",
"202 340 LINE",
"40 182 LINE",
"190 0 LINE",
"623 0 LINE"
);
},
{
closed = 1;
nodes = (
"365 652 LINE",
"247 652 LINE",
"184 752 LINE",
"108 752 LINE",
"214 590 LINE",
"398 590 LINE",
"504 752 LINE",
"428 752 LINE"
);
}
);
width = 663;
}
);
leftKerningGroup = a;
unicode = 0103;
},
{
color = 10;
glyphname = abreveacute;
lastChange = "2019-11-25 06:57:01 +0000";
layers = (
{
layerId = "E2EFC82E-60BD-407F-B427-18737B8D95A5";
paths = (
{
closed = 1;
nodes = (
"347 652 LINE",
"229 652 LINE",
"166 752 LINE",
"89 752 LINE",
"195 590 LINE",
"380 590 LINE",
"486 752 LINE",
"410 752 LINE"
);
},
{
closed = 1;
nodes = (
"235 704 LINE",
"439 847 LINE",
"245 847 LINE"
);
},
{
closed = 1;
nodes = (
"423 487 LINE",
"49 487 LINE",
"49 303 LINE",
"198 437 LINE",
"405 437 LINE",
"405 50 LINE",
"202 50 LINE",
"202 340 LINE",
"40 182 LINE",
"190 0 LINE",
"623 0 LINE"
);
}
);
width = 663;
}
);
leftKerningGroup = a;
unicode = 1EAF;
},
{
color = 10;
glyphname = abrevedotbelow;
lastChange = "2019-11-25 06:57:01 +0000";
layers = (
{
layerId = "E2EFC82E-60BD-407F-B427-18737B8D95A5";
paths = (
{
closed = 1;
nodes = (
"347 651 LINE",
"229 651 LINE",
"166 752 LINE",
"89 752 LINE",
"195 589 LINE",
"380 589 LINE",
"486 752 LINE",
"409 752 LINE"
);
},
{
closed = 1;
nodes = (
"240 -164 LINE",
"365 -164 LINE",
"365 -39 LINE",
"240 -39 LINE"
);
},
{
closed = 1;
nodes = (
"423 486 LINE",
"49 486 LINE",
"49 302 LINE",
"198 436 LINE",
"405 436 LINE",
"405 50 LINE",
"202 50 LINE",
"202 339 LINE",
"40 182 LINE",
"190 0 LINE",
"623 -1 LINE"
);
}
);
width = 663;
}
);
leftKerningGroup = a;
unicode = 1EB7;
},
{
color = 10;
glyphname = abrevegrave;
lastChange = "2019-11-25 06:57:01 +0000";
layers = (
{
layerId = "E2EFC82E-60BD-407F-B427-18737B8D95A5";
paths = (
{
closed = 1;
nodes = (
"348 651 LINE",
"230 651 LINE",
"167 752 LINE",
"91 752 LINE",
"197 589 LINE",
"382 589 LINE",
"488 752 LINE",
"411 752 LINE"
);
},
{
closed = 1;
nodes = (
"331 704 LINE",
"127 847 LINE",
"321 847 LINE"
);
},
{
closed = 1;
nodes = (
"423 486 LINE",
"49 486 LINE",
"49 302 LINE",
"198 436 LINE",
"405 436 LINE",
"405 50 LINE",
"202 50 LINE",
"202 339 LINE",
"40 182 LINE",
"190 0 LINE",
"623 -1 LINE"
);
}
);
width = 663;
}
);
leftKerningGroup = a;
unicode = 1EB1;
},
{
color = 10;
glyphname = abrevehookabove;
lastChange = "2019-11-25 06:57:01 +0000";
layers = (
{
layerId = "E2EFC82E-60BD-407F-B427-18737B8D95A5";
paths = (
{
closed = 1;
nodes = (
"328 651 LINE",
"210 651 LINE",
"147 752 LINE",
"71 752 LINE",
"177 589 LINE",
"362 589 LINE",
"468 752 LINE",
"391 752 LINE"
);
},
{
closed = 1;
nodes = (
"313 760 LINE",
"313 804 LINE",
"146 804 LINE",
"263 888 LINE",
"361 827 LINE",
"361 743 LINE",
"267 705 LINE",
"267 670 LINE",
"220 670 LINE",
"220 760 LINE"
);
},
{
closed = 1;
nodes = (
"423 486 LINE",
"49 486 LINE",
"49 302 LINE",
"198 436 LINE",
"405 436 LINE",
"405 50 LINE",
"202 50 LINE",
"202 339 LINE",
"40 182 LINE",
"190 0 LINE",
"623 -1 LINE"
);
}
);
width = 663;
}
);
leftKerningGroup = a;
unicode = 1EB3;
},
{
color = 10;
glyphname = abrevetilde;
lastChange = "2019-11-25 06:57:01 +0000";
layers = (
{
layerId = "E2EFC82E-60BD-407F-B427-18737B8D95A5";
paths = (
{
closed = 1;
nodes = (
"459 752 LINE",
"383 752 LINE",
"320 651 LINE",
"202 651 LINE",
"157 723 LINE",
"268 755 LINE",
"272 705 LINE",
"484 857 LINE",
"318 814 LINE",
"315 860 LINE",
"146 740 LINE",
"139 752 LINE",
"62 752 LINE",
"168 589 LINE",
"353 589 LINE"
);
},
{
closed = 1;
nodes = (
"49 486 LINE",
"49 302 LINE",
"198 436 LINE",
"405 436 LINE",
"405 50 LINE",
"202 50 LINE",
"202 339 LINE",
"40 182 LINE",
"190 0 LINE",
"623 -1 LINE",
"423 486 LINE"
);
}
);
width = 663;
}
);
leftKerningGroup = a;
unicode = 1EB5;
},
{
color = 11;
glyphname = acircumflex;
lastChange = "2019-11-25 06:57:01 +0000";
layers = (
{
layerId = "E2EFC82E-60BD-407F-B427-18737B8D95A5";
paths = (
{
closed = 1;
nodes = (
"454 573 LINE",
"271 618 LINE",
"89 573 LINE",
"271 720 LINE"
);
},
{
closed = 1;
nodes = (
"423 486 LINE",
"49 486 LINE",
"49 303 LINE",
"199 436 LINE",
"406 436 LINE",
"406 50 LINE",
"203 50 LINE",
"203 340 LINE",
"40 182 LINE",
"191 0 LINE",
"623 0 LINE"
);
}
);
width = 663;
}
);
leftKerningGroup = a;
unicode = 00E2;
},
{
color = 10;
glyphname = acircumflexacute;
lastChange = "2019-11-25 06:57:01 +0000";
layers = (
{
layerId = "E2EFC82E-60BD-407F-B427-18737B8D95A5";
paths = (
{
closed = 1;
nodes = (
"188 704 LINE",
"393 847 LINE",
"198 847 LINE"
);
},
{
closed = 1;
nodes = (
"89 574 LINE",
"271 618 LINE",
"453 574 LINE",
"271 721 LINE"
);
},
{
closed = 1;
nodes = (
"423 487 LINE",
"49 487 LINE",
"49 303 LINE",
"198 437 LINE",
"405 437 LINE",
"405 50 LINE",
"202 50 LINE",
"202 340 LINE",
"40 182 LINE",
"190 0 LINE",
"623 0 LINE"
);
}
);
width = 663;
}
);
leftKerningGroup = a;
unicode = 1EA5;
},
{
color = 10;
glyphname = acircumflexdotbelow;
lastChange = "2019-11-25 06:57:01 +0000";
layers = (
{
layerId = "E2EFC82E-60BD-407F-B427-18737B8D95A5";
paths = (
{
closed = 1;
nodes = (
"239 -164 LINE",
"364 -164 LINE",
"364 -39 LINE",
"239 -39 LINE"
);
},
{
closed = 1;
nodes = (
"472 574 LINE",
"290 618 LINE",
"107 574 LINE",
"290 721 LINE"
);
},
{
closed = 1;
nodes = (
"423 487 LINE",
"49 487 LINE",
"49 303 LINE",
"199 437 LINE",
"406 437 LINE",
"406 50 LINE",
"203 50 LINE",
"203 340 LINE",
"40 182 LINE",
"191 0 LINE",
"623 0 LINE"
);
}
);
width = 663;
}
);
leftKerningGroup = a;
unicode = 1EAD;
},
{
color = 10;
glyphname = acircumflexgrave;
lastChange = "2019-11-25 06:57:01 +0000";
layers = (
{
layerId = "E2EFC82E-60BD-407F-B427-18737B8D95A5";
paths = (
{
closed = 1;
nodes = (
"350 704 LINE",
"145 847 LINE",
"340 847 LINE"
);
},
{
closed = 1;
nodes = (
"448 574 LINE",
"266 618 LINE",
"84 574 LINE",
"266 721 LINE"
);
},
{
closed = 1;
nodes = (
"423 487 LINE",
"49 487 LINE",
"49 303 LINE",
"198 437 LINE",
"405 437 LINE",
"405 50 LINE",
"202 50 LINE",
"202 340 LINE",
"40 182 LINE",
"190 0 LINE",
"623 0 LINE"
);
}
);
width = 663;
}
);
leftKerningGroup = a;
unicode = 1EA7;
},
{
color = 10;
glyphname = acircumflexhookabove;
lastChange = "2019-11-25 06:57:01 +0000";
layers = (
{
layerId = "E2EFC82E-60BD-407F-B427-18737B8D95A5";
paths = (
{
closed = 1;
nodes = (
"450 728 LINE",
"450 772 LINE",
"283 772 LINE",
"400 856 LINE",
"498 795 LINE",
"498 711 LINE",
"403 672 LINE",
"403 638 LINE",
"357 638 LINE",
"357 728 LINE"
);
},
{
closed = 1;
nodes = (
"427 574 LINE",
"244 618 LINE",
"62 574 LINE",
"244 721 LINE"
);
},
{
closed = 1;
nodes = (
"423 487 LINE",
"49 487 LINE",
"49 303 LINE",
"198 437 LINE",
"405 437 LINE",
"405 50 LINE",
"202 50 LINE",
"202 340 LINE",
"40 182 LINE",
"190 0 LINE",
"623 0 LINE"
);
}
);
width = 663;
}
);
leftKerningGroup = a;
unicode = 1EA9;
},
{
color = 10;
glyphname = acircumflextilde;
lastChange = "2019-11-25 06:57:01 +0000";
layers = (
{
layerId = "E2EFC82E-60BD-407F-B427-18737B8D95A5";
paths = (
{
closed = 1;
nodes = (
"324 814 LINE",
"320 861 LINE",
"104 707 LINE",
"274 756 LINE",
"277 706 LINE",
"489 857 LINE"
);
},
{
closed = 1;
nodes = (
"427 574 LINE",
"245 618 LINE",
"63 574 LINE",
"245 721 LINE"
);
},
{
closed = 1;
nodes = (
"423 487 LINE",
"49 487 LINE",
"49 303 LINE",
"199 437 LINE",
"406 437 LINE",
"406 50 LINE",
"203 50 LINE",
"203 340 LINE",
"40 182 LINE",
"191 0 LINE",
"624 0 LINE"
);
}
);
width = 664;
}
);
leftKerningGroup = a;
unicode = 1EAB;
},
{
color = 10;
glyphname = adblgrave;
lastChange = "2019-11-25 06:57:01 +0000";
layers = (
{
layerId = "E2EFC82E-60BD-407F-B427-18737B8D95A5";
paths = (
{
closed = 1;
nodes = (
"459 487 LINE",
"85 487 LINE",
"85 303 LINE",
"234 437 LINE",
"441 437 LINE",
"441 50 LINE",
"238 50 LINE",
"238 340 LINE",
"76 182 LINE",
"226 0 LINE",
"659 0 LINE"
);
},
{
closed = 1;
nodes = (
"471 562 LINE",
"267 705 LINE",
"461 705 LINE"
);
},
{
closed = 1;
nodes = (
"245 562 LINE",
"40 705 LINE",
"235 705 LINE"
);
}
);
width = 699;
}
);
leftKerningGroup = a;
unicode = 0201;
},
{
color = 11;
glyphname = adieresis;
lastChange = "2019-11-25 06:57:01 +0000";
layers = (
{
layerId = "E2EFC82E-60BD-407F-B427-18737B8D95A5";
paths = (
{
closed = 1;
nodes = (
"83 595 LINE",
"208 595 LINE",
"208 720 LINE",
"83 720 LINE"
);
},
{
closed = 1;
nodes = (
"295 595 LINE",
"420 595 LINE",
"420 720 LINE",
"295 720 LINE"
);
},
{
closed = 1;
nodes = (
"423 486 LINE",
"49 486 LINE",
"49 303 LINE",
"198 436 LINE",
"405 436 LINE",
"405 50 LINE",
"202 50 LINE",
"202 340 LINE",
"40 182 LINE",
"190 0 LINE",
"623 0 LINE"
);
}
);
width = 663;
}
);
leftKerningGroup = a;
unicode = 00E4;
},
{
color = 10;
glyphname = adotbelow;
lastChange = "2019-11-25 06:57:01 +0000";
layers = (
{
layerId = "E2EFC82E-60BD-407F-B427-18737B8D95A5";
paths = (
{
closed = 1;
nodes = (
"240 -164 LINE",
"366 -164 LINE",
"366 -39 LINE",
"240 -39 LINE"
);
},
{
closed = 1;
nodes = (
"423 487 LINE",
"49 487 LINE",
"49 303 LINE",
"199 437 LINE",
"406 437 LINE",
"406 50 LINE",
"203 50 LINE",
"203 340 LINE",
"40 182 LINE",
"191 0 LINE",
"623 0 LINE"
);
}
);
width = 663;
}
);
leftKerningGroup = a;
unicode = 1EA1;
},
{
color = 11;
glyphname = agrave;
lastChange = "2019-11-25 06:57:01 +0000";
layers = (
{
layerId = "E2EFC82E-60BD-407F-B427-18737B8D95A5";
paths = (
{
closed = 1;
nodes = (
"345 561 LINE",
"140 704 LINE",
"335 704 LINE"
);
},
{
closed = 1;
nodes = (
"423 486 LINE",
"49 486 LINE",
"49 303 LINE",
"199 436 LINE",
"406 436 LINE",
"406 50 LINE",
"203 50 LINE",
"203 340 LINE",
"40 182 LINE",
"191 0 LINE",
"623 0 LINE"
);
}
);
width = 663;
}
);
leftKerningGroup = a;
unicode = 00E0;
},
{
color = 10;
glyphname = ahookabove;
lastChange = "2019-11-25 06:57:01 +0000";
layers = (
{
layerId = "E2EFC82E-60BD-407F-B427-18737B8D95A5";
paths = (
{
closed = 1;
nodes = (
"335 611 LINE",
"335 655 LINE",
"168 655 LINE",
"285 739 LINE",
"383 677 LINE",
"383 594 LINE",
"288 555 LINE",
"288 512 LINE",
"242 512 LINE",
"242 611 LINE"
);
},
{
closed = 1;
nodes = (
"423 487 LINE",
"49 487 LINE",
"49 303 LINE",
"198 437 LINE",
"405 437 LINE",
"405 50 LINE",
"202 50 LINE",
"202 340 LINE",
"40 182 LINE",
"190 0 LINE",
"623 0 LINE"
);
}
);
width = 663;
}
);
leftKerningGroup = a;
unicode = 1EA3;
},
{
color = 10;
glyphname = ainvertedbreve;
lastChange = "2019-11-25 06:57:01 +0000";
layers = (
{
layerId = "E2EFC82E-60BD-407F-B427-18737B8D95A5";
paths = (
{
closed = 1;
nodes = (
"423 487 LINE",
"50 487 LINE",
"50 303 LINE",
"199 437 LINE",
"406 437 LINE",
"406 50 LINE",
"203 50 LINE",
"203 340 LINE",
"40 182 LINE",
"191 0 LINE",
"624 0 LINE"
);
},
{
closed = 1;
nodes = (
"332 691 LINE",
"214 691 LINE",
"151 590 LINE",
"74 590 LINE",
"180 752 LINE",
"365 752 LINE",
"471 590 LINE",
"394 590 LINE"
);
}
);
width = 664;
}
);
leftKerningGroup = a;
unicode = 0203;
},
{
color = 10;
glyphname = amacron;
lastChange = "2019-11-25 06:57:01 +0000";
layers = (
{
layerId = "E2EFC82E-60BD-407F-B427-18737B8D95A5";
paths = (
{
closed = 1;
nodes = (
"425 487 LINE",
"51 487 LINE",
"51 303 LINE",
"201 437 LINE",
"408 437 LINE",
"408 50 LINE",
"205 50 LINE",
"205 340 LINE",
"42 182 LINE",
"193 0 LINE",
"625 0 LINE"
);
},
{
closed = 1;
nodes = (
"480 703 LINE",
"450 663 LINE",
"121 603 LINE",
"40 703 LINE"
);
}
);
width = 665;
}
);
leftKerningGroup = a;
unicode = 0101;
},
{
color = 10;
glyphname = aogonek;
lastChange = "2019-11-25 06:57:01 +0000";
layers = (
{
layerId = "E2EFC82E-60BD-407F-B427-18737B8D95A5";
paths = (
{
closed = 1;
nodes = (
"595 -108 LINE",
"623 0 LINE",
"423 487 LINE",
"49 487 LINE",
"49 303 LINE",
"199 437 LINE",
"406 437 LINE",
"406 50 LINE",
"203 50 LINE",
"203 340 LINE",
"40 182 LINE",
"191 0 LINE",
"562 0 LINE",
"512 -225 LINE",
"727 -108 LINE"
);
}
);
width = 767;
}
);
leftKerningGroup = a;
unicode = 0105;
},
{
color = 11;
glyphname = aring;
lastChange = "2019-11-25 06:57:01 +0000";
layers = (
{
layerId = "E2EFC82E-60BD-407F-B427-18737B8D95A5";
paths = (
{
closed = 1;
nodes = (
"148 583 LINE",
"381 583 LINE",
"381 752 LINE",
"148 752 LINE"
);
},
{
closed = 1;
nodes = (
"198 633 LINE",
"198 702 LINE",
"331 702 LINE",
"331 633 LINE"
);
},
{
closed = 1;
nodes = (
"423 486 LINE",
"49 486 LINE",
"49 303 LINE",
"198 436 LINE",
"405 436 LINE",
"405 50 LINE",
"202 50 LINE",
"202 340 LINE",
"40 182 LINE",
"190 0 LINE",
"623 0 LINE"
);
}
);
width = 663;
}
);
leftKerningGroup = a;
unicode = 00E5;
},
{
color = 10;
glyphname = aringacute;
lastChange = "2019-11-25 06:57:01 +0000";
layers = (
{
layerId = "E2EFC82E-60BD-407F-B427-18737B8D95A5";
paths = (
{
closed = 1;
nodes = (
"202 768 LINE",
"407 911 LINE",
"212 911 LINE"
);
},
{
closed = 1;
nodes = (
"148 583 LINE",
"380 583 LINE",
"380 752 LINE",
"148 752 LINE"
);
},
{
closed = 1;
nodes = (
"198 633 LINE",
"198 702 LINE",
"330 702 LINE",
"330 633 LINE"
);
},
{
closed = 1;
nodes = (
"423 487 LINE",
"49 487 LINE",
"49 303 LINE",
"198 437 LINE",
"405 437 LINE",
"405 50 LINE",
"202 50 LINE",
"202 340 LINE",
"40 182 LINE",
"190 0 LINE",
"623 0 LINE"
);
}
);
width = 663;
}
);
leftKerningGroup = a;
unicode = 01FB;
},
{
color = 11;
glyphname = atilde;
lastChange = "2019-11-25 06:57:01 +0000";
layers = (
{
layerId = "E2EFC82E-60BD-407F-B427-18737B8D95A5";
paths = (
{
closed = 1;
nodes = (
"317 675 LINE",
"314 722 LINE",
"97 567 LINE",
"267 616 LINE",
"271 567 LINE",
"483 718 LINE"
);
},
{
closed = 1;
nodes = (
"423 486 LINE",
"49 486 LINE",
"49 303 LINE",
"199 436 LINE",
"406 436 LINE",
"406 50 LINE",
"203 50 LINE",
"203 340 LINE",
"40 182 LINE",
"191 0 LINE",
"623 0 LINE"
);
}
);
width = 663;
}
);
leftKerningGroup = a;
unicode = 00E3;
},
{
color = 11;
glyphname = ae;
lastChange = "2019-11-25 06:57:01 +0000";
layers = (
{
layerId = "E2EFC82E-60BD-407F-B427-18737B8D95A5";
paths = (
{
closed = 1;
nodes = (
"708 50 LINE",
"569 50 LINE",
"503 199 LINE",
"503 227 LINE",
"690 227 LINE",
"896 487 LINE",
"484 486 LINE",
"439 356 LINE",
"391 486 LINE",
"50 486 LINE",
"50 303 LINE",
"199 436 LINE",
"373 436 LINE",
"373 50 LINE",
"203 50 LINE",
"203 340 LINE",
"40 182 LINE",
"191 0 LINE",
"812 0 LINE",
"812 184 LINE"
);
},
{
closed = 1;
nodes = (
"684 277 LINE",
"503 277 LINE",
"503 436 LINE",
"684 436 LINE"
);
}
);
width = 936;
}
);
leftKerningGroup = a;
unicode = 00E6;
},
{
color = 10;
glyphname = aeacute;
lastChange = "2019-11-25 06:57:01 +0000";
layers = (
{
layerId = "E2EFC82E-60BD-407F-B427-18737B8D95A5";
paths = (
{
closed = 1;
nodes = (
"368 562 LINE",
"573 705 LINE",
"378 705 LINE"
);
},
{
closed = 1;
nodes = (
"707 50 LINE",
"568 50 LINE",
"502 199 LINE",
"502 227 LINE",
"690 227 LINE",
"895 487 LINE",
"484 486 LINE",
"439 356 LINE",
"390 487 LINE",
"49 487 LINE",
"49 303 LINE",
"198 437 LINE",
"373 437 LINE",
"373 50 LINE",
"202 50 LINE",
"202 340 LINE",
"40 182 LINE",
"190 0 LINE",
"812 0 LINE",
"812 184 LINE"
);
},
{
closed = 1;
nodes = (
"683 277 LINE",
"502 277 LINE",
"502 437 LINE",
"683 437 LINE"
);
}
);
width = 935;
}
);
leftKerningGroup = a;
unicode = 01FD;
},
{
color = 11;
glyphname = b;
lastChange = "2019-11-25 00:48:34 +0000";
layers = (
{
layerId = "E2EFC82E-60BD-407F-B427-18737B8D95A5";
paths = (
{
closed = 1;
nodes = (
"405 486 LINE",
"264 486 LINE",
"346 773 LINE",
"40 773 LINE",
"40 723 LINE",
"110 723 LINE",
"110 0 LINE",
"411 0 LINE",
"596 252 LINE"
);
},
{
closed = 1;
nodes = (
"249 436 LINE",
"401 436 LINE",
"401 50 LINE",
"139 50 LINE"
);
}
);
width = 636;
}
);
leftKerningGroup = b;
unicode = 0062;
},
{
color = 11;
glyphname = c;
lastChange = "2019-11-25 06:57:10 +0000";
layers = (
{
layerId = "E2EFC82E-60BD-407F-B427-18737B8D95A5";
paths = (
{
closed = 1;
nodes = (
"526 302 LINE",
"526 486 LINE",
"230 486 LINE",
"40 252 LINE",
"224 0 LINE",
"524 0 LINE",
"524 50 LINE",
"235 50 LINE",
"235 436 LINE",
"421 436 LINE"
);
}
);
width = 566;
}
);
leftKerningGroup = c;
unicode = 0063;
},
{
color = 10;
glyphname = cacute;
lastChange = "2019-11-25 06:57:10 +0000";
layers = (
{
layerId = "E2EFC82E-60BD-407F-B427-18737B8D95A5";
paths = (
{
closed = 1;
nodes = (
"526 303 LINE",
"526 487 LINE",
"230 487 LINE",
"40 253 LINE",
"224 0 LINE",
"524 0 LINE",
"524 50 LINE",
"235 50 LINE",
"235 437 LINE",
"421 437 LINE"
);
},
{
closed = 1;
nodes = (
"268 562 LINE",
"472 705 LINE",
"278 705 LINE"
);
}
);
width = 566;
}
);
leftKerningGroup = c;
unicode = 0107;
},
{
color = 10;
glyphname = ccaron;
lastChange = "2019-11-25 06:57:10 +0000";
layers = (
{
layerId = "E2EFC82E-60BD-407F-B427-18737B8D95A5";
paths = (
{
closed = 1;
nodes = (
"526 303 LINE",
"526 487 LINE",
"230 487 LINE",
"40 253 LINE",
"224 0 LINE",
"524 0 LINE",
"524 50 LINE",
"235 50 LINE",
"235 437 LINE",
"421 437 LINE"
);
},
{
closed = 1;
nodes = (
"526 721 LINE",
"344 676 LINE",
"162 721 LINE",
"344 574 LINE"
);
}
);
width = 566;
}
);
leftKerningGroup = c;
unicode = 010D;
},
{
color = 11;
glyphname = ccedilla;
lastChange = "2019-11-25 06:57:10 +0000";
layers = (
{
layerId = "E2EFC82E-60BD-407F-B427-18737B8D95A5";
paths = (
{
closed = 1;
nodes = (
"526 303 LINE",
"526 486 LINE",
"231 486 LINE",
"40 252 LINE",
"224 0 LINE",
"327 0 LINE",
"327 -98 LINE",
"448 -98 LINE",
"448 -141 LINE",
"281 -141 LINE",
"391 -225 LINE",
"496 -153 LINE",
"496 -80 LINE",
"373 -20 LINE",
"373 0 LINE",
"524 0 LINE",
"524 50 LINE",
"235 50 LINE",
"235 436 LINE",
"422 436 LINE"
);
}
);
width = 566;
}
);
leftKerningGroup = c;
unicode = 00E7;
},
{
color = 10;
glyphname = ccircumflex;
lastChange = "2019-11-25 06:57:10 +0000";
layers = (
{
layerId = "E2EFC82E-60BD-407F-B427-18737B8D95A5";
paths = (
{
closed = 1;
nodes = (
"526 303 LINE",
"526 487 LINE",
"231 487 LINE",
"40 253 LINE",
"224 0 LINE",
"524 0 LINE",
"524 50 LINE",
"235 50 LINE",
"235 437 LINE",
"422 437 LINE"
);
},
{
closed = 1;
nodes = (
"495 574 LINE",
"313 618 LINE",
"131 574 LINE",
"313 721 LINE"
);
}
);
width = 566;
}
);
leftKerningGroup = c;
unicode = 0109;
},
{
color = 10;
glyphname = cdotaccent;
lastChange = "2019-11-25 06:57:10 +0000";
layers = (
{
layerId = "E2EFC82E-60BD-407F-B427-18737B8D95A5";
paths = (
{
closed = 1;
nodes = (
"526 303 LINE",
"526 487 LINE",
"230 487 LINE",
"40 253 LINE",
"224 0 LINE",
"524 0 LINE",
"524 50 LINE",
"235 50 LINE",
"235 437 LINE",
"421 437 LINE"
);
},
{
closed = 1;
nodes = (
"275 595 LINE",
"401 595 LINE",
"401 720 LINE",
"275 720 LINE"
);
}
);
width = 566;
}
);
leftKerningGroup = c;
unicode = 010B;
},
{
color = 11;
glyphname = d;
lastChange = "2019-11-25 00:54:57 +0000";
layers = (
{
layerId = "E2EFC82E-60BD-407F-B427-18737B8D95A5";
paths = (
{
closed = 1;
nodes = (
"602 773 LINE",
"294 773 LINE",
"377 486 LINE",
"230 486 LINE",
"40 252 LINE",
"224 0 LINE",
"602 0 LINE",
"602 50 LINE",
"531 50 LINE",
"531 723 LINE",
"602 723 LINE"
);
},
{
closed = 1;
nodes = (
"235 436 LINE",
"391 436 LINE",
"502 50 LINE",
"235 50 LINE"
);
}
);
width = 642;
}
);
leftKerningGroup = d;
unicode = 0064;
},
{
color = 11;
glyphname = eth;
lastChange = "2019-11-24 13:04:02 +0000";
layers = (
{
layerId = "E2EFC82E-60BD-407F-B427-18737B8D95A5";
paths = (
{
closed = 1;
nodes = (
"424 726 LINE",
"433 775 LINE",
"297 707 LINE",
"248 773 LINE",
"88 773 LINE",
"178 648 LINE",
"40 579 LINE",
"156 526 LINE",
"227 579 LINE",
"295 486 LINE",
"271 486 LINE",
"85 252 LINE",
"270 0 LINE",
"494 0 LINE",
"640 252 LINE",
"334 659 LINE"
);
},
{
closed = 1;
nodes = (
"280 50 LINE",
"280 436 LINE",
"324 436 LINE",
"483 223 LINE",
"483 50 LINE"
);
}
);
width = 680;
}
);
unicode = 00F0;
},
{
color = 10;
glyphname = dcaron;
lastChange = "2019-11-25 06:57:19 +0000";
layers = (
{
layerId = "E2EFC82E-60BD-407F-B427-18737B8D95A5";
paths = (
{
closed = 1;
nodes = (
"602 774 LINE",
"294 774 LINE",
"377 487 LINE",
"230 487 LINE",
"40 253 LINE",
"224 0 LINE",
"602 0 LINE",
"602 50 LINE",
"531 50 LINE",
"531 724 LINE",
"602 724 LINE"
);
},
{
closed = 1;
nodes = (
"235 437 LINE",
"391 437 LINE",
"502 50 LINE",
"235 50 LINE"
);
},
{
closed = 1;
nodes = (
"602 474 LINE",
"605 474 LINE",
"714 682 LINE",
"602 682 LINE"
);
}
);
width = 754;
}
);
leftKerningGroup = d;
unicode = 010F;
},
{
color = 10;
glyphname = dcroat;
lastChange = "2019-11-25 06:57:19 +0000";
layers = (
{
layerId = "E2EFC82E-60BD-407F-B427-18737B8D95A5";
paths = (
{
closed = 1;
nodes = (
"632 667 LINE",
"531 667 LINE",
"531 723 LINE",
"602 723 LINE",
"602 773 LINE",
"295 773 LINE",
"325 667 LINE",
"193 667 LINE",
"273 567 LINE",
"350 581 LINE",
"377 486 LINE",
"231 486 LINE",
"40 252 LINE",
"224 0 LINE",
"602 0 LINE",
"602 50 LINE",
"531 50 LINE",
"531 614 LINE",
"603 627 LINE"
);
},
{
closed = 1;
nodes = (
"235 436 LINE",
"391 436 LINE",
"502 50 LINE",
"235 50 LINE"
);
}
);
width = 672;
}
);
leftKerningGroup = d;
unicode = 0111;
},
{
color = 10;
glyphname = dzcaron;
lastChange = "2019-11-25 06:57:19 +0000";
layers = (
{
layerId = "E2EFC82E-60BD-407F-B427-18737B8D95A5";
paths = (
{
closed = 1;
nodes = (
"829 251 LINE",
"1037 486 LINE",
"650 486 LINE",
"650 345 LINE",
"743 436 LINE",
"829 436 LINE",
"829 257 LINE",
"629 -1 LINE",
"1008 -1 LINE",
"1008 140 LINE",
"915 50 LINE",
"829 50 LINE"
);
},
{
closed = 1;
nodes = (
"601 773 LINE",
"294 773 LINE",
"376 486 LINE",
"230 486 LINE",
"40 252 LINE",
"224 0 LINE",
"601 0 LINE",
"601 50 LINE",
"531 50 LINE",
"531 723 LINE",
"601 723 LINE"
);
},
{
closed = 1;
nodes = (
"235 436 LINE",
"391 436 LINE",
"502 50 LINE",
"235 50 LINE"
);
},
{
closed = 1;
nodes = (
"1016 720 LINE",
"834 676 LINE",
"651 720 LINE",
"834 573 LINE"
);
}
);
width = 1077;
}
);
leftKerningGroup = d;
unicode = 01C6;
},
{
color = 11;
glyphname = e;
lastChange = "2019-11-25 06:57:34 +0000";
layers = (
{
layerId = "E2EFC82E-60BD-407F-B427-18737B8D95A5";
paths = (
{
closed = 1;
nodes = (
"440 50 LINE",
"235 50 LINE",
"235 250 LINE",
"414 250 LINE",
"606 486 LINE",
"230 486 LINE",
"40 252 LINE",
"224 0 LINE",
"545 -1 LINE",
"545 0 LINE",
"545 183 LINE"
);
},
{
closed = 1;
nodes = (
"408 300 LINE",
"235 300 LINE",
"235 436 LINE",
"408 436 LINE"
);
}
);
width = 646;
}
);
leftKerningGroup = e;
unicode = 0065;
},
{
color = 11;
glyphname = eacute;
lastChange = "2019-11-25 06:57:34 +0000";
layers = (
{
layerId = "E2EFC82E-60BD-407F-B427-18737B8D95A5";
paths = (
{
closed = 1;
nodes = (
"272 561 LINE",
"476 704 LINE",
"282 704 LINE"
);
},
{
closed = 1;
nodes = (
"440 50 LINE",
"235 50 LINE",
"235 250 LINE",
"415 250 LINE",
"606 486 LINE",
"231 486 LINE",
"40 252 LINE",
"224 0 LINE",
"545 0 LINE",
"545 184 LINE"
);
},
{
closed = 1;
nodes = (
"408 300 LINE",
"235 300 LINE",
"235 436 LINE",
"408 436 LINE"
);
}
);
width = 646;
}
);
leftKerningGroup = e;
unicode = 00E9;
},
{
color = 10;
glyphname = ebreve;
lastChange = "2019-11-25 06:57:34 +0000";
layers = (
{
layerId = "E2EFC82E-60BD-407F-B427-18737B8D95A5";
paths = (
{
closed = 1;
nodes = (
"440 50 LINE",
"235 50 LINE",
"235 250 LINE",
"415 250 LINE",
"607 486 LINE",
"231 486 LINE",
"40 252 LINE",
"225 0 LINE",
"545 -1 LINE",
"545 0 LINE",
"545 183 LINE"
);
},
{
closed = 1;
nodes = (
"408 300 LINE",
"235 300 LINE",
"235 436 LINE",
"408 436 LINE"
);
},
{
closed = 1;
nodes = (
"436 651 LINE",
"318 651 LINE",
"255 752 LINE",
"179 752 LINE",
"285 589 LINE",
"469 589 LINE",
"575 752 LINE",
"499 752 LINE"
);
}
);
width = 647;
}
);
leftKerningGroup = e;
unicode = 0115;
},
{
color = 10;
glyphname = ecaron;
lastChange = "2019-11-25 06:57:34 +0000";
layers = (
{
layerId = "E2EFC82E-60BD-407F-B427-18737B8D95A5";
paths = (
{
closed = 1;
nodes = (
"440 50 LINE",
"235 50 LINE",
"235 250 LINE",
"414 250 LINE",
"606 486 LINE",
"230 486 LINE",
"40 252 LINE",
"224 0 LINE",
"544 -1 LINE",
"544 0 LINE",
"544 183 LINE"
);
},
{
closed = 1;
nodes = (
"407 300 LINE",
"235 300 LINE",
"235 436 LINE",
"407 436 LINE"
);
},
{
closed = 1;
nodes = (
"544 720 LINE",
"361 676 LINE",
"179 720 LINE",
"361 573 LINE"
);
}
);
width = 646;
}
);
leftKerningGroup = e;
unicode = 011B;
},
{
color = 11;
glyphname = ecircumflex;
lastChange = "2019-11-25 06:57:34 +0000";
layers = (
{
layerId = "E2EFC82E-60BD-407F-B427-18737B8D95A5";
paths = (
{
closed = 1;
nodes = (
"505 573 LINE",
"323 618 LINE",
"141 573 LINE",
"323 720 LINE"
);
},
{
closed = 1;
nodes = (
"440 50 LINE",
"235 50 LINE",
"235 250 LINE",
"415 250 LINE",
"606 486 LINE",
"231 486 LINE",
"40 252 LINE",
"224 0 LINE",
"545 0 LINE",
"545 184 LINE"
);
},
{
closed = 1;
nodes = (
"408 300 LINE",
"235 300 LINE",
"235 436 LINE",
"408 436 LINE"
);
}
);
width = 646;
}
);
leftKerningGroup = e;
unicode = 00EA;
},
{
color = 10;
glyphname = ecircumflexacute;
lastChange = "2019-11-25 06:57:34 +0000";
layers = (
{
layerId = "E2EFC82E-60BD-407F-B427-18737B8D95A5";
paths = (
{
closed = 1;
nodes = (
"247 704 LINE",
"452 847 LINE",
"257 847 LINE"
);
},
{
closed = 1;
nodes = (
"148 573 LINE",
"330 618 LINE",
"512 573 LINE",
"330 720 LINE"
);
},
{
closed = 1;
nodes = (
"440 50 LINE",
"235 50 LINE",
"235 250 LINE",
"415 250 LINE",
"606 486 LINE",
"231 486 LINE",
"40 252 LINE",
"224 0 LINE",
"545 -1 LINE",
"545 0 LINE",
"545 183 LINE"
);
},
{
closed = 1;
nodes = (
"408 300 LINE",
"235 300 LINE",
"235 436 LINE",
"408 436 LINE"
);
}
);
width = 646;
}
);
leftKerningGroup = e;
unicode = 1EBF;
},
{
color = 10;
glyphname = ecircumflexdotbelow;
lastChange = "2019-11-25 06:57:34 +0000";
layers = (
{
layerId = "E2EFC82E-60BD-407F-B427-18737B8D95A5";
paths = (
{
closed = 1;
nodes = (
"520 574 LINE",
"338 618 LINE",
"156 574 LINE",
"338 720 LINE"
);
},
{
closed = 1;
nodes = (
"440 50 LINE",
"235 50 LINE",
"235 250 LINE",
"415 250 LINE",
"607 486 LINE",
"231 486 LINE",
"40 252 LINE",
"225 0 LINE",
"545 0 LINE",
"545 184 LINE"
);
},
{
closed = 1;
nodes = (
"408 300 LINE",
"235 300 LINE",
"235 436 LINE",
"408 436 LINE"
);
},
{
closed = 1;
nodes = (
"276 -164 LINE",
"401 -164 LINE",
"401 -39 LINE",
"276 -39 LINE"
);
}
);
width = 647;
}
);
leftKerningGroup = e;
unicode = 1EC7;
},
{
color = 10;
glyphname = ecircumflexgrave;
lastChange = "2019-11-25 06:57:34 +0000";
layers = (
{
layerId = "E2EFC82E-60BD-407F-B427-18737B8D95A5";
paths = (
{
closed = 1;
nodes = (
"427 704 LINE",
"223 847 LINE",
"417 847 LINE"
);
},
{
closed = 1;
nodes = (
"526 574 LINE",
"344 618 LINE",
"162 574 LINE",
"344 720 LINE"
);
},
{
closed = 1;
nodes = (
"440 50 LINE",
"235 50 LINE",
"235 250 LINE",
"414 250 LINE",
"606 486 LINE",
"230 486 LINE",
"40 252 LINE",
"224 0 LINE",
"544 0 LINE",
"544 184 LINE"
);
},
{
closed = 1;
nodes = (
"407 300 LINE",
"235 300 LINE",
"235 436 LINE",
"407 436 LINE"
);
}
);
width = 646;
}
);
leftKerningGroup = e;
unicode = 1EC1;
},
{
color = 10;
glyphname = ecircumflexhookabove;
lastChange = "2019-11-25 06:57:34 +0000";
layers = (
{
layerId = "E2EFC82E-60BD-407F-B427-18737B8D95A5";
paths = (
{
closed = 1;
nodes = (
"531 728 LINE",
"531 772 LINE",
"364 772 LINE",
"481 855 LINE",
"579 794 LINE",
"579 710 LINE",
"485 672 LINE",
"485 638 LINE",
"438 638 LINE",
"438 728 LINE"
);
},
{
closed = 1;
nodes = (
"508 574 LINE",
"326 618 LINE",
"143 574 LINE",
"326 720 LINE"
);
},
{
closed = 1;
nodes = (
"440 50 LINE",
"235 50 LINE",
"235 250 LINE",
"414 250 LINE",
"606 486 LINE",
"230 486 LINE",
"40 252 LINE",
"224 0 LINE",
"545 0 LINE",
"545 184 LINE"
);
},
{
closed = 1;
nodes = (
"408 300 LINE",
"235 300 LINE",
"235 436 LINE",
"408 436 LINE"
);
}
);
width = 646;
}
);
leftKerningGroup = e;
unicode = 1EC3;
},
{
color = 10;
glyphname = ecircumflextilde;
lastChange = "2019-11-25 06:57:34 +0000";
layers = (
{
layerId = "E2EFC82E-60BD-407F-B427-18737B8D95A5";
paths = (
{
closed = 1;
nodes = (
"407 814 LINE",
"403 861 LINE",
"186 706 LINE",
"356 755 LINE",
"360 706 LINE",
"572 857 LINE"
);
},
{
closed = 1;
nodes = (
"510 574 LINE",
"327 618 LINE",
"145 574 LINE",
"327 720 LINE"
);
},
{
closed = 1;
nodes = (
"440 50 LINE",
"235 50 LINE",
"235 250 LINE",
"414 250 LINE",
"606 486 LINE",
"230 486 LINE",
"40 252 LINE",
"224 0 LINE",
"545 0 LINE",
"545 184 LINE"
);
},
{
closed = 1;
nodes = (
"408 300 LINE",
"235 300 LINE",
"235 436 LINE",
"408 436 LINE"
);
}
);
width = 646;
}
);
leftKerningGroup = e;
unicode = 1EC5;
},
{
color = 10;
glyphname = edblgrave;
lastChange = "2019-11-25 06:57:34 +0000";
layers = (
{
layerId = "E2EFC82E-60BD-407F-B427-18737B8D95A5";
paths = (
{
closed = 1;
nodes = (
"312 562 LINE",
"107 705 LINE",
"302 705 LINE"
);
},
{
closed = 1;
nodes = (
"538 562 LINE",
"334 705 LINE",
"528 705 LINE"
);
},
{
closed = 1;
nodes = (
"440 50 LINE",
"235 50 LINE",
"235 251 LINE",
"415 251 LINE",
"607 487 LINE",
"231 487 LINE",
"40 253 LINE",
"224 0 LINE",
"545 0 LINE",
"545 184 LINE"
);
},
{
closed = 1;
nodes = (
"408 301 LINE",
"235 301 LINE",
"235 437 LINE",
"408 437 LINE"
);
}
);
width = 647;
}
);
leftKerningGroup = e;
unicode = 0205;
},
{
color = 11;
glyphname = edieresis;
lastChange = "2019-11-25 06:57:34 +0000";
layers = (
{
layerId = "E2EFC82E-60BD-407F-B427-18737B8D95A5";
paths = (
{
closed = 1;
nodes = (
"155 595 LINE",
"280 595 LINE",
"280 720 LINE",
"155 720 LINE"
);
},
{
closed = 1;
nodes = (
"367 595 LINE",
"492 595 LINE",
"492 720 LINE",
"367 720 LINE"
);
},
{
closed = 1;
nodes = (
"440 50 LINE",
"235 50 LINE",
"235 250 LINE",
"415 250 LINE",
"607 486 LINE",
"231 486 LINE",
"40 252 LINE",
"225 0 LINE",
"545 0 LINE",
"545 184 LINE"
);
},
{
closed = 1;
nodes = (
"408 300 LINE",
"235 300 LINE",
"235 436 LINE",
"408 436 LINE"
);
}
);
width = 647;
}
);
leftKerningGroup = e;
unicode = 00EB;
},
{
color = 10;
glyphname = edotaccent;
lastChange = "2019-11-25 06:57:34 +0000";
layers = (
{
layerId = "E2EFC82E-60BD-407F-B427-18737B8D95A5";
paths = (
{
closed = 1;
nodes = (
"440 50 LINE",
"235 50 LINE",
"235 250 LINE",
"415 250 LINE",
"607 486 LINE",
"231 486 LINE",
"40 252 LINE",
"224 0 LINE",
"545 -1 LINE",
"545 0 LINE",
"545 183 LINE"
);
},
{
closed = 1;
nodes = (
"408 300 LINE",
"235 300 LINE",
"235 436 LINE",
"408 436 LINE"
);
},
{
closed = 1;
nodes = (
"296 595 LINE",
"421 595 LINE",
"421 720 LINE",
"296 720 LINE"
);
}
);
width = 647;
}
);
leftKerningGroup = e;
unicode = 0117;
},
{
color = 10;
glyphname = edotbelow;
lastChange = "2019-11-25 06:57:34 +0000";
layers = (
{
layerId = "E2EFC82E-60BD-407F-B427-18737B8D95A5";
paths = (
{
closed = 1;
nodes = (
"268 -164 LINE",
"393 -164 LINE",
"393 -39 LINE",
"268 -39 LINE"
);
},
{
closed = 1;
nodes = (
"440 50 LINE",
"235 50 LINE",
"235 250 LINE",
"415 250 LINE",
"606 486 LINE",
"231 486 LINE",
"40 252 LINE",
"224 0 LINE",
"545 -1 LINE",
"545 0 LINE",
"545 183 LINE"
);
},
{
closed = 1;
nodes = (
"408 300 LINE",
"235 300 LINE",
"235 436 LINE",
"408 436 LINE"
);
}
);
width = 646;
}
);
leftKerningGroup = e;
unicode = 1EB9;
},
{
color = 11;
glyphname = egrave;
lastChange = "2019-11-25 06:57:34 +0000";
layers = (
{
layerId = "E2EFC82E-60BD-407F-B427-18737B8D95A5";
paths = (
{
closed = 1;
nodes = (
"424 561 LINE",
"219 704 LINE",
"414 704 LINE"
);
},
{
closed = 1;
nodes = (
"440 50 LINE",
"235 50 LINE",
"235 250 LINE",
"415 250 LINE",
"607 486 LINE",
"231 486 LINE",
"40 252 LINE",
"224 0 LINE",
"545 0 LINE",
"545 184 LINE"
);
},
{
closed = 1;
nodes = (
"408 300 LINE",
"235 300 LINE",
"235 436 LINE",
"408 436 LINE"
);
}
);
width = 647;
}
);
leftKerningGroup = e;
unicode = 00E8;
},
{
color = 10;
glyphname = ehookabove;
lastChange = "2019-11-25 06:57:34 +0000";
layers = (
{
layerId = "E2EFC82E-60BD-407F-B427-18737B8D95A5";
paths = (
{
closed = 1;
nodes = (
"380 610 LINE",
"380 654 LINE",
"213 654 LINE",
"330 738 LINE",
"428 677 LINE",
"428 593 LINE",
"334 555 LINE",
"334 511 LINE",
"287 511 LINE",
"287 610 LINE"
);
},
{
closed = 1;
nodes = (
"440 50 LINE",
"235 50 LINE",
"235 250 LINE",
"415 250 LINE",
"606 486 LINE",
"231 486 LINE",
"40 252 LINE",
"224 0 LINE",
"545 -1 LINE",
"545 0 LINE",
"545 183 LINE"
);
},
{
closed = 1;
nodes = (
"408 300 LINE",
"235 300 LINE",
"235 436 LINE",
"408 436 LINE"
);
}
);
width = 646;
}
);
leftKerningGroup = e;
unicode = 1EBB;
},
{
color = 10;
glyphname = einvertedbreve;
lastChange = "2019-11-25 06:57:34 +0000";
layers = (
{
layerId = "E2EFC82E-60BD-407F-B427-18737B8D95A5";
paths = (
{
closed = 1;
nodes = (
"382 691 LINE",
"264 691 LINE",
"201 590 LINE",
"125 590 LINE",
"231 752 LINE",
"415 752 LINE",
"521 590 LINE",
"445 590 LINE"
);
},
{
closed = 1;
nodes = (
"440 50 LINE",
"235 50 LINE",
"235 251 LINE",
"414 251 LINE",
"606 487 LINE",
"230 487 LINE",
"40 253 LINE",
"224 0 LINE",
"544 0 LINE",
"544 184 LINE"
);
},
{
closed = 1;
nodes = (
"408 301 LINE",
"235 301 LINE",
"235 437 LINE",
"408 437 LINE"
);
}
);
width = 646;
}
);
leftKerningGroup = e;
unicode = 0207;
},
{
color = 10;
glyphname = emacron;
lastChange = "2019-11-25 06:57:34 +0000";
layers = (
{
layerId = "E2EFC82E-60BD-407F-B427-18737B8D95A5";
paths = (
{
closed = 1;
nodes = (
"440 50 LINE",
"235 50 LINE",
"235 250 LINE",
"415 250 LINE",
"607 486 LINE",
"231 486 LINE",
"40 252 LINE",
"225 0 LINE",
"545 -1 LINE",
"545 0 LINE",
"545 183 LINE"
);
},
{
closed = 1;
nodes = (
"408 300 LINE",
"235 300 LINE",
"235 436 LINE",
"408 436 LINE"
);
},
{
closed = 1;
nodes = (
"576 702 LINE",
"547 663 LINE",
"217 603 LINE",
"137 702 LINE"
);
}
);
width = 647;
}
);
leftKerningGroup = e;
unicode = 0113;
},
{
color = 10;
glyphname = eogonek;
lastChange = "2019-11-25 10:57:11 +0000";
layers = (
{
layerId = "E2EFC82E-60BD-407F-B427-18737B8D95A5";
paths = (
{
closed = 1;
nodes = (
"545 0 LINE",
"545 1 LINE",
"545 184 LINE",
"440 51 LINE",
"235 51 LINE",
"235 251 LINE",
"415 251 LINE",
"607 487 LINE",
"231 487 LINE",
"40 253 LINE",
"225 1 LINE",
"339 1 LINE",
"290 -224 LINE",
"505 -108 LINE",
"373 -108 LINE",
"401 0 LINE"
);
},
{
closed = 1;
nodes = (
"408 437 LINE",
"408 301 LINE",
"235 301 LINE",
"235 437 LINE"
);
}
);
width = 647;
}
);
leftKerningGroup = e;
unicode = 0119;
},
{
color = 10;
glyphname = etilde;
lastChange = "2019-11-25 06:57:34 +0000";
layers = (
{
layerId = "E2EFC82E-60BD-407F-B427-18737B8D95A5";
paths = (
{
closed = 1;
nodes = (
"342 675 LINE",
"338 722 LINE",
"121 567 LINE",
"291 616 LINE",
"295 567 LINE",
"507 718 LINE"
);
},
{
closed = 1;
nodes = (
"440 50 LINE",
"235 50 LINE",
"235 250 LINE",
"415 250 LINE",
"607 486 LINE",
"231 486 LINE",
"40 252 LINE",
"225 0 LINE",
"545 -1 LINE",
"545 0 LINE",
"545 183 LINE"
);
},
{
closed = 1;
nodes = (
"408 300 LINE",
"235 300 LINE",
"235 436 LINE",
"408 436 LINE"
);
}
);
width = 647;
}
);
leftKerningGroup = e;
unicode = 1EBD;
},
{
color = 10;
glyphname = schwa;
lastChange = "2019-11-25 06:57:44 +0000";
layers = (
{
layerId = "E2EFC82E-60BD-407F-B427-18737B8D95A5";
paths = (
{
closed = 1;
nodes = (
"161 436 LINE",
"411 436 LINE",
"411 295 LINE",
"218 295 LINE",
"40 -1 LINE",
"416 0 LINE",
"606 234 LINE",
"422 486 LINE",
"45 486 LINE",
"45 265 LINE"
);
},
{
closed = 1;
nodes = (
"239 245 LINE",
"411 245 LINE",
"411 50 LINE",
"239 50 LINE"
);
}
);
width = 646;
}
);
leftKerningGroup = e;
unicode = 0259;
},
{
color = 11;
glyphname = f;
lastChange = "2019-11-25 00:54:26 +0000";
layers = (
{
layerId = "E2EFC82E-60BD-407F-B427-18737B8D95A5";
paths = (
{
closed = 1;
nodes = (
"468 600 LINE",
"468 773 LINE",
"91 773 LINE",
"167 486 LINE",
"81 486 LINE",
"81 513 LINE",
"40 513 LINE",
"40 413 LINE",
"81 413 LINE",
"81 436 LINE",
"181 436 LINE",
"284 50 LINE",
"211 50 LINE",
"211 0 LINE",
"389 0 LINE",
"389 50 LINE",
"311 50 LINE",
"311 436 LINE",
"397 436 LINE",
"397 413 LINE",
"437 413 LINE",
"437 513 LINE",
"397 513 LINE",
"397 486 LINE",
"311 486 LINE",
"311 738 LINE"
);
}
);
width = 508;
}
);
leftKerningGroup = f;
unicode = 0066;
},
{
color = 11;
glyphname = g;
lastChange = "2019-11-25 06:57:53 +0000";
layers = (
{
layerId = "E2EFC82E-60BD-407F-B427-18737B8D95A5";
paths = (
{
closed = 1;
nodes = (
"622 486 LINE",
"230 486 LINE",
"40 252 LINE",
"224 0 LINE",
"483 0 LINE",
"425 -80 LINE",
"577 -80 LINE",
"577 129 LINE",
"519 50 LINE",
"433 50 LINE",
"590 252 LINE",
"447 436 LINE",
"517 436 LINE",
"622 302 LINE"
);
},
{
closed = 1;
nodes = (
"235 50 LINE",
"235 436 LINE",
"403 436 LINE",
"403 50 LINE"
);
}
);
width = 662;
}
);
leftKerningGroup = g;
unicode = 0067;
},
{
color = 10;
glyphname = gbreve;
lastChange = "2019-11-25 06:57:53 +0000";
layers = (
{
layerId = "E2EFC82E-60BD-407F-B427-18737B8D95A5";
paths = (
{
closed = 1;
nodes = (
"622 486 LINE",
"230 486 LINE",
"40 252 LINE",
"224 0 LINE",
"483 0 LINE",
"424 -80 LINE",
"577 -80 LINE",
"577 129 LINE",
"519 50 LINE",
"433 50 LINE",
"590 252 LINE",
"447 436 LINE",
"517 436 LINE",
"622 302 LINE"
);
},
{
closed = 1;
nodes = (
"235 50 LINE",
"235 436 LINE",
"403 436 LINE",
"403 50 LINE"
);
},
{
closed = 1;
nodes = (
"430 651 LINE",
"312 651 LINE",
"249 752 LINE",
"173 752 LINE",
"279 589 LINE",
"464 589 LINE",
"570 752 LINE",
"493 752 LINE"
);
}
);
width = 662;
}
);
leftKerningGroup = g;
unicode = 011F;
},
{
color = 10;
glyphname = gcaron;
lastChange = "2019-11-25 06:57:53 +0000";
layers = (
{
layerId = "E2EFC82E-60BD-407F-B427-18737B8D95A5";
paths = (
{
closed = 1;
nodes = (
"622 486 LINE",
"230 486 LINE",
"40 252 LINE",
"225 0 LINE",
"483 0 LINE",
"425 -80 LINE",
"577 -80 LINE",
"577 128 LINE",
"519 50 LINE",
"433 50 LINE",
"590 252 LINE",
"447 436 LINE",
"517 436 LINE",
"622 302 LINE"
);
},
{
closed = 1;
nodes = (
"235 50 LINE",
"235 436 LINE",
"403 436 LINE",
"403 50 LINE"
);
},
{
closed = 1;
nodes = (
"538 720 LINE",
"355 675 LINE",
"173 720 LINE",
"355 573 LINE"
);
}
);
width = 662;
}
);
leftKerningGroup = g;
unicode = 01E7;
},
{
color = 10;
glyphname = gcircumflex;
lastChange = "2019-11-25 06:57:53 +0000";
layers = (
{
layerId = "E2EFC82E-60BD-407F-B427-18737B8D95A5";
paths = (
{
closed = 1;
nodes = (
"622 486 LINE",
"230 486 LINE",
"40 252 LINE",
"225 0 LINE",
"483 0 LINE",
"425 -80 LINE",
"577 -80 LINE",
"577 129 LINE",
"519 50 LINE",
"433 50 LINE",
"590 252 LINE",
"447 436 LINE",
"517 436 LINE",
"622 302 LINE"
);
},
{
closed = 1;
nodes = (
"235 50 LINE",
"235 436 LINE",
"403 436 LINE",
"403 50 LINE"
);
},
{
closed = 1;
nodes = (
"540 573 LINE",
"357 618 LINE",
"175 573 LINE",
"357 720 LINE"
);
}
);
width = 662;
}
);
leftKerningGroup = g;
unicode = 011D;
},
{
color = 10;
glyphname = gcommaaccent;
lastChange = "2019-11-25 06:57:53 +0000";
layers = (
{
layerId = "E2EFC82E-60BD-407F-B427-18737B8D95A5";
paths = (
{
closed = 1;
nodes = (
"623 486 LINE",
"231 486 LINE",
"40 253 LINE",
"225 0 LINE",
"483 0 LINE",
"425 -80 LINE",
"577 -80 LINE",
"577 129 LINE",
"520 50 LINE",
"433 50 LINE",
"591 253 LINE",
"447 436 LINE",
"518 436 LINE",
"623 303 LINE"
);
},
{
closed = 1;
nodes = (
"235 50 LINE",
"235 436 LINE",
"404 436 LINE",
"404 50 LINE"
);
},
{
closed = 1;
nodes = (
"331 782 LINE",
"335 782 LINE",
"443 608 LINE",
"331 573 LINE"
);
}
);
width = 663;
}
);
leftKerningGroup = g;
unicode = 0123;
},
{
color = 10;
glyphname = gdotaccent;
lastChange = "2019-11-25 06:57:53 +0000";
layers = (
{
layerId = "E2EFC82E-60BD-407F-B427-18737B8D95A5";
paths = (
{
closed = 1;
nodes = (
"622 486 LINE",
"230 486 LINE",
"40 253 LINE",
"224 0 LINE",
"482 0 LINE",
"424 -80 LINE",
"576 -80 LINE",
"576 129 LINE",
"519 50 LINE",
"433 50 LINE",
"590 253 LINE",
"446 436 LINE",
"517 436 LINE",
"622 303 LINE"
);
},
{
closed = 1;
nodes = (
"235 50 LINE",
"235 436 LINE",
"403 436 LINE",
"403 50 LINE"
);
},
{
closed = 1;
nodes = (
"295 595 LINE",
"420 595 LINE",
"420 720 LINE",
"295 720 LINE"
);
}
);
width = 662;
}
);
leftKerningGroup = g;
unicode = 0121;
},
{
color = 11;
glyphname = h;
lastChange = "2019-11-25 06:57:59 +0000";
layers = (
{
layerId = "E2EFC82E-60BD-407F-B427-18737B8D95A5";
paths = (
{
closed = 1;
nodes = (
"479 50 LINE",
"479 486 LINE",
"243 486 LINE",
"313 773 LINE",
"40 773 LINE",
"40 723 LINE",
"112 723 LINE",
"112 50 LINE",
"40 50 LINE",
"40 0 LINE",
"217 0 LINE",
"217 50 LINE",
"137 50 LINE",
"231 436 LINE",
"312 436 LINE",
"450 50 LINE",
"353 50 LINE",
"353 0 LINE",
"530 0 LINE",
"530 50 LINE"
);
}
);
width = 570;
}
);
leftKerningGroup = h;
unicode = 0068;
},
{
color = 10;
glyphname = hbar;
lastChange = "2019-11-25 06:57:59 +0000";
layers = (
{
layerId = "E2EFC82E-60BD-407F-B427-18737B8D95A5";
paths = (
{
closed = 1;
nodes = (
"546 486 LINE",
"310 486 LINE",
"334 584 LINE",
"449 605 LINE",
"479 645 LINE",
"349 645 LINE",
"380 774 LINE",
"107 774 LINE",
"107 724 LINE",
"179 724 LINE",
"179 645 LINE",
"40 645 LINE",
"120 546 LINE",
"179 556 LINE",
"179 50 LINE",
"107 50 LINE",
"107 0 LINE",
"284 0 LINE",
"284 50 LINE",
"204 50 LINE",
"298 436 LINE",
"379 436 LINE",
"516 50 LINE",
"420 50 LINE",
"420 0 LINE",
"597 0 LINE",
"597 50 LINE",
"546 50 LINE"
);
}
);
width = 637;
}
);
leftKerningGroup = h;
unicode = 0127;
},
{
color = 10;
glyphname = hcircumflex;
lastChange = "2019-11-25 06:57:59 +0000";
layers = (
{
layerId = "E2EFC82E-60BD-407F-B427-18737B8D95A5";
paths = (
{
closed = 1;
nodes = (
"479 50 LINE",
"479 486 LINE",
"243 486 LINE",
"313 774 LINE",
"40 774 LINE",
"40 724 LINE",
"112 724 LINE",
"112 50 LINE",
"40 50 LINE",
"40 0 LINE",
"218 0 LINE",
"218 50 LINE",
"137 50 LINE",
"231 436 LINE",
"313 436 LINE",
"450 50 LINE",
"353 50 LINE",
"353 0 LINE",
"531 0 LINE",
"531 50 LINE"
);
},
{
closed = 1;
nodes = (
"442 804 LINE",
"260 849 LINE",
"78 804 LINE",
"260 951 LINE"
);
}
);
width = 571;
}
);
leftKerningGroup = h;
unicode = 0125;
},
{
color = 11;
glyphname = i;
lastChange = "2019-11-25 00:53:13 +0000";
layers = (
{
layerId = "E2EFC82E-60BD-407F-B427-18737B8D95A5";
paths = (
{
closed = 1;
nodes = (
"115 50 LINE",
"115 436 LINE",
"52 436 LINE",
"52 486 LINE",
"299 486 LINE",
"150 50 LINE",
"217 50 LINE",
"217 0 LINE",
"40 0 LINE",
"40 50 LINE"
);
},
{
closed = 1;
nodes = (
"267 718 LINE",
"267 582 LINE",
"112 582 LINE",
"112 718 LINE"
);
}
);
width = 339;
}
);
leftKerningGroup = i;
unicode = 0069;
},
{
color = 11;
glyphname = idotless;
lastChange = "2019-11-25 06:58:07 +0000";
layers = (
{
layerId = "E2EFC82E-60BD-407F-B427-18737B8D95A5";
paths = (
{
closed = 1;
nodes = (
"115 50 LINE",
"115 436 LINE",
"52 436 LINE",
"52 486 LINE",
"299 486 LINE",
"150 50 LINE",
"217 50 LINE",
"217 0 LINE",
"40 0 LINE",
"40 50 LINE"
);
}
);
width = 339;
}
);
leftKerningGroup = i;
unicode = 0131;
},
{
color = 11;
glyphname = iacute;
lastChange = "2019-11-25 06:58:07 +0000";
layers = (
{
layerId = "E2EFC82E-60BD-407F-B427-18737B8D95A5";
paths = (
{
closed = 1;
nodes = (
"112 561 LINE",
"317 704 LINE",
"122 704 LINE"
);
},
{
closed = 1;
nodes = (
"115 50 LINE",
"115 436 LINE",
"52 436 LINE",
"52 486 LINE",
"299 486 LINE",
"150 50 LINE",
"217 50 LINE",
"217 0 LINE",
"40 0 LINE",
"40 50 LINE"
);
}
);
width = 357;
}
);
leftKerningGroup = i;
unicode = 00ED;
},
{
color = 10;
glyphname = ibreve;
lastChange = "2019-11-25 06:58:07 +0000";
layers = (
{
layerId = "E2EFC82E-60BD-407F-B427-18737B8D95A5";
paths = (
{
closed = 1;
nodes = (
"183 50 LINE",
"183 436 LINE",
"121 436 LINE",
"121 486 LINE",
"368 486 LINE",
"218 50 LINE",
"286 50 LINE",
"286 0 LINE",
"108 0 LINE",
"108 50 LINE"
);
},
{
closed = 1;
nodes = (
"297 651 LINE",
"179 651 LINE",
"116 752 LINE",
"40 752 LINE",
"146 590 LINE",
"331 590 LINE",
"437 752 LINE",
"360 752 LINE"
);
}
);
width = 477;
}
);
leftKerningGroup = i;
unicode = 012D;
},
{
color = 11;
glyphname = icircumflex;
lastChange = "2019-11-25 06:58:07 +0000";
layers = (
{
layerId = "E2EFC82E-60BD-407F-B427-18737B8D95A5";
paths = (
{
closed = 1;
nodes = (
"404 573 LINE",
"222 618 LINE",
"40 573 LINE",
"222 720 LINE"
);
},
{
closed = 1;
nodes = (
"167 50 LINE",
"167 436 LINE",
"105 436 LINE",
"105 486 LINE",
"352 486 LINE",
"202 50 LINE",
"270 50 LINE",
"270 0 LINE",
"92 0 LINE",
"92 50 LINE"
);
}
);
width = 444;
}
);
leftKerningGroup = i;
unicode = 00EE;
},
{
color = 10;
glyphname = idblgrave;
lastChange = "2019-11-25 06:58:07 +0000";
layers = (
{
layerId = "E2EFC82E-60BD-407F-B427-18737B8D95A5";
paths = (
{
closed = 1;
nodes = (
"260 50 LINE",
"260 436 LINE",
"198 436 LINE",
"198 486 LINE",
"445 486 LINE",
"295 50 LINE",
"363 50 LINE",
"363 0 LINE",
"185 0 LINE",
"185 50 LINE"
);
},
{
closed = 1;
nodes = (
"471 561 LINE",
"267 704 LINE",
"461 704 LINE"
);
},
{
closed = 1;
nodes = (
"245 561 LINE",
"40 704 LINE",
"235 704 LINE"
);
}
);
width = 511;
}
);
leftKerningGroup = i;
unicode = 0209;
},
{
color = 11;
glyphname = idieresis;
lastChange = "2019-11-25 06:58:07 +0000";
layers = (
{
layerId = "E2EFC82E-60BD-407F-B427-18737B8D95A5";
paths = (
{
closed = 1;
nodes = (
"40 595 LINE",
"165 595 LINE",
"165 720 LINE",
"40 720 LINE"
);
},
{
closed = 1;
nodes = (
"252 595 LINE",
"377 595 LINE",
"377 720 LINE",
"252 720 LINE"
);
},
{
closed = 1;
nodes = (
"145 50 LINE",
"145 436 LINE",
"83 436 LINE",
"83 486 LINE",
"330 486 LINE",
"180 50 LINE",
"248 50 LINE",
"248 0 LINE",
"70 0 LINE",
"70 50 LINE"
);
}
);
width = 417;
}
);
leftKerningGroup = i;
unicode = 00EF;
},
{
color = 10;
glyphname = idotaccent;
lastChange = "2019-11-25 06:58:07 +0000";
layers = (
{
layerId = "E2EFC82E-60BD-407F-B427-18737B8D95A5";
paths = (
{
closed = 1;
nodes = (
"115 50 LINE",
"115 436 LINE",
"52 436 LINE",
"52 486 LINE",
"299 486 LINE",
"150 50 LINE",
"217 50 LINE",
"217 0 LINE",
"40 0 LINE",
"40 50 LINE"
);
},
{
closed = 1;
nodes = (
"267 718 LINE",
"267 582 LINE",
"112 582 LINE",
"112 718 LINE"
);
}
);
width = 339;
}
);
leftKerningGroup = i;
},
{
color = 10;
glyphname = idotbelow;
lastChange = "2019-11-25 06:58:07 +0000";
layers = (
{
layerId = "E2EFC82E-60BD-407F-B427-18737B8D95A5";
paths = (
{
closed = 1;
nodes = (
"84 -165 LINE",
"209 -165 LINE",
"209 -39 LINE",
"84 -39 LINE"
);
},
{
closed = 1;
nodes = (
"115 50 LINE",
"115 436 LINE",
"52 436 LINE",
"52 486 LINE",
"299 486 LINE",
"150 50 LINE",
"217 50 LINE",
"217 0 LINE",
"40 0 LINE",
"40 50 LINE"
);
},
{
closed = 1;
nodes = (
"267 718 LINE",
"267 582 LINE",
"111 582 LINE",
"111 718 LINE"
);
}
);
width = 339;
}
);
leftKerningGroup = i;
unicode = 1ECB;
},
{
color = 10;
glyphname = igrave;
lastChange = "2019-11-25 06:58:07 +0000";
layers = (
{
layerId = "E2EFC82E-60BD-407F-B427-18737B8D95A5";
paths = (
{
closed = 1;
nodes = (
"245 561 LINE",
"40 704 LINE",
"235 704 LINE"
);
},
{
closed = 1;
nodes = (
"125 50 LINE",
"125 436 LINE",
"62 436 LINE",
"62 486 LINE",
"309 486 LINE",
"160 50 LINE",
"227 50 LINE",
"227 0 LINE",
"50 0 LINE",
"50 50 LINE"
);
}
);
width = 349;
}
);
leftKerningGroup = i;
unicode = 00EC;
},
{
color = 10;
glyphname = ihookabove;
lastChange = "2019-11-25 06:58:07 +0000";
layers = (
{
layerId = "E2EFC82E-60BD-407F-B427-18737B8D95A5";
paths = (
{
closed = 1;
nodes = (
"244 611 LINE",
"244 655 LINE",
"77 655 LINE",
"194 738 LINE",
"292 677 LINE",
"292 594 LINE",
"197 555 LINE",
"197 512 LINE",
"151 512 LINE",
"151 611 LINE"
);
},
{
closed = 1;
nodes = (
"115 51 LINE",
"115 437 LINE",
"53 437 LINE",
"53 487 LINE",
"300 487 LINE",
"150 51 LINE",
"218 51 LINE",
"218 0 LINE",
"40 0 LINE",
"40 51 LINE"
);
}
);
width = 340;
}
);
leftKerningGroup = i;
unicode = 1EC9;
},
{
color = 10;
glyphname = iinvertedbreve;
lastChange = "2019-11-25 06:58:07 +0000";
layers = (
{
layerId = "E2EFC82E-60BD-407F-B427-18737B8D95A5";
paths = (
{
closed = 1;
nodes = (
"201 50 LINE",
"201 436 LINE",
"138 436 LINE",
"138 486 LINE",
"385 486 LINE",
"236 50 LINE",
"303 50 LINE",
"303 0 LINE",
"126 0 LINE",
"126 50 LINE"
);
},
{
closed = 1;
nodes = (
"298 690 LINE",
"180 690 LINE",
"117 589 LINE",
"40 589 LINE",
"146 751 LINE",
"331 751 LINE",
"437 589 LINE",
"361 589 LINE"
);
}
);
width = 477;
}
);
leftKerningGroup = i;
unicode = 020B;
},
{
color = 10;
glyphname = imacron;
lastChange = "2019-11-25 06:58:07 +0000";
layers = (
{
layerId = "E2EFC82E-60BD-407F-B427-18737B8D95A5";
paths = (
{
closed = 1;
nodes = (
"205 50 LINE",
"205 436 LINE",
"143 436 LINE",
"143 486 LINE",
"390 486 LINE",
"240 50 LINE",
"308 50 LINE",
"308 0 LINE",
"130 0 LINE",
"130 50 LINE"
);
},
{
closed = 1;
nodes = (
"479 703 LINE",
"450 663 LINE",
"120 603 LINE",
"40 703 LINE"
);
}
);
width = 519;
}
);
leftKerningGroup = i;
unicode = 012B;
},
{
color = 10;
glyphname = iogonek;
lastChange = "2019-11-25 06:58:07 +0000";
layers = (
{
layerId = "E2EFC82E-60BD-407F-B427-18737B8D95A5";
paths = (
{
closed = 1;
nodes = (
"230 0 LINE",
"230 50 LINE",
"162 50 LINE",
"312 486 LINE",
"65 486 LINE",
"65 436 LINE",
"127 436 LINE",
"127 50 LINE",
"52 50 LINE",
"52 0 LINE",
"89 0 LINE",
"40 -225 LINE",
"255 -109 LINE",
"123 -109 LINE",
"151 0 LINE"
);
},
{
closed = 1;
nodes = (
"124 718 LINE",
"124 583 LINE",
"279 583 LINE",
"279 718 LINE"
);
}
);
width = 352;
}
);
leftKerningGroup = i;
unicode = 012F;
},
{
color = 10;
glyphname = itilde;
lastChange = "2019-11-25 06:58:07 +0000";
layers = (
{
layerId = "E2EFC82E-60BD-407F-B427-18737B8D95A5";
paths = (
{
closed = 1;
nodes = (
"158 50 LINE",
"158 436 LINE",
"96 436 LINE",
"96 486 LINE",
"343 486 LINE",
"193 50 LINE",
"261 50 LINE",
"261 0 LINE",
"83 0 LINE",
"83 50 LINE"
);
},
{
closed = 1;
nodes = (
"260 675 LINE",
"256 722 LINE",
"40 567 LINE",
"210 616 LINE",
"213 567 LINE",
"425 718 LINE"
);
}
);
width = 465;
}
);
leftKerningGroup = i;
unicode = 0129;
},
{
color = 11;
glyphname = j;
lastChange = "2019-11-25 06:58:13 +0000";
layers = (
{
layerId = "E2EFC82E-60BD-407F-B427-18737B8D95A5";
paths = (
{
closed = 1;
nodes = (
"40 486 LINE",
"199 82 LINE",
"72 -75 LINE",
"224 -75 LINE",
"224 436 LINE",
"293 436 LINE",
"293 486 LINE"
);
},
{
closed = 1;
nodes = (
"63 718 LINE",
"63 582 LINE",
"218 582 LINE",
"218 718 LINE"
);
}
);
width = 333;
}
);
leftKerningGroup = j;
unicode = 006A;
},
{
color = 10;
glyphname = jdotless;
lastChange = "2019-11-25 06:58:13 +0000";
layers = (
{
layerId = "E2EFC82E-60BD-407F-B427-18737B8D95A5";
paths = (
{
closed = 1;
nodes = (
"40 487 LINE",
"199 83 LINE",
"72 -75 LINE",
"224 -75 LINE",
"224 437 LINE",
"293 437 LINE",
"293 487 LINE"
);
}
);
width = 333;
}
);
leftKerningGroup = j;
unicode = 0237;
},
{
color = 10;
glyphname = jcircumflex;
lastChange = "2019-11-25 06:58:13 +0000";
layers = (
{
layerId = "E2EFC82E-60BD-407F-B427-18737B8D95A5";
paths = (
{
closed = 1;
nodes = (
"101 487 LINE",
"260 83 LINE",
"133 -75 LINE",
"285 -75 LINE",
"285 437 LINE",
"354 437 LINE",
"354 487 LINE"
);
},
{
closed = 1;
nodes = (
"404 574 LINE",
"222 618 LINE",
"40 574 LINE",
"222 721 LINE"
);
}
);
width = 444;
}
);
leftKerningGroup = j;
unicode = 0135;
},
{
color = 11;
glyphname = k;
lastChange = "2019-11-25 06:58:25 +0000";
layers = (
{
layerId = "E2EFC82E-60BD-407F-B427-18737B8D95A5";
paths = (
{
closed = 1;
nodes = (
"485 255 LINE",
"380 255 LINE",
"550 486 LINE",
"315 486 LINE",
"315 436 LINE",
"350 436 LINE",
"350 255 LINE",
"187 255 LINE",
"314 773 LINE",
"40 773 LINE",
"40 723 LINE",
"113 723 LINE",
"113 50 LINE",
"40 50 LINE",
"40 0 LINE",
"218 0 LINE",
"218 50 LINE",
"137 50 LINE",
"175 205 LINE",
"303 205 LINE",
"455 50 LINE",
"387 50 LINE",
"387 0 LINE",
"565 0 LINE",
"565 50 LINE",
"485 50 LINE"
);
}
);
width = 605;
}
);
leftKerningGroup = k;
unicode = 006B;
},
{
color = 10;
glyphname = kcommaaccent;
lastChange = "2019-11-25 06:58:25 +0000";
layers = (
{
layerId = "E2EFC82E-60BD-407F-B427-18737B8D95A5";
paths = (
{
closed = 1;
nodes = (
"485 255 LINE",
"379 255 LINE",
"549 486 LINE",
"315 486 LINE",
"315 437 LINE",
"350 437 LINE",
"350 255 LINE",
"187 255 LINE",
"313 774 LINE",
"40 774 LINE",
"40 724 LINE",
"112 724 LINE",
"112 50 LINE",
"40 50 LINE",
"40 0 LINE",
"217 0 LINE",
"217 50 LINE",
"137 50 LINE",
"175 205 LINE",
"303 205 LINE",
"454 50 LINE",
"387 50 LINE",
"387 0 LINE",
"564 0 LINE",
"564 50 LINE",
"485 50 LINE"
);
},
{
closed = 1;
nodes = (
"256 -232 LINE",
"259 -232 LINE",
"368 -58 LINE",
"256 -24 LINE"
);
}
);
width = 604;
}
);
leftKerningGroup = k;
unicode = 0137;
},
{
color = 10;
glyphname = kgreenlandic;
lastChange = "2019-11-25 06:58:25 +0000";
layers = (
{
layerId = "E2EFC82E-60BD-407F-B427-18737B8D95A5";
paths = (
{
closed = 1;
nodes = (
"485 255 LINE",
"380 255 LINE",
"550 487 LINE",
"315 487 LINE",
"315 437 LINE",
"350 437 LINE",
"350 255 LINE",
"203 255 LINE",
"270 487 LINE",
"40 487 LINE",
"40 437 LINE",
"113 437 LINE",
"113 50 LINE",
"40 50 LINE",
"40 0 LINE",
"218 0 LINE",
"218 50 LINE",
"137 50 LINE",
"189 205 LINE",
"303 205 LINE",
"455 50 LINE",
"387 50 LINE",
"387 0 LINE",
"565 0 LINE",
"565 50 LINE",
"485 50 LINE"
);
}
);
width = 605;
}
);
leftKerningGroup = k;
unicode = 0138;
},
{
color = 11;
glyphname = l;
lastChange = "2019-11-25 00:52:35 +0000";
layers = (
{
layerId = "E2EFC82E-60BD-407F-B427-18737B8D95A5";
paths = (
{
closed = 1;
nodes = (
"40 773 LINE",
"307 773 LINE",
"142 50 LINE",
"237 50 LINE",
"237 0 LINE",
"40 0 LINE",
"40 50 LINE",
"119 50 LINE",
"119 723 LINE",
"40 723 LINE"
);
}
);
width = 347;
}
);
leftKerningGroup = l;
unicode = 006C;
},
{
color = 10;
glyphname = lacute;
lastChange = "2019-11-25 06:58:35 +0000";
layers = (
{
layerId = "E2EFC82E-60BD-407F-B427-18737B8D95A5";
paths = (
{
closed = 1;
nodes = (
"40 773 LINE",
"307 773 LINE",
"142 50 LINE",
"237 50 LINE",
"237 0 LINE",
"40 0 LINE",
"40 50 LINE",
"119 50 LINE",
"119 723 LINE",
"40 723 LINE"
);
},
{
closed = 1;
nodes = (
"101 790 LINE",
"303 936 LINE",
"108 933 LINE"
);
}
);
width = 347;
}
);
leftKerningGroup = l;
unicode = 013A;
},
{
color = 10;
glyphname = lcaron;
lastChange = "2019-11-25 06:58:35 +0000";
layers = (
{
layerId = "E2EFC82E-60BD-407F-B427-18737B8D95A5";
paths = (
{
closed = 1;
nodes = (
"40 773 LINE",
"307 773 LINE",
"143 50 LINE",
"237 50 LINE",
"237 0 LINE",
"40 0 LINE",
"40 50 LINE",
"120 50 LINE",
"120 723 LINE",
"40 723 LINE"
);
},
{
closed = 1;
nodes = (
"325 477 LINE",
"329 477 LINE",
"437 651 LINE",
"325 685 LINE"
);
}
);
width = 477;
}
);
leftKerningGroup = l;
unicode = 013E;
},
{
color = 10;
glyphname = lcommaaccent;
lastChange = "2019-11-25 06:58:35 +0000";
layers = (
{
layerId = "E2EFC82E-60BD-407F-B427-18737B8D95A5";
paths = (
{
closed = 1;
nodes = (
"40 773 LINE",
"306 773 LINE",
"142 50 LINE",
"237 50 LINE",
"237 0 LINE",
"40 0 LINE",
"40 50 LINE",
"119 50 LINE",
"119 723 LINE",
"40 723 LINE"
);
},
{
closed = 1;
nodes = (
"113 -233 LINE",
"116 -233 LINE",
"225 -59 LINE",
"113 -25 LINE"
);
}
);
width = 346;
}
);
leftKerningGroup = l;
unicode = 013C;
},
{
color = 10;
glyphname = ldot;
lastChange = "2019-11-25 06:58:35 +0000";
layers = (
{
layerId = "E2EFC82E-60BD-407F-B427-18737B8D95A5";
paths = (
{
closed = 1;
nodes = (
"40 774 LINE",
"306 774 LINE",
"142 50 LINE",
"237 50 LINE",
"237 0 LINE",
"40 0 LINE",
"40 50 LINE",
"119 50 LINE",
"119 724 LINE",
"40 724 LINE"
);
},
{
closed = 1;
nodes = (
"276 370 LINE",
"402 370 LINE",
"402 495 LINE",
"276 495 LINE"
);
}
);
width = 442;
}
);
leftKerningGroup = l;
unicode = 0140;
},
{
color = 10;
glyphname = lj;
lastChange = "2019-11-25 06:58:35 +0000";
layers = (
{
layerId = "E2EFC82E-60BD-407F-B427-18737B8D95A5";
paths = (
{
closed = 1;
nodes = (
"391 486 LINE",
"550 82 LINE",
"423 -75 LINE",
"575 -75 LINE",
"575 436 LINE",
"644 436 LINE",
"644 486 LINE"
);
},
{
closed = 1;
nodes = (
"413 718 LINE",
"413 582 LINE",
"569 582 LINE",
"569 718 LINE"
);
},
{
closed = 1;
nodes = (
"40 773 LINE",
"307 773 LINE",
"142 50 LINE",
"237 50 LINE",
"237 0 LINE",
"40 0 LINE",
"40 50 LINE",
"119 50 LINE",
"119 723 LINE",
"40 723 LINE"
);
}
);
width = 684;
}
);
leftKerningGroup = l;
unicode = 01C9;
},
{
color = 10;
glyphname = lslash;
lastChange = "2019-11-25 06:58:35 +0000";
layers = (
{
layerId = "E2EFC82E-60BD-407F-B427-18737B8D95A5";
paths = (
{
closed = 1;
nodes = (
"480 530 LINE",
"322 498 LINE",
"385 774 LINE",
"118 774 LINE",
"118 724 LINE",
"197 724 LINE",
"197 474 LINE",
"40 443 LINE",
"121 343 LINE",
"197 377 LINE",
"197 50 LINE",
"118 50 LINE",
"118 0 LINE",
"315 0 LINE",
"315 50 LINE",
"221 50 LINE",
"306 426 LINE",
"450 490 LINE"
);
}
);
width = 520;
}
);
leftKerningGroup = l;
unicode = 0142;
},
{
color = 11;
glyphname = m;
lastChange = "2019-11-25 00:51:55 +0000";
layers = (
{
layerId = "E2EFC82E-60BD-407F-B427-18737B8D95A5";
paths = (
{
closed = 1;
nodes = (
"656 50 LINE",
"656 486 LINE",
"61 486 LINE",
"61 436 LINE",
"100 436 LINE",
"100 50 LINE",
"40 50 LINE",
"40 0 LINE",
"218 0 LINE",
"218 50 LINE",
"135 50 LINE",
"268 436 LINE",
"293 436 LINE",
"352 50 LINE",
"281 50 LINE",
"281 0 LINE",
"459 0 LINE",
"459 50 LINE",
"387 50 LINE",
"460 436 LINE",
"489 436 LINE",
"621 50 LINE",
"536 50 LINE",
"536 0 LINE",
"714 0 LINE",
"714 50 LINE"
);
}
);
width = 754;
}
);
leftKerningGroup = m;
unicode = 006D;
},
{
color = 11;
glyphname = n;
lastChange = "2019-11-25 07:02:07 +0000";
layers = (
{
layerId = "E2EFC82E-60BD-407F-B427-18737B8D95A5";
paths = (
{
closed = 1;
nodes = (
"473 50 LINE",
"473 486 LINE",
"50 486 LINE",
"50 436 LINE",
"100 436 LINE",
"100 50 LINE",
"40 50 LINE",
"40 0 LINE",
"218 0 LINE",
"218 50 LINE",
"135 50 LINE",
"267 436 LINE",
"306 436 LINE",
"438 50 LINE",
"374 50 LINE",
"374 0 LINE",
"551 0 LINE",
"551 50 LINE"
);
}
);
width = 591;
}
);
leftKerningGroup = n;
unicode = 006E;
},
{
color = 10;
glyphname = nacute;
lastChange = "2019-11-25 06:58:43 +0000";
layers = (
{
layerId = "E2EFC82E-60BD-407F-B427-18737B8D95A5";
paths = (
{
closed = 1;
nodes = (
"473 50 LINE",
"473 486 LINE",
"50 487 LINE",
"50 437 LINE",
"100 437 LINE",
"100 50 LINE",
"40 50 LINE",
"40 0 LINE",
"218 0 LINE",
"218 50 LINE",
"135 50 LINE",
"267 437 LINE",
"306 437 LINE",
"438 50 LINE",
"374 50 LINE",
"374 0 LINE",
"551 0 LINE",
"551 50 LINE"
);
},
{
closed = 1;
nodes = (
"210 562 LINE",
"415 705 LINE",
"220 705 LINE"
);
}
);
width = 591;
}
);
leftKerningGroup = n;
unicode = 0144;
},
{
glyphname = napostrophe;
lastChange = "2019-11-25 06:58:43 +0000";
layers = (
{
layerId = "E2EFC82E-60BD-407F-B427-18737B8D95A5";
paths = (
{
closed = 1;
nodes = (
"473 50 LINE",
"473 486 LINE",
"50 487 LINE",
"50 437 LINE",
"100 437 LINE",
"100 50 LINE",
"40 50 LINE",
"40 0 LINE",
"217 0 LINE",
"217 50 LINE",
"135 50 LINE",
"267 437 LINE",
"306 437 LINE",
"438 50 LINE",
"373 50 LINE",
"373 0 LINE",
"551 0 LINE",
"551 50 LINE"
);
},
{
closed = 1;
nodes = (
"40 558 LINE",
"44 558 LINE",
"152 731 LINE",
"40 766 LINE"
);
}
);
width = 591;
}
);
leftKerningGroup = n;
unicode = 0149;
},
{
color = 10;
glyphname = ncaron;
lastChange = "2019-11-25 06:58:43 +0000";
layers = (
{
layerId = "E2EFC82E-60BD-407F-B427-18737B8D95A5";
paths = (
{
closed = 1;
nodes = (
"473 50 LINE",
"473 486 LINE",
"50 487 LINE",
"50 437 LINE",
"100 437 LINE",
"100 50 LINE",
"40 50 LINE",
"40 0 LINE",
"218 0 LINE",
"218 50 LINE",
"135 50 LINE",
"267 437 LINE",
"306 437 LINE",
"438 50 LINE",
"374 50 LINE",
"374 0 LINE",
"551 0 LINE",
"551 50 LINE"
);
},
{
closed = 1;
nodes = (
"458 721 LINE",
"275 676 LINE",
"93 721 LINE",
"275 574 LINE"
);
}
);
width = 591;
}
);
leftKerningGroup = n;
unicode = 0148;
},
{
color = 10;
glyphname = ncommaaccent;
lastChange = "2019-11-25 06:58:43 +0000";
layers = (
{
layerId = "E2EFC82E-60BD-407F-B427-18737B8D95A5";
paths = (
{
closed = 1;
nodes = (
"473 50 LINE",
"473 486 LINE",
"50 487 LINE",
"50 436 LINE",
"100 436 LINE",
"100 50 LINE",
"40 50 LINE",
"40 0 LINE",
"217 0 LINE",
"217 50 LINE",
"134 50 LINE",
"267 436 LINE",
"305 436 LINE",
"438 50 LINE",
"373 50 LINE",
"373 0 LINE",
"551 0 LINE",
"551 50 LINE"
);
},
{
closed = 1;
nodes = (
"249 -232 LINE",
"252 -232 LINE",
"361 -58 LINE",
"249 -24 LINE"
);
}
);
width = 591;
}
);
leftKerningGroup = n;
unicode = 0146;
},
{
color = 10;
glyphname = eng;
lastChange = "2019-11-25 11:00:40 +0000";
layers = (
{
layerId = "E2EFC82E-60BD-407F-B427-18737B8D95A5";
paths = (
{
closed = 1;
nodes = (
"50 436 LINE",
"100 436 LINE",
"100 50 LINE",
"40 50 LINE",
"40 0 LINE",
"217 0 LINE",
"217 50 LINE",
"134 50 LINE",
"267 436 LINE",
"306 436 LINE",
"447 -30 LINE",
"201 -30 LINE",
"473 -146 LINE",
"473 486 LINE",
"50 486 LINE"
);
}
);
width = 513;
}
);
leftKerningGroup = n;
unicode = 014B;
},
{
color = 10;
glyphname = nj;
lastChange = "2019-11-25 06:58:43 +0000";
layers = (
{
layerId = "E2EFC82E-60BD-407F-B427-18737B8D95A5";
paths = (
{
closed = 1;
nodes = (
"473 50 LINE",
"473 486 LINE",
"50 486 LINE",
"50 436 LINE",
"100 436 LINE",
"100 50 LINE",
"40 50 LINE",
"40 0 LINE",
"217 0 LINE",
"217 50 LINE",
"134 50 LINE",
"267 436 LINE",
"305 436 LINE",
"438 50 LINE",
"373 50 LINE",
"373 0 LINE",
"551 0 LINE",
"551 50 LINE"
);
},
{
closed = 1;
nodes = (
"551 486 LINE",
"710 82 LINE",
"583 -75 LINE",
"735 -75 LINE",
"735 436 LINE",
"804 436 LINE",
"804 486 LINE"
);
},
{
closed = 1;
nodes = (
"573 718 LINE",
"573 582 LINE",
"729 582 LINE",
"729 718 LINE"
);
}
);
width = 844;
}
);
leftKerningGroup = n;
unicode = 01CC;
},
